ISO-10303-21;
HEADER;
/* Generated by software containing ST-Developer
 * from STEP Tools, Inc. (www.steptools.com) 
 */
/* OPTION: using custom renumber hook */

FILE_DESCRIPTION(
/* description */ ('STEP AP242 Edition 2',
'CAx-IF Rec.Pracs.---Representation and Presentation of Product Manufa
cturing Information (PMI)---4.0---2014-10-13',
'CAx-IF Rec.Pracs.---3D Tessellated Geometry---0.4---2014-09-14','2;1',
'CAx-IF Rec.Pracs.---User Defined Attributes---1.5---2016-08-15'),
/* implementation_level */ '2;1');

FILE_NAME(
/* name */ 'Barrel',
/* time_stamp */ '2026-05-18T09:44:32Z',
/* author */ (''),
/* organization */ (''),
/* preprocessor_version */ 'ST-DEVELOPER v20',
/* originating_system */ 'ONSHAPE BY PTC INC, 1.215',
/* authorisation */ '  ');

FILE_SCHEMA (('AP242_MANAGED_MODEL_BASED_3D_ENGINEERING_MIM_LF { 1 0 10303 442 3 1 4 }'));
ENDSEC;

DATA;
#10=SHAPE_REPRESENTATION_RELATIONSHIP('','',#454,#11);
#11=ADVANCED_BREP_SHAPE_REPRESENTATION('',(#452),#1389);
#12=CYLINDRICAL_SURFACE('',#465,34.925);
#13=CIRCLE('',#461,34.925);
#14=CIRCLE('',#463,42.545);
#15=CIRCLE('',#464,34.925);
#16=PLANE('',#456);
#17=PLANE('',#457);
#18=PLANE('',#458);
#19=PLANE('',#459);
#20=PLANE('',#460);
#21=PLANE('',#462);
#22=LINE('',#528,#46);
#23=LINE('',#536,#47);
#24=LINE('',#544,#48);
#25=LINE('',#553,#49);
#26=LINE('',#565,#50);
#27=LINE('',#585,#51);
#28=LINE('',#592,#52);
#29=LINE('',#599,#53);
#30=LINE('',#607,#54);
#31=LINE('',#644,#55);
#32=LINE('',#690,#56);
#33=LINE('',#704,#57);
#34=LINE('',#719,#58);
#35=LINE('',#734,#59);
#36=LINE('',#749,#60);
#37=LINE('',#763,#61);
#38=LINE('',#777,#62);
#39=LINE('',#791,#63);
#40=LINE('',#805,#64);
#41=LINE('',#819,#65);
#42=LINE('',#833,#66);
#43=LINE('',#847,#67);
#44=LINE('',#866,#68);
#45=LINE('',#868,#69);
#46=VECTOR('',#468,1000.);
#47=VECTOR('',#469,1000.);
#48=VECTOR('',#470,1000.);
#49=VECTOR('',#471,1000.);
#50=VECTOR('',#472,1000.);
#51=VECTOR('',#473,1000.);
#52=VECTOR('',#474,1000.);
#53=VECTOR('',#475,1000.);
#54=VECTOR('',#478,1000.);
#55=VECTOR('',#479,1000.);
#56=VECTOR('',#480,1000.);
#57=VECTOR('',#481,1000.);
#58=VECTOR('',#482,1000.);
#59=VECTOR('',#483,1000.);
#60=VECTOR('',#484,1000.);
#61=VECTOR('',#485,1000.);
#62=VECTOR('',#486,1000.);
#63=VECTOR('',#487,1000.);
#64=VECTOR('',#488,1000.);
#65=VECTOR('',#489,1000.);
#66=VECTOR('',#490,1000.);
#67=VECTOR('',#491,1000.);
#68=VECTOR('',#494,1000.);
#69=VECTOR('',#497,1000.);
#70=ORIENTED_EDGE('',*,*,#198,.T.);
#71=ORIENTED_EDGE('',*,*,#199,.T.);
#72=ORIENTED_EDGE('',*,*,#200,.T.);
#73=ORIENTED_EDGE('',*,*,#201,.T.);
#74=ORIENTED_EDGE('',*,*,#202,.F.);
#75=ORIENTED_EDGE('',*,*,#203,.F.);
#76=ORIENTED_EDGE('',*,*,#204,.F.);
#77=ORIENTED_EDGE('',*,*,#205,.T.);
#78=ORIENTED_EDGE('',*,*,#203,.T.);
#79=ORIENTED_EDGE('',*,*,#206,.F.);
#80=ORIENTED_EDGE('',*,*,#207,.F.);
#81=ORIENTED_EDGE('',*,*,#208,.T.);
#82=ORIENTED_EDGE('',*,*,#209,.F.);
#83=ORIENTED_EDGE('',*,*,#210,.T.);
#84=ORIENTED_EDGE('',*,*,#211,.T.);
#85=ORIENTED_EDGE('',*,*,#212,.F.);
#86=ORIENTED_EDGE('',*,*,#213,.F.);
#87=ORIENTED_EDGE('',*,*,#214,.F.);
#88=ORIENTED_EDGE('',*,*,#215,.T.);
#89=ORIENTED_EDGE('',*,*,#216,.T.);
#90=ORIENTED_EDGE('',*,*,#208,.F.);
#91=ORIENTED_EDGE('',*,*,#217,.F.);
#92=ORIENTED_EDGE('',*,*,#218,.F.);
#93=ORIENTED_EDGE('',*,*,#219,.F.);
#94=ORIENTED_EDGE('',*,*,#220,.F.);
#95=ORIENTED_EDGE('',*,*,#221,.F.);
#96=ORIENTED_EDGE('',*,*,#222,.F.);
#97=ORIENTED_EDGE('',*,*,#200,.F.);
#98=ORIENTED_EDGE('',*,*,#223,.F.);
#99=ORIENTED_EDGE('',*,*,#213,.T.);
#100=ORIENTED_EDGE('',*,*,#224,.T.);
#101=ORIENTED_EDGE('',*,*,#225,.T.);
#102=ORIENTED_EDGE('',*,*,#226,.T.);
#103=ORIENTED_EDGE('',*,*,#227,.T.);
#104=ORIENTED_EDGE('',*,*,#228,.T.);
#105=ORIENTED_EDGE('',*,*,#229,.T.);
#106=ORIENTED_EDGE('',*,*,#230,.F.);
#107=ORIENTED_EDGE('',*,*,#201,.F.);
#108=ORIENTED_EDGE('',*,*,#222,.T.);
#109=ORIENTED_EDGE('',*,*,#231,.T.);
#110=ORIENTED_EDGE('',*,*,#232,.F.);
#111=ORIENTED_EDGE('',*,*,#233,.F.);
#112=ORIENTED_EDGE('',*,*,#217,.T.);
#113=ORIENTED_EDGE('',*,*,#207,.T.);
#114=ORIENTED_EDGE('',*,*,#234,.F.);
#115=ORIENTED_EDGE('',*,*,#235,.F.);
#116=ORIENTED_EDGE('',*,*,#218,.T.);
#117=ORIENTED_EDGE('',*,*,#233,.T.);
#118=ORIENTED_EDGE('',*,*,#236,.F.);
#119=ORIENTED_EDGE('',*,*,#237,.F.);
#120=ORIENTED_EDGE('',*,*,#219,.T.);
#121=ORIENTED_EDGE('',*,*,#235,.T.);
#122=ORIENTED_EDGE('',*,*,#238,.F.);
#123=ORIENTED_EDGE('',*,*,#239,.F.);
#124=ORIENTED_EDGE('',*,*,#220,.T.);
#125=ORIENTED_EDGE('',*,*,#237,.T.);
#126=ORIENTED_EDGE('',*,*,#240,.T.);
#127=ORIENTED_EDGE('',*,*,#241,.F.);
#128=ORIENTED_EDGE('',*,*,#224,.F.);
#129=ORIENTED_EDGE('',*,*,#212,.T.);
#130=ORIENTED_EDGE('',*,*,#242,.T.);
#131=ORIENTED_EDGE('',*,*,#243,.F.);
#132=ORIENTED_EDGE('',*,*,#225,.F.);
#133=ORIENTED_EDGE('',*,*,#241,.T.);
#134=ORIENTED_EDGE('',*,*,#244,.T.);
#135=ORIENTED_EDGE('',*,*,#245,.F.);
#136=ORIENTED_EDGE('',*,*,#226,.F.);
#137=ORIENTED_EDGE('',*,*,#243,.T.);
#138=ORIENTED_EDGE('',*,*,#246,.T.);
#139=ORIENTED_EDGE('',*,*,#247,.F.);
#140=ORIENTED_EDGE('',*,*,#227,.F.);
#141=ORIENTED_EDGE('',*,*,#245,.T.);
#142=ORIENTED_EDGE('',*,*,#248,.T.);
#143=ORIENTED_EDGE('',*,*,#249,.F.);
#144=ORIENTED_EDGE('',*,*,#228,.F.);
#145=ORIENTED_EDGE('',*,*,#247,.T.);
#146=ORIENTED_EDGE('',*,*,#250,.T.);
#147=ORIENTED_EDGE('',*,*,#251,.F.);
#148=ORIENTED_EDGE('',*,*,#229,.F.);
#149=ORIENTED_EDGE('',*,*,#249,.T.);
#150=ORIENTED_EDGE('',*,*,#252,.F.);
#151=ORIENTED_EDGE('',*,*,#253,.T.);
#152=ORIENTED_EDGE('',*,*,#215,.F.);
#153=ORIENTED_EDGE('',*,*,#251,.T.);
#154=ORIENTED_EDGE('',*,*,#254,.T.);
#155=ORIENTED_EDGE('',*,*,#210,.F.);
#156=ORIENTED_EDGE('',*,*,#255,.F.);
#157=ORIENTED_EDGE('',*,*,#231,.F.);
#158=ORIENTED_EDGE('',*,*,#221,.T.);
#159=ORIENTED_EDGE('',*,*,#239,.T.);
#160=ORIENTED_EDGE('',*,*,#216,.F.);
#161=ORIENTED_EDGE('',*,*,#253,.F.);
#162=ORIENTED_EDGE('',*,*,#256,.T.);
#163=ORIENTED_EDGE('',*,*,#204,.T.);
#164=ORIENTED_EDGE('',*,*,#223,.T.);
#165=ORIENTED_EDGE('',*,*,#199,.F.);
#166=ORIENTED_EDGE('',*,*,#257,.F.);
#167=ORIENTED_EDGE('',*,*,#214,.T.);
#168=ORIENTED_EDGE('',*,*,#256,.F.);
#169=ORIENTED_EDGE('',*,*,#252,.T.);
#170=ORIENTED_EDGE('',*,*,#209,.T.);
#171=ORIENTED_EDGE('',*,*,#257,.T.);
#172=ORIENTED_EDGE('',*,*,#198,.F.);
#173=ORIENTED_EDGE('',*,*,#205,.F.);
#174=ORIENTED_EDGE('',*,*,#240,.F.);
#175=ORIENTED_EDGE('',*,*,#211,.F.);
#176=ORIENTED_EDGE('',*,*,#254,.F.);
#177=ORIENTED_EDGE('',*,*,#250,.F.);
#178=ORIENTED_EDGE('',*,*,#248,.F.);
#179=ORIENTED_EDGE('',*,*,#246,.F.);
#180=ORIENTED_EDGE('',*,*,#244,.F.);
#181=ORIENTED_EDGE('',*,*,#242,.F.);
#182=ORIENTED_EDGE('',*,*,#258,.T.);
#183=ORIENTED_EDGE('',*,*,#259,.T.);
#184=ORIENTED_EDGE('',*,*,#258,.F.);
#185=ORIENTED_EDGE('',*,*,#202,.T.);
#186=ORIENTED_EDGE('',*,*,#260,.T.);
#187=ORIENTED_EDGE('',*,*,#230,.T.);
#188=ORIENTED_EDGE('',*,*,#255,.T.);
#189=ORIENTED_EDGE('',*,*,#238,.T.);
#190=ORIENTED_EDGE('',*,*,#236,.T.);
#191=ORIENTED_EDGE('',*,*,#234,.T.);
#192=ORIENTED_EDGE('',*,*,#232,.T.);
#193=ORIENTED_EDGE('',*,*,#206,.T.);
#194=ORIENTED_EDGE('',*,*,#261,.F.);
#195=ORIENTED_EDGE('',*,*,#260,.F.);
#196=ORIENTED_EDGE('',*,*,#259,.F.);
#197=ORIENTED_EDGE('',*,*,#261,.T.);
#198=EDGE_CURVE('',#262,#263,#305,.T.);
#199=EDGE_CURVE('',#263,#264,#22,.T.);
#200=EDGE_CURVE('',#264,#265,#306,.T.);
#201=EDGE_CURVE('',#265,#266,#23,.T.);
#202=EDGE_CURVE('',#267,#266,#307,.T.);
#203=EDGE_CURVE('',#262,#267,#24,.T.);
#204=EDGE_CURVE('',#268,#269,#25,.T.);
#205=EDGE_CURVE('',#268,#262,#308,.T.);
#206=EDGE_CURVE('',#270,#267,#309,.T.);
#207=EDGE_CURVE('',#271,#270,#26,.T.);
#208=EDGE_CURVE('',#271,#269,#310,.T.);
#209=EDGE_CURVE('',#272,#273,#311,.T.);
#210=EDGE_CURVE('',#272,#274,#27,.T.);
#211=EDGE_CURVE('',#274,#275,#312,.T.);
#212=EDGE_CURVE('',#276,#275,#28,.T.);
#213=EDGE_CURVE('',#277,#276,#313,.T.);
#214=EDGE_CURVE('',#273,#277,#29,.T.);
#215=EDGE_CURVE('',#278,#279,#314,.T.);
#216=EDGE_CURVE('',#279,#269,#30,.T.);
#217=EDGE_CURVE('',#280,#271,#315,.T.);
#218=EDGE_CURVE('',#281,#280,#316,.T.);
#219=EDGE_CURVE('',#282,#281,#317,.T.);
#220=EDGE_CURVE('',#283,#282,#318,.T.);
#221=EDGE_CURVE('',#284,#283,#319,.T.);
#222=EDGE_CURVE('',#265,#284,#320,.T.);
#223=EDGE_CURVE('',#277,#264,#31,.T.);
#224=EDGE_CURVE('',#276,#285,#321,.T.);
#225=EDGE_CURVE('',#285,#286,#322,.T.);
#226=EDGE_CURVE('',#286,#287,#323,.T.);
#227=EDGE_CURVE('',#287,#288,#324,.T.);
#228=EDGE_CURVE('',#288,#289,#325,.T.);
#229=EDGE_CURVE('',#289,#278,#326,.T.);
#230=EDGE_CURVE('',#266,#290,#327,.T.);
#231=EDGE_CURVE('',#284,#290,#32,.T.);
#232=EDGE_CURVE('',#291,#270,#328,.T.);
#233=EDGE_CURVE('',#280,#291,#33,.T.);
#234=EDGE_CURVE('',#292,#291,#329,.T.);
#235=EDGE_CURVE('',#281,#292,#34,.T.);
#236=EDGE_CURVE('',#293,#292,#330,.T.);
#237=EDGE_CURVE('',#282,#293,#35,.T.);
#238=EDGE_CURVE('',#294,#293,#331,.T.);
#239=EDGE_CURVE('',#283,#294,#36,.T.);
#240=EDGE_CURVE('',#275,#295,#332,.T.);
#241=EDGE_CURVE('',#285,#295,#37,.T.);
#242=EDGE_CURVE('',#295,#296,#333,.T.);
#243=EDGE_CURVE('',#286,#296,#38,.T.);
#244=EDGE_CURVE('',#296,#297,#334,.T.);
#245=EDGE_CURVE('',#287,#297,#39,.T.);
#246=EDGE_CURVE('',#297,#298,#335,.T.);
#247=EDGE_CURVE('',#288,#298,#40,.T.);
#248=EDGE_CURVE('',#298,#299,#336,.T.);
#249=EDGE_CURVE('',#289,#299,#41,.T.);
#250=EDGE_CURVE('',#299,#300,#337,.T.);
#251=EDGE_CURVE('',#278,#300,#42,.T.);
#252=EDGE_CURVE('',#301,#272,#338,.T.);
#253=EDGE_CURVE('',#301,#279,#43,.T.);
#254=EDGE_CURVE('',#300,#274,#339,.T.);
#255=EDGE_CURVE('',#290,#294,#340,.T.);
#256=EDGE_CURVE('',#301,#268,#44,.T.);
#257=EDGE_CURVE('',#273,#263,#45,.T.);
#258=EDGE_CURVE('',#302,#302,#341,.T.);
#259=EDGE_CURVE('',#303,#303,#13,.T.);
#260=EDGE_CURVE('',#266,#266,#14,.F.);
#261=EDGE_CURVE('',#304,#304,#15,.T.);
#262=VERTEX_POINT('',#526);
#263=VERTEX_POINT('',#527);
#264=VERTEX_POINT('',#529);
#265=VERTEX_POINT('',#535);
#266=VERTEX_POINT('',#537);
#267=VERTEX_POINT('',#543);
#268=VERTEX_POINT('',#554);
#269=VERTEX_POINT('',#555);
#270=VERTEX_POINT('',#564);
#271=VERTEX_POINT('',#566);
#272=VERTEX_POINT('',#583);
#273=VERTEX_POINT('',#584);
#274=VERTEX_POINT('',#586);
#275=VERTEX_POINT('',#591);
#276=VERTEX_POINT('',#593);
#277=VERTEX_POINT('',#598);
#278=VERTEX_POINT('',#605);
#279=VERTEX_POINT('',#606);
#280=VERTEX_POINT('',#612);
#281=VERTEX_POINT('',#618);
#282=VERTEX_POINT('',#624);
#283=VERTEX_POINT('',#630);
#284=VERTEX_POINT('',#636);
#285=VERTEX_POINT('',#649);
#286=VERTEX_POINT('',#654);
#287=VERTEX_POINT('',#659);
#288=VERTEX_POINT('',#664);
#289=VERTEX_POINT('',#669);
#290=VERTEX_POINT('',#689);
#291=VERTEX_POINT('',#703);
#292=VERTEX_POINT('',#718);
#293=VERTEX_POINT('',#733);
#294=VERTEX_POINT('',#748);
#295=VERTEX_POINT('',#762);
#296=VERTEX_POINT('',#776);
#297=VERTEX_POINT('',#790);
#298=VERTEX_POINT('',#804);
#299=VERTEX_POINT('',#818);
#300=VERTEX_POINT('',#832);
#301=VERTEX_POINT('',#846);
#302=VERTEX_POINT('',#903);
#303=VERTEX_POINT('',#906);
#304=VERTEX_POINT('',#1386);
#305=B_SPLINE_CURVE_WITH_KNOTS('',3,(#521,#522,#523,#524,#525),
 .UNSPECIFIED.,.F.,.F.,(4,1,4),(0.875665565446367,0.876423975155726,0.998961081033865),
 .UNSPECIFIED.);
#306=B_SPLINE_CURVE_WITH_KNOTS('',3,(#530,#531,#532,#533,#534),
 .UNSPECIFIED.,.F.,.F.,(4,1,4),(0.875665565446367,0.876423975155726,0.998961081033865),
 .UNSPECIFIED.);
#307=B_SPLINE_CURVE_WITH_KNOTS('',3,(#538,#539,#540,#541,#542),
 .UNSPECIFIED.,.F.,.F.,(4,1,4),(0.875665565446367,0.876423975155726,0.998961081033865),
 .UNSPECIFIED.);
#308=B_SPLINE_CURVE_WITH_KNOTS('',3,(#556,#557,#558,#559),.UNSPECIFIED.,
 .F.,.F.,(4,4),(0.753159539198999,0.875665565446367),
 .PIECEWISE_BEZIER_KNOTS.);
#309=B_SPLINE_CURVE_WITH_KNOTS('',3,(#560,#561,#562,#563),.UNSPECIFIED.,
 .F.,.F.,(4,4),(0.753159539198999,0.875665565446367),
 .PIECEWISE_BEZIER_KNOTS.);
#310=B_SPLINE_CURVE_WITH_KNOTS('',3,(#567,#568,#569,#570),.UNSPECIFIED.,
 .F.,.F.,(4,4),(0.753159539198999,0.875665565446367),
 .PIECEWISE_BEZIER_KNOTS.);
#311=B_SPLINE_CURVE_WITH_KNOTS('',3,(#579,#580,#581,#582),.UNSPECIFIED.,
 .F.,.F.,(4,4),(0.876423975155726,1.),.PIECEWISE_BEZIER_KNOTS.);
#312=B_SPLINE_CURVE_WITH_KNOTS('',3,(#587,#588,#589,#590),.UNSPECIFIED.,
 .F.,.F.,(4,4),(0.876423975155726,1.),.PIECEWISE_BEZIER_KNOTS.);
#313=B_SPLINE_CURVE_WITH_KNOTS('',3,(#594,#595,#596,#597),.UNSPECIFIED.,
 .F.,.F.,(4,4),(0.876423975155726,1.),.PIECEWISE_BEZIER_KNOTS.);
#314=B_SPLINE_CURVE_WITH_KNOTS('',3,(#601,#602,#603,#604),.UNSPECIFIED.,
 .F.,.F.,(4,4),(0.753159539198999,0.876423975155726),
 .PIECEWISE_BEZIER_KNOTS.);
#315=B_SPLINE_CURVE_WITH_KNOTS('',3,(#608,#609,#610,#611),.UNSPECIFIED.,
 .F.,.F.,(4,4),(0.629206228573436,0.753159539198999),
 .PIECEWISE_BEZIER_KNOTS.);
#316=B_SPLINE_CURVE_WITH_KNOTS('',3,(#613,#614,#615,#616,#617),
 .UNSPECIFIED.,.F.,.F.,(4,1,4),(0.501025222200921,0.628482160218721,0.629206228573436),
 .UNSPECIFIED.);
#317=B_SPLINE_CURVE_WITH_KNOTS('',3,(#619,#620,#621,#622,#623),
 .UNSPECIFIED.,.F.,.F.,(4,1,4),(0.372241059843863,0.5,0.501025222200921),
 .UNSPECIFIED.);
#318=B_SPLINE_CURVE_WITH_KNOTS('',3,(#625,#626,#627,#628,#629),
 .UNSPECIFIED.,.F.,.F.,(4,1,4),(0.246840460800963,0.371517839781279,0.372241059843863),
 .UNSPECIFIED.);
#319=B_SPLINE_CURVE_WITH_KNOTS('',3,(#631,#632,#633,#634,#635),
 .UNSPECIFIED.,.F.,.F.,(4,1,4),(0.122817774213765,0.123576024844275,0.246840460800963),
 .UNSPECIFIED.);
#320=B_SPLINE_CURVE_WITH_KNOTS('',3,(#637,#638,#639,#640,#641,#642,#643),
 .UNSPECIFIED.,.F.,.F.,(4,3,4),(0.998961081033865,1.,1.12281777421376),
 .PIECEWISE_BEZIER_KNOTS.);
#321=B_SPLINE_CURVE_WITH_KNOTS('',3,(#645,#646,#647,#648),.UNSPECIFIED.,
 .F.,.F.,(4,4),(0.,0.123576024844275),.PIECEWISE_BEZIER_KNOTS.);
#322=B_SPLINE_CURVE_WITH_KNOTS('',3,(#650,#651,#652,#653),.UNSPECIFIED.,
 .F.,.F.,(4,4),(0.123576024844275,0.246840460800963),
 .PIECEWISE_BEZIER_KNOTS.);
#323=B_SPLINE_CURVE_WITH_KNOTS('',3,(#655,#656,#657,#658),.UNSPECIFIED.,
 .F.,.F.,(4,4),(0.246840460800963,0.37151783978128),
 .PIECEWISE_BEZIER_KNOTS.);
#324=B_SPLINE_CURVE_WITH_KNOTS('',3,(#660,#661,#662,#663),.UNSPECIFIED.,
 .F.,.F.,(4,4),(0.37151783978128,0.5),.PIECEWISE_BEZIER_KNOTS.);
#325=B_SPLINE_CURVE_WITH_KNOTS('',3,(#665,#666,#667,#668),.UNSPECIFIED.,
 .F.,.F.,(4,4),(0.5,0.628482160218721),.PIECEWISE_BEZIER_KNOTS.);
#326=B_SPLINE_CURVE_WITH_KNOTS('',3,(#670,#671,#672,#673),.UNSPECIFIED.,
 .F.,.F.,(4,4),(0.628482160218721,0.753159539198999),
 .PIECEWISE_BEZIER_KNOTS.);
#327=B_SPLINE_CURVE_WITH_KNOTS('',3,(#682,#683,#684,#685,#686,#687,#688),
 .UNSPECIFIED.,.F.,.F.,(4,3,4),(0.998961081033865,1.,1.12281777421376),
 .PIECEWISE_BEZIER_KNOTS.);
#328=B_SPLINE_CURVE_WITH_KNOTS('',3,(#699,#700,#701,#702),.UNSPECIFIED.,
 .F.,.F.,(4,4),(0.629206228573436,0.753159539198999),
 .PIECEWISE_BEZIER_KNOTS.);
#329=B_SPLINE_CURVE_WITH_KNOTS('',3,(#713,#714,#715,#716,#717),
 .UNSPECIFIED.,.F.,.F.,(4,1,4),(0.501025222200921,0.628482160218721,0.629206228573436),
 .UNSPECIFIED.);
#330=B_SPLINE_CURVE_WITH_KNOTS('',3,(#728,#729,#730,#731,#732),
 .UNSPECIFIED.,.F.,.F.,(4,1,4),(0.372241059843863,0.5,0.501025222200921),
 .UNSPECIFIED.);
#331=B_SPLINE_CURVE_WITH_KNOTS('',3,(#743,#744,#745,#746,#747),
 .UNSPECIFIED.,.F.,.F.,(4,1,4),(0.246840460800963,0.371517839781279,0.372241059843863),
 .UNSPECIFIED.);
#332=B_SPLINE_CURVE_WITH_KNOTS('',3,(#758,#759,#760,#761),.UNSPECIFIED.,
 .F.,.F.,(4,4),(0.,0.123576024844275),.PIECEWISE_BEZIER_KNOTS.);
#333=B_SPLINE_CURVE_WITH_KNOTS('',3,(#772,#773,#774,#775),.UNSPECIFIED.,
 .F.,.F.,(4,4),(0.123576024844275,0.246840460800963),
 .PIECEWISE_BEZIER_KNOTS.);
#334=B_SPLINE_CURVE_WITH_KNOTS('',3,(#786,#787,#788,#789),.UNSPECIFIED.,
 .F.,.F.,(4,4),(0.246840460800963,0.37151783978128),
 .PIECEWISE_BEZIER_KNOTS.);
#335=B_SPLINE_CURVE_WITH_KNOTS('',3,(#800,#801,#802,#803),.UNSPECIFIED.,
 .F.,.F.,(4,4),(0.37151783978128,0.5),.PIECEWISE_BEZIER_KNOTS.);
#336=B_SPLINE_CURVE_WITH_KNOTS('',3,(#814,#815,#816,#817),.UNSPECIFIED.,
 .F.,.F.,(4,4),(0.5,0.628482160218721),.PIECEWISE_BEZIER_KNOTS.);
#337=B_SPLINE_CURVE_WITH_KNOTS('',3,(#828,#829,#830,#831),.UNSPECIFIED.,
 .F.,.F.,(4,4),(0.628482160218721,0.753159539198999),
 .PIECEWISE_BEZIER_KNOTS.);
#338=B_SPLINE_CURVE_WITH_KNOTS('',3,(#842,#843,#844,#845),.UNSPECIFIED.,
 .F.,.F.,(4,4),(0.753159539198999,0.876423975155726),
 .PIECEWISE_BEZIER_KNOTS.);
#339=B_SPLINE_CURVE_WITH_KNOTS('',3,(#848,#849,#850,#851),.UNSPECIFIED.,
 .F.,.F.,(4,4),(0.753159539198999,0.876423975155726),
 .PIECEWISE_BEZIER_KNOTS.);
#340=B_SPLINE_CURVE_WITH_KNOTS('',3,(#860,#861,#862,#863,#864),
 .UNSPECIFIED.,.F.,.F.,(4,1,4),(0.122817774213765,0.123576024844275,0.246840460800963),
 .UNSPECIFIED.);
#341=B_SPLINE_CURVE_WITH_KNOTS('',3,(#892,#893,#894,#895,#896,#897,#898,
#899,#900,#901,#902),.UNSPECIFIED.,.T.,.F.,(1,3,1,1,1,1,1,1,1,3,1),(-0.123576024844275,
0.,0.123576024844275,0.246840460800963,0.37151783978128,0.5,0.628482160218721,
0.753159539198999,0.876423975155726,1.,1.12357602484427),.UNSPECIFIED.);
#342=EDGE_LOOP('',(#70,#71,#72,#73,#74,#75));
#343=EDGE_LOOP('',(#76,#77,#78,#79,#80,#81));
#344=EDGE_LOOP('',(#82,#83,#84,#85,#86,#87));
#345=EDGE_LOOP('',(#88,#89,#90,#91,#92,#93,#94,#95,#96,#97,#98,#99,#100,
#101,#102,#103,#104,#105));
#346=EDGE_LOOP('',(#106,#107,#108,#109));
#347=EDGE_LOOP('',(#110,#111,#112,#113));
#348=EDGE_LOOP('',(#114,#115,#116,#117));
#349=EDGE_LOOP('',(#118,#119,#120,#121));
#350=EDGE_LOOP('',(#122,#123,#124,#125));
#351=EDGE_LOOP('',(#126,#127,#128,#129));
#352=EDGE_LOOP('',(#130,#131,#132,#133));
#353=EDGE_LOOP('',(#134,#135,#136,#137));
#354=EDGE_LOOP('',(#138,#139,#140,#141));
#355=EDGE_LOOP('',(#142,#143,#144,#145));
#356=EDGE_LOOP('',(#146,#147,#148,#149));
#357=EDGE_LOOP('',(#150,#151,#152,#153,#154,#155));
#358=EDGE_LOOP('',(#156,#157,#158,#159));
#359=EDGE_LOOP('',(#160,#161,#162,#163));
#360=EDGE_LOOP('',(#164,#165,#166,#167));
#361=EDGE_LOOP('',(#168,#169,#170,#171,#172,#173));
#362=EDGE_LOOP('',(#174,#175,#176,#177,#178,#179,#180,#181));
#363=EDGE_LOOP('',(#182));
#364=EDGE_LOOP('',(#183));
#365=EDGE_LOOP('',(#184));
#366=EDGE_LOOP('',(#185,#186,#187,#188,#189,#190,#191,#192,#193));
#367=EDGE_LOOP('',(#194));
#368=EDGE_LOOP('',(#195));
#369=EDGE_LOOP('',(#196));
#370=EDGE_LOOP('',(#197));
#371=FACE_BOUND('',#342,.T.);
#372=FACE_BOUND('',#343,.T.);
#373=FACE_BOUND('',#344,.T.);
#374=FACE_BOUND('',#345,.T.);
#375=FACE_BOUND('',#346,.T.);
#376=FACE_BOUND('',#347,.T.);
#377=FACE_BOUND('',#348,.T.);
#378=FACE_BOUND('',#349,.T.);
#379=FACE_BOUND('',#350,.T.);
#380=FACE_BOUND('',#351,.T.);
#381=FACE_BOUND('',#352,.T.);
#382=FACE_BOUND('',#353,.T.);
#383=FACE_BOUND('',#354,.T.);
#384=FACE_BOUND('',#355,.T.);
#385=FACE_BOUND('',#356,.T.);
#386=FACE_BOUND('',#357,.T.);
#387=FACE_BOUND('',#358,.T.);
#388=FACE_BOUND('',#359,.T.);
#389=FACE_BOUND('',#360,.T.);
#390=FACE_BOUND('',#361,.T.);
#391=FACE_BOUND('',#362,.T.);
#392=FACE_BOUND('',#363,.T.);
#393=FACE_BOUND('',#364,.T.);
#394=FACE_BOUND('',#365,.T.);
#395=FACE_BOUND('',#366,.T.);
#396=FACE_BOUND('',#367,.T.);
#397=FACE_BOUND('',#368,.T.);
#398=FACE_BOUND('',#369,.T.);
#399=FACE_BOUND('',#370,.T.);
#400=B_SPLINE_SURFACE_WITH_KNOTS('',3,1,((#513,#514),(#515,#516),(#517,
#518),(#519,#520)),.SURF_OF_LINEAR_EXTRUSION.,.F.,.F.,.F.,(4,4),(2,2),(0.875665565446367,
0.998961081033865),(0.,1.),.PIECEWISE_BEZIER_KNOTS.);
#401=B_SPLINE_SURFACE_WITH_KNOTS('',3,1,((#545,#546),(#547,#548),(#549,
#550),(#551,#552)),.SURF_OF_LINEAR_EXTRUSION.,.F.,.F.,.F.,(4,4),(2,2),(0.753159539198999,
0.875665565446367),(0.,1.),.PIECEWISE_BEZIER_KNOTS.);
#402=B_SPLINE_SURFACE_WITH_KNOTS('',3,1,((#571,#572),(#573,#574),(#575,
#576),(#577,#578)),.SURF_OF_LINEAR_EXTRUSION.,.F.,.F.,.F.,(4,4),(2,2),(0.876423975155726,
1.),(0.,1.),.PIECEWISE_BEZIER_KNOTS.);
#403=B_SPLINE_SURFACE_WITH_KNOTS('',3,1,((#674,#675),(#676,#677),(#678,
#679),(#680,#681)),.SURF_OF_LINEAR_EXTRUSION.,.F.,.F.,.F.,(4,4),(2,2),(0.998961081033865,
1.12281777421376),(0.,1.),.PIECEWISE_BEZIER_KNOTS.);
#404=B_SPLINE_SURFACE_WITH_KNOTS('',3,1,((#691,#692),(#693,#694),(#695,
#696),(#697,#698)),.SURF_OF_LINEAR_EXTRUSION.,.F.,.F.,.F.,(4,4),(2,2),(0.629206228573436,
0.753159539198999),(0.,1.),.PIECEWISE_BEZIER_KNOTS.);
#405=B_SPLINE_SURFACE_WITH_KNOTS('',3,1,((#705,#706),(#707,#708),(#709,
#710),(#711,#712)),.SURF_OF_LINEAR_EXTRUSION.,.F.,.F.,.F.,(4,4),(2,2),(0.501025222200921,
0.629206228573436),(0.,1.),.PIECEWISE_BEZIER_KNOTS.);
#406=B_SPLINE_SURFACE_WITH_KNOTS('',3,1,((#720,#721),(#722,#723),(#724,
#725),(#726,#727)),.SURF_OF_LINEAR_EXTRUSION.,.F.,.F.,.F.,(4,4),(2,2),(0.372241059843863,
0.501025222200921),(0.,1.),.PIECEWISE_BEZIER_KNOTS.);
#407=B_SPLINE_SURFACE_WITH_KNOTS('',3,1,((#735,#736),(#737,#738),(#739,
#740),(#741,#742)),.SURF_OF_LINEAR_EXTRUSION.,.F.,.F.,.F.,(4,4),(2,2),(0.246840460800963,
0.372241059843863),(0.,1.),.PIECEWISE_BEZIER_KNOTS.);
#408=B_SPLINE_SURFACE_WITH_KNOTS('',3,1,((#750,#751),(#752,#753),(#754,
#755),(#756,#757)),.SURF_OF_LINEAR_EXTRUSION.,.F.,.F.,.F.,(4,4),(2,2),(0.,
0.123576024844275),(0.,1.),.PIECEWISE_BEZIER_KNOTS.);
#409=B_SPLINE_SURFACE_WITH_KNOTS('',3,1,((#764,#765),(#766,#767),(#768,
#769),(#770,#771)),.SURF_OF_LINEAR_EXTRUSION.,.F.,.F.,.F.,(4,4),(2,2),(0.123576024844275,
0.246840460800963),(0.,1.),.PIECEWISE_BEZIER_KNOTS.);
#410=B_SPLINE_SURFACE_WITH_KNOTS('',3,1,((#778,#779),(#780,#781),(#782,
#783),(#784,#785)),.SURF_OF_LINEAR_EXTRUSION.,.F.,.F.,.F.,(4,4),(2,2),(0.246840460800963,
0.37151783978128),(0.,1.),.PIECEWISE_BEZIER_KNOTS.);
#411=B_SPLINE_SURFACE_WITH_KNOTS('',3,1,((#792,#793),(#794,#795),(#796,
#797),(#798,#799)),.SURF_OF_LINEAR_EXTRUSION.,.F.,.F.,.F.,(4,4),(2,2),(0.37151783978128,
0.5),(0.,1.),.PIECEWISE_BEZIER_KNOTS.);
#412=B_SPLINE_SURFACE_WITH_KNOTS('',3,1,((#806,#807),(#808,#809),(#810,
#811),(#812,#813)),.SURF_OF_LINEAR_EXTRUSION.,.F.,.F.,.F.,(4,4),(2,2),(0.5,
0.628482160218721),(0.,1.),.PIECEWISE_BEZIER_KNOTS.);
#413=B_SPLINE_SURFACE_WITH_KNOTS('',3,1,((#820,#821),(#822,#823),(#824,
#825),(#826,#827)),.SURF_OF_LINEAR_EXTRUSION.,.F.,.F.,.F.,(4,4),(2,2),(0.628482160218721,
0.753159539198999),(0.,1.),.PIECEWISE_BEZIER_KNOTS.);
#414=B_SPLINE_SURFACE_WITH_KNOTS('',3,1,((#834,#835),(#836,#837),(#838,
#839),(#840,#841)),.SURF_OF_LINEAR_EXTRUSION.,.F.,.F.,.F.,(4,4),(2,2),(0.753159539198999,
0.876423975155726),(0.,1.),.PIECEWISE_BEZIER_KNOTS.);
#415=B_SPLINE_SURFACE_WITH_KNOTS('',3,1,((#852,#853),(#854,#855),(#856,
#857),(#858,#859)),.SURF_OF_LINEAR_EXTRUSION.,.F.,.F.,.F.,(4,4),(2,2),(0.122817774213765,
0.246840460800963),(0.,1.),.PIECEWISE_BEZIER_KNOTS.);
#416=B_SPLINE_SURFACE_WITH_KNOTS('',3,1,((#870,#871),(#872,#873),(#874,
#875),(#876,#877),(#878,#879),(#880,#881),(#882,#883),(#884,#885),(#886,
#887),(#888,#889),(#890,#891)),.SURF_OF_LINEAR_EXTRUSION.,.T.,.F.,.F.,(1,
3,1,1,1,1,1,1,1,3,1),(2,2),(-0.123576024844275,0.,0.123576024844275,0.246840460800963,
0.37151783978128,0.5,0.628482160218721,0.753159539198999,0.876423975155726,
1.,1.12357602484427),(0.,1.),.UNSPECIFIED.);
#417=B_SPLINE_SURFACE_WITH_KNOTS('',3,3,((#909,#910,#911,#912,#913,#914,
#915,#916,#917,#918,#919,#920,#921,#922),(#923,#924,#925,#926,#927,#928,
#929,#930,#931,#932,#933,#934,#935,#936),(#937,#938,#939,#940,#941,#942,
#943,#944,#945,#946,#947,#948,#949,#950),(#951,#952,#953,#954,#955,#956,
#957,#958,#959,#960,#961,#962,#963,#964),(#965,#966,#967,#968,#969,#970,
#971,#972,#973,#974,#975,#976,#977,#978),(#979,#980,#981,#982,#983,#984,
#985,#986,#987,#988,#989,#990,#991,#992),(#993,#994,#995,#996,#997,#998,
#999,#1000,#1001,#1002,#1003,#1004,#1005,#1006),(#1007,#1008,#1009,#1010,
#1011,#1012,#1013,#1014,#1015,#1016,#1017,#1018,#1019,#1020),(#1021,#1022,
#1023,#1024,#1025,#1026,#1027,#1028,#1029,#1030,#1031,#1032,#1033,#1034),
(#1035,#1036,#1037,#1038,#1039,#1040,#1041,#1042,#1043,#1044,#1045,#1046,
#1047,#1048),(#1049,#1050,#1051,#1052,#1053,#1054,#1055,#1056,#1057,#1058,
#1059,#1060,#1061,#1062),(#1063,#1064,#1065,#1066,#1067,#1068,#1069,#1070,
#1071,#1072,#1073,#1074,#1075,#1076),(#1077,#1078,#1079,#1080,#1081,#1082,
#1083,#1084,#1085,#1086,#1087,#1088,#1089,#1090),(#1091,#1092,#1093,#1094,
#1095,#1096,#1097,#1098,#1099,#1100,#1101,#1102,#1103,#1104),(#1105,#1106,
#1107,#1108,#1109,#1110,#1111,#1112,#1113,#1114,#1115,#1116,#1117,#1118),
(#1119,#1120,#1121,#1122,#1123,#1124,#1125,#1126,#1127,#1128,#1129,#1130,
#1131,#1132),(#1133,#1134,#1135,#1136,#1137,#1138,#1139,#1140,#1141,#1142,
#1143,#1144,#1145,#1146),(#1147,#1148,#1149,#1150,#1151,#1152,#1153,#1154,
#1155,#1156,#1157,#1158,#1159,#1160),(#1161,#1162,#1163,#1164,#1165,#1166,
#1167,#1168,#1169,#1170,#1171,#1172,#1173,#1174),(#1175,#1176,#1177,#1178,
#1179,#1180,#1181,#1182,#1183,#1184,#1185,#1186,#1187,#1188),(#1189,#1190,
#1191,#1192,#1193,#1194,#1195,#1196,#1197,#1198,#1199,#1200,#1201,#1202),
(#1203,#1204,#1205,#1206,#1207,#1208,#1209,#1210,#1211,#1212,#1213,#1214,
#1215,#1216),(#1217,#1218,#1219,#1220,#1221,#1222,#1223,#1224,#1225,#1226,
#1227,#1228,#1229,#1230),(#1231,#1232,#1233,#1234,#1235,#1236,#1237,#1238,
#1239,#1240,#1241,#1242,#1243,#1244),(#1245,#1246,#1247,#1248,#1249,#1250,
#1251,#1252,#1253,#1254,#1255,#1256,#1257,#1258),(#1259,#1260,#1261,#1262,
#1263,#1264,#1265,#1266,#1267,#1268,#1269,#1270,#1271,#1272),(#1273,#1274,
#1275,#1276,#1277,#1278,#1279,#1280,#1281,#1282,#1283,#1284,#1285,#1286),
(#1287,#1288,#1289,#1290,#1291,#1292,#1293,#1294,#1295,#1296,#1297,#1298,
#1299,#1300),(#1301,#1302,#1303,#1304,#1305,#1306,#1307,#1308,#1309,#1310,
#1311,#1312,#1313,#1314),(#1315,#1316,#1317,#1318,#1319,#1320,#1321,#1322,
#1323,#1324,#1325,#1326,#1327,#1328),(#1329,#1330,#1331,#1332,#1333,#1334,
#1335,#1336,#1337,#1338,#1339,#1340,#1341,#1342),(#1343,#1344,#1345,#1346,
#1347,#1348,#1349,#1350,#1351,#1352,#1353,#1354,#1355,#1356),(#1357,#1358,
#1359,#1360,#1361,#1362,#1363,#1364,#1365,#1366,#1367,#1368,#1369,#1370),
(#1371,#1372,#1373,#1374,#1375,#1376,#1377,#1378,#1379,#1380,#1381,#1382,
#1383,#1384)),.UNSPECIFIED.,.T.,.F.,.F.,(4,2,2,2,2,2,2,2,2,2,2,2,2,2,2,
2,4),(4,2,2,2,2,2,4),(0.,0.0625,0.125,0.1875,0.25,0.3125,0.375,0.4375,0.5,
0.5625,0.625,0.6875,0.75,0.8125,0.875,0.9375,1.),(-0.00600004454612411,
0.120499965337883,0.246999975221891,0.373499985105898,0.499999994989906,
0.753000014757921,1.00600003452594),.UNSPECIFIED.);
#418=ADVANCED_FACE('',(#371),#400,.T.);
#419=ADVANCED_FACE('',(#372),#401,.T.);
#420=ADVANCED_FACE('',(#373),#402,.F.);
#421=ADVANCED_FACE('',(#374),#16,.T.);
#422=ADVANCED_FACE('',(#375),#403,.T.);
#423=ADVANCED_FACE('',(#376),#404,.T.);
#424=ADVANCED_FACE('',(#377),#405,.T.);
#425=ADVANCED_FACE('',(#378),#406,.T.);
#426=ADVANCED_FACE('',(#379),#407,.T.);
#427=ADVANCED_FACE('',(#380),#408,.F.);
#428=ADVANCED_FACE('',(#381),#409,.F.);
#429=ADVANCED_FACE('',(#382),#410,.F.);
#430=ADVANCED_FACE('',(#383),#411,.F.);
#431=ADVANCED_FACE('',(#384),#412,.F.);
#432=ADVANCED_FACE('',(#385),#413,.F.);
#433=ADVANCED_FACE('',(#386),#414,.F.);
#434=ADVANCED_FACE('',(#387),#415,.T.);
#435=ADVANCED_FACE('',(#388),#17,.T.);
#436=ADVANCED_FACE('',(#389),#18,.F.);
#437=ADVANCED_FACE('',(#390),#19,.T.);
#438=ADVANCED_FACE('',(#391,#392),#416,.T.);
#439=ADVANCED_FACE('',(#393,#394),#20,.T.);
#440=ADVANCED_FACE('',(#395),#21,.T.);
#441=ADVANCED_FACE('',(#396,#397),#417,.F.);
#442=ADVANCED_FACE('',(#398,#399),#12,.F.);
#443=CLOSED_SHELL('',(#418,#419,#420,#421,#422,#423,#424,#425,#426,#427,
#428,#429,#430,#431,#432,#433,#434,#435,#436,#437,#438,#439,#440,#441,#442));
#444=STYLED_ITEM('',(#445),#452);
#445=PRESENTATION_STYLE_ASSIGNMENT((#446));
#446=SURFACE_STYLE_USAGE(.BOTH.,#447);
#447=SURFACE_SIDE_STYLE('',(#448));
#448=SURFACE_STYLE_FILL_AREA(#449);
#449=FILL_AREA_STYLE('',(#450));
#450=FILL_AREA_STYLE_COLOUR('',#451);
#451=COLOUR_RGB('',0.615686274509804,0.811764705882353,0.929411764705882);
#452=MANIFOLD_SOLID_BREP('Part 1',#443);
#453=SHAPE_DEFINITION_REPRESENTATION(#1394,#454);
#454=SHAPE_REPRESENTATION('Part 1',(#455),#1389);
#455=AXIS2_PLACEMENT_3D('',#512,#466,#467);
#456=AXIS2_PLACEMENT_3D('',#600,#476,#477);
#457=AXIS2_PLACEMENT_3D('',#865,#492,#493);
#458=AXIS2_PLACEMENT_3D('',#867,#495,#496);
#459=AXIS2_PLACEMENT_3D('',#869,#498,#499);
#460=AXIS2_PLACEMENT_3D('',#904,#500,#501);
#461=AXIS2_PLACEMENT_3D('',#905,#502,#503);
#462=AXIS2_PLACEMENT_3D('',#907,#504,#505);
#463=AXIS2_PLACEMENT_3D('',#908,#506,#507);
#464=AXIS2_PLACEMENT_3D('',#1385,#508,#509);
#465=AXIS2_PLACEMENT_3D('',#1387,#510,#511);
#466=DIRECTION('',(0.,0.,1.));
#467=DIRECTION('',(1.,0.,0.));
#468=DIRECTION('',(0.,1.,0.));
#469=DIRECTION('',(0.,-1.,0.));
#470=DIRECTION('',(0.,-1.,0.));
#471=DIRECTION('',(0.,1.,0.));
#472=DIRECTION('',(0.,-1.,0.));
#473=DIRECTION('',(0.,-1.,0.));
#474=DIRECTION('',(0.,-1.,0.));
#475=DIRECTION('',(0.,1.,0.));
#476=DIRECTION('',(0.,1.,0.));
#477=DIRECTION('',(1.,0.,0.));
#478=DIRECTION('',(-4.61242688108718E-15,0.,1.));
#479=DIRECTION('',(-5.1672605527214E-15,0.,1.));
#480=DIRECTION('',(0.,-1.,0.));
#481=DIRECTION('',(0.,-1.,0.));
#482=DIRECTION('',(0.,-1.,0.));
#483=DIRECTION('',(0.,-1.,0.));
#484=DIRECTION('',(0.,-1.,0.));
#485=DIRECTION('',(0.,-1.,0.));
#486=DIRECTION('',(0.,-1.,0.));
#487=DIRECTION('',(0.,-1.,0.));
#488=DIRECTION('',(0.,-1.,0.));
#489=DIRECTION('',(0.,-1.,0.));
#490=DIRECTION('',(0.,-1.,0.));
#491=DIRECTION('',(0.,1.,0.));
#492=DIRECTION('',(-1.,0.,-4.61242688108718E-15));
#493=DIRECTION('',(-4.61242688108718E-15,0.,1.));
#494=DIRECTION('',(-4.61242688108718E-15,0.,1.));
#495=DIRECTION('',(-1.,0.,-5.1672605527214E-15));
#496=DIRECTION('',(-5.1672605527214E-15,0.,1.));
#497=DIRECTION('',(-5.1672605527214E-15,0.,1.));
#498=DIRECTION('',(0.,1.,0.));
#499=DIRECTION('',(1.,0.,0.));
#500=DIRECTION('',(0.,-1.,0.));
#501=DIRECTION('',(1.,0.,0.));
#502=DIRECTION('',(0.,1.,0.));
#503=DIRECTION('',(1.,0.,0.));
#504=DIRECTION('',(0.,1.,0.));
#505=DIRECTION('',(1.,0.,0.));
#506=DIRECTION('',(0.,1.,0.));
#507=DIRECTION('',(1.,0.,0.));
#508=DIRECTION('',(0.,1.,0.));
#509=DIRECTION('',(1.,0.,0.));
#510=DIRECTION('',(0.,1.,0.));
#511=DIRECTION('',(1.,0.,0.));
#512=CARTESIAN_POINT('',(0.,0.,0.));
#513=CARTESIAN_POINT('',(31.9850665976699,12.7,-31.985066597666));
#514=CARTESIAN_POINT('',(31.9850665976699,0.,-31.985066597666));
#515=CARTESIAN_POINT('',(23.9406457191475,12.7,-40.3592765389744));
#516=CARTESIAN_POINT('',(23.9406457191475,0.,-40.3592765389744));
#517=CARTESIAN_POINT('',(11.9867302977513,12.7,-45.1359390682289));
#518=CARTESIAN_POINT('',(11.9867302977513,0.,-45.1359390682289));
#519=CARTESIAN_POINT('',(-1.30388863768538E-13,12.7,-45.2151788477394));
#520=CARTESIAN_POINT('',(-1.30388863768538E-13,0.,-45.2151788477394));
#521=CARTESIAN_POINT('',(31.9850665976699,2.032,-31.985066597666));
#522=CARTESIAN_POINT('',(31.9355841256483,2.032,-32.0365776530148));
#523=CARTESIAN_POINT('',(23.8672597693019,2.032,-40.3887540415308));
#524=CARTESIAN_POINT('',(11.9129980732015,2.032,-45.1364264843191));
#525=CARTESIAN_POINT('',(-1.30388863768538E-13,2.032,-45.2151788477394));
#526=CARTESIAN_POINT('',(31.9850665976701,2.032,-31.9850665976658));
#527=CARTESIAN_POINT('',(28.4290665976737,2.032,-35.2537434141774));
#528=CARTESIAN_POINT('',(28.4290665976737,2.032,-35.2537434141774));
#529=CARTESIAN_POINT('',(28.4290665976737,12.7,-35.2537434141774));
#530=CARTESIAN_POINT('',(31.9850665976699,12.7,-31.985066597666));
#531=CARTESIAN_POINT('',(31.9355841256483,12.7,-32.0365776530148));
#532=CARTESIAN_POINT('',(23.8672597693019,12.7,-40.3887540415308));
#533=CARTESIAN_POINT('',(11.9129980732015,12.7,-45.1364264843191));
#534=CARTESIAN_POINT('',(-1.30388863768538E-13,12.7,-45.2151788477394));
#535=CARTESIAN_POINT('',(-1.32150692298827E-13,12.7,-45.2151788477394));
#536=CARTESIAN_POINT('',(-1.32150692298827E-13,12.7,-45.2151788477394));
#537=CARTESIAN_POINT('',(-1.27420860321359E-13,0.,-45.2151788477394));
#538=CARTESIAN_POINT('',(31.9850665976699,0.,-31.985066597666));
#539=CARTESIAN_POINT('',(31.9355841256483,0.,-32.0365776530148));
#540=CARTESIAN_POINT('',(23.8672597693019,0.,-40.3887540415308));
#541=CARTESIAN_POINT('',(11.9129980732015,0.,-45.1364264843191));
#542=CARTESIAN_POINT('',(-1.30388863768538E-13,0.,-45.2151788477394));
#543=CARTESIAN_POINT('',(31.9850665976701,0.,-31.9850665976658));
#544=CARTESIAN_POINT('',(31.9850665976701,12.7,-31.9850665976658));
#545=CARTESIAN_POINT('',(44.4421646005893,12.7,2.34292542495398E-11));
#546=CARTESIAN_POINT('',(44.4421646005893,1.73472347597681E-15,2.34292542495398E-11));
#547=CARTESIAN_POINT('',(44.1344794276599,12.7,-11.8075974330687));
#548=CARTESIAN_POINT('',(44.1344794276599,1.73472347597681E-15,-11.8075974330687));
#549=CARTESIAN_POINT('',(39.9779772124126,12.7,-23.6644786348137));
#550=CARTESIAN_POINT('',(39.9779772124126,1.73472347597681E-15,-23.6644786348137));
#551=CARTESIAN_POINT('',(31.9850665976701,12.7,-31.9850665976658));
#552=CARTESIAN_POINT('',(31.9850665976701,1.73472347597681E-15,-31.9850665976658));
#553=CARTESIAN_POINT('',(35.5410666171915,2.032,-27.7147758894273));
#554=CARTESIAN_POINT('',(35.5410666171915,2.032,-27.7147758894273));
#555=CARTESIAN_POINT('',(35.5410666171915,12.7,-27.7147758894273));
#556=CARTESIAN_POINT('',(44.4421646005893,2.032,2.34292542495397E-11));
#557=CARTESIAN_POINT('',(44.1344794276598,2.032,-11.8075974330687));
#558=CARTESIAN_POINT('',(39.9779772124126,2.032,-23.6644786348137));
#559=CARTESIAN_POINT('',(31.9850665976701,2.032,-31.9850665976658));
#560=CARTESIAN_POINT('',(44.4421646005893,0.,2.34292542495397E-11));
#561=CARTESIAN_POINT('',(44.1344794276598,0.,-11.8075974330687));
#562=CARTESIAN_POINT('',(39.9779772124126,0.,-23.6644786348137));
#563=CARTESIAN_POINT('',(31.9850665976701,0.,-31.9850665976658));
#564=CARTESIAN_POINT('',(44.4421646005893,0.,2.34280218435794E-11));
#565=CARTESIAN_POINT('',(44.4421646005893,12.7,2.34280218435794E-11));
#566=CARTESIAN_POINT('',(44.4421646005893,12.7,2.34280218435794E-11));
#567=CARTESIAN_POINT('',(44.4421646005893,12.7,2.34292542495397E-11));
#568=CARTESIAN_POINT('',(44.1344794276598,12.7,-11.8075974330687));
#569=CARTESIAN_POINT('',(39.9779772124126,12.7,-23.6644786348137));
#570=CARTESIAN_POINT('',(31.9850665976701,12.7,-31.9850665976658));
#571=CARTESIAN_POINT('',(34.6637886273279,12.7,-34.663788627326));
#572=CARTESIAN_POINT('',(34.6637886273279,1.73472347597681E-15,-34.663788627326));
#573=CARTESIAN_POINT('',(25.9160442217346,12.7,-43.6685715282464));
#574=CARTESIAN_POINT('',(25.9160442217346,1.73472347597681E-15,-43.6685715282464));
#575=CARTESIAN_POINT('',(12.9580221108675,12.7,-48.7680000000008));
#576=CARTESIAN_POINT('',(12.9580221108675,1.73472347597681E-15,-48.7680000000008));
#577=CARTESIAN_POINT('',(4.97865637605344E-13,12.7,-48.768));
#578=CARTESIAN_POINT('',(4.97865637605344E-13,1.73472347597681E-15,-48.768));
#579=CARTESIAN_POINT('',(34.6637886273278,2.032,-34.663788627326));
#580=CARTESIAN_POINT('',(25.9160442217346,2.032,-43.6685715282464));
#581=CARTESIAN_POINT('',(12.9580221108675,2.032,-48.7680000000008));
#582=CARTESIAN_POINT('',(4.97865637605344E-13,2.032,-48.768));
#583=CARTESIAN_POINT('',(34.6637886273281,2.032,-34.6637886273258));
#584=CARTESIAN_POINT('',(28.4290665976716,2.032,-39.9537442010343));
#585=CARTESIAN_POINT('',(34.6637886273281,12.7,-34.6637886273258));
#586=CARTESIAN_POINT('',(34.6637886273168,0.,-34.6637886273374));
#587=CARTESIAN_POINT('',(34.6637886273278,0.,-34.663788627326));
#588=CARTESIAN_POINT('',(25.9160442217346,0.,-43.6685715282464));
#589=CARTESIAN_POINT('',(12.9580221108675,0.,-48.7680000000008));
#590=CARTESIAN_POINT('',(4.97865637605344E-13,0.,-48.768));
#591=CARTESIAN_POINT('',(8.67361737988404E-16,0.,-48.768));
#592=CARTESIAN_POINT('',(0.,12.7,-48.768));
#593=CARTESIAN_POINT('',(0.,12.7,-48.768));
#594=CARTESIAN_POINT('',(34.6637886273278,12.7,-34.663788627326));
#595=CARTESIAN_POINT('',(25.9160442217346,12.7,-43.6685715282464));
#596=CARTESIAN_POINT('',(12.9580221108675,12.7,-48.7680000000008));
#597=CARTESIAN_POINT('',(4.97865637605344E-13,12.7,-48.768));
#598=CARTESIAN_POINT('',(28.4290665976654,12.7,-39.9537442010387));
#599=CARTESIAN_POINT('',(28.4290665976716,2.032,-39.9537442010343));
#600=CARTESIAN_POINT('',(-1.94289029309402E-13,12.7,4.09880228539219));
#601=CARTESIAN_POINT('',(48.26,12.7,2.55056063580199E-11));
#602=CARTESIAN_POINT('',(47.9260911130963,12.7,-12.8139477061775));
#603=CARTESIAN_POINT('',(43.3894761658923,12.7,-25.6817106992374));
#604=CARTESIAN_POINT('',(34.6637886273281,12.7,-34.6637886273258));
#605=CARTESIAN_POINT('',(48.26,12.7,2.55045360936562E-11));
#606=CARTESIAN_POINT('',(35.5410666003337,12.7,-33.7323402712655));
#607=CARTESIAN_POINT('',(35.5410665976701,12.7,-30.7235580967852));
#608=CARTESIAN_POINT('',(33.3058192593022,12.7,33.3058192419147));
#609=CARTESIAN_POINT('',(41.1245109649594,12.7,23.8437293056855));
#610=CARTESIAN_POINT('',(44.7534847615908,12.7,11.9470922141672));
#611=CARTESIAN_POINT('',(44.4421646005893,12.7,2.34280218435794E-11));
#612=CARTESIAN_POINT('',(33.3058192593022,12.7,33.3058192419147));
#613=CARTESIAN_POINT('',(1.09068323627228E-8,12.7,50.3958384129025));
#614=CARTESIAN_POINT('',(12.5568501964279,12.7,50.2829658782824));
#615=CARTESIAN_POINT('',(25.1494727723502,12.7,43.1312002844271));
#616=CARTESIAN_POINT('',(33.2601466813712,12.7,33.3610916655208));
#617=CARTESIAN_POINT('',(33.3058192593022,12.7,33.3058192419147));
#618=CARTESIAN_POINT('',(1.09068315089136E-8,12.7,50.3958384129025));
#619=CARTESIAN_POINT('',(-33.6362596798693,12.7,33.6362596798681));
#620=CARTESIAN_POINT('',(-25.4767903336955,12.7,43.3298647854799));
#621=CARTESIAN_POINT('',(-12.7888967730918,12.7,50.4539144069785));
#622=CARTESIAN_POINT('',(-0.101003212487967,12.7,50.3967463229007));
#623=CARTESIAN_POINT('',(1.09068315089136E-8,12.7,50.3958384129025));
#624=CARTESIAN_POINT('',(-33.636259679869,12.7,33.6362596798683));
#625=CARTESIAN_POINT('',(-45.0481930706108,12.7,7.69083075920055E-13));
#626=CARTESIAN_POINT('',(-45.3613317960052,12.7,12.0168806801394));
#627=CARTESIAN_POINT('',(-41.6667000011738,12.7,24.0521256512136));
#628=CARTESIAN_POINT('',(-33.6824489479076,12.7,33.5813859490548));
#629=CARTESIAN_POINT('',(-33.636259679869,12.7,33.6362596798683));
#630=CARTESIAN_POINT('',(-45.0481930706108,12.7,7.68352917825632E-13));
#631=CARTESIAN_POINT('',(-32.2924682576529,12.7,-32.2924682663777));
#632=CARTESIAN_POINT('',(-32.3425273908143,12.7,-32.2415127792813));
#633=CARTESIAN_POINT('',(-40.5065199307774,12.7,-23.8846775823113));
#634=CARTESIAN_POINT('',(-44.7386030818124,12.7,-11.8806958496453));
#635=CARTESIAN_POINT('',(-45.0481930706108,12.7,7.68352917825632E-13));
#636=CARTESIAN_POINT('',(-32.2924682576529,12.7,-32.2924682663777));
#637=CARTESIAN_POINT('',(-1.32150692298827E-13,12.7,-45.2151788477394));
#638=CARTESIAN_POINT('',(-0.101003198607483,12.7,-45.2158465420137));
#639=CARTESIAN_POINT('',(-0.202008716809141,12.7,-45.2161807180802));
#640=CARTESIAN_POINT('',(-0.303014235010799,12.7,-45.2161807180802));
#641=CARTESIAN_POINT('',(-12.2435729630752,12.7,-45.2161807180793));
#642=CARTESIAN_POINT('',(-24.1841316911395,12.7,-40.5459919132373));
#643=CARTESIAN_POINT('',(-32.2924682576529,12.7,-32.2924682663777));
#644=CARTESIAN_POINT('',(28.4290665976702,12.7,-37.6037438076078));
#645=CARTESIAN_POINT('',(8.67361737988404E-16,12.7,-48.768));
#646=CARTESIAN_POINT('',(-12.9580221108673,12.7,-48.7679999999991));
#647=CARTESIAN_POINT('',(-25.9160442217345,12.7,-43.6685715282428));
#648=CARTESIAN_POINT('',(-34.6637886273278,12.7,-34.6637886273261));
#649=CARTESIAN_POINT('',(-34.663788627327,12.7,-34.663788627327));
#650=CARTESIAN_POINT('',(-34.6637886273278,12.7,-34.6637886273261));
#651=CARTESIAN_POINT('',(-43.3894761658896,12.7,-25.681710699244));
#652=CARTESIAN_POINT('',(-47.9260911130939,12.7,-12.8139477061979));
#653=CARTESIAN_POINT('',(-48.26,12.7,1.28844532270189E-12));
#654=CARTESIAN_POINT('',(-48.26,12.7,1.28844532270189E-12));
#655=CARTESIAN_POINT('',(-48.26,12.7,8.3498845896126E-13));
#656=CARTESIAN_POINT('',(-48.5977363836909,12.7,12.9608301210347));
#657=CARTESIAN_POINT('',(-44.635865796963,12.7,25.8666041474662));
#658=CARTESIAN_POINT('',(-36.1006296066978,12.7,36.1006296066983));
#659=CARTESIAN_POINT('',(-36.1006296066978,12.7,36.1006296066983));
#660=CARTESIAN_POINT('',(-36.100629606698,12.7,36.100629606698));
#661=CARTESIAN_POINT('',(-27.3049234996952,12.7,46.6469669574625));
#662=CARTESIAN_POINT('',(-13.6524617498476,12.7,54.356000000001));
#663=CARTESIAN_POINT('',(1.04083408558608E-14,12.7,54.356));
#664=CARTESIAN_POINT('',(1.04083408558608E-14,12.7,54.356));
#665=CARTESIAN_POINT('',(1.04083408558608E-14,12.7,54.356));
#666=CARTESIAN_POINT('',(13.6524617498476,12.7,54.3559999999991));
#667=CARTESIAN_POINT('',(27.3049234996952,12.7,46.6469669574586));
#668=CARTESIAN_POINT('',(36.100629606698,12.7,36.100629606698));
#669=CARTESIAN_POINT('',(36.100629606698,12.7,36.100629606698));
#670=CARTESIAN_POINT('',(36.100629606698,12.7,36.100629606698));
#671=CARTESIAN_POINT('',(44.6358657969603,12.7,25.866604147473));
#672=CARTESIAN_POINT('',(48.5977363836881,12.7,12.9608301210556));
#673=CARTESIAN_POINT('',(48.26,12.7,2.55045360936562E-11));
#674=CARTESIAN_POINT('',(-1.32150692298827E-13,12.7,-45.2151788477394));
#675=CARTESIAN_POINT('',(-1.32150692298827E-13,1.73472347597681E-15,-45.2151788477394));
#676=CARTESIAN_POINT('',(-12.0412877114366,12.7,-45.2947792858533));
#677=CARTESIAN_POINT('',(-12.0412877114366,1.73472347597681E-15,-45.2947792858533));
#678=CARTESIAN_POINT('',(-24.1155430467297,12.7,-40.6158086991956));
#679=CARTESIAN_POINT('',(-24.1155430467297,1.73472347597681E-15,-40.6158086991956));
#680=CARTESIAN_POINT('',(-32.292468257653,12.7,-32.2924682663777));
#681=CARTESIAN_POINT('',(-32.292468257653,1.73472347597681E-15,-32.2924682663777));
#682=CARTESIAN_POINT('',(-1.32150692298827E-13,0.,-45.2151788477394));
#683=CARTESIAN_POINT('',(-0.101003198607483,0.,-45.2158465420137));
#684=CARTESIAN_POINT('',(-0.202008716809141,0.,-45.2161807180802));
#685=CARTESIAN_POINT('',(-0.303014235010799,0.,-45.2161807180802));
#686=CARTESIAN_POINT('',(-12.2435729630752,0.,-45.2161807180793));
#687=CARTESIAN_POINT('',(-24.1841316911395,0.,-40.5459919132373));
#688=CARTESIAN_POINT('',(-32.2924682576529,0.,-32.2924682663777));
#689=CARTESIAN_POINT('',(-32.2924682576529,0.,-32.2924682663777));
#690=CARTESIAN_POINT('',(-32.2924682576529,12.7,-32.2924682663777));
#691=CARTESIAN_POINT('',(33.3058192593022,12.7,33.3058192419147));
#692=CARTESIAN_POINT('',(33.3058192593022,1.73472347597681E-15,33.3058192419147));
#693=CARTESIAN_POINT('',(41.1245109649595,12.7,23.8437293056856));
#694=CARTESIAN_POINT('',(41.1245109649595,1.73472347597681E-15,23.8437293056856));
#695=CARTESIAN_POINT('',(44.7534847615908,12.7,11.9470922141672));
#696=CARTESIAN_POINT('',(44.7534847615908,1.73472347597681E-15,11.9470922141672));
#697=CARTESIAN_POINT('',(44.4421646005893,12.7,2.34280218435794E-11));
#698=CARTESIAN_POINT('',(44.4421646005893,1.73472347597681E-15,2.34280218435794E-11));
#699=CARTESIAN_POINT('',(33.3058192593022,0.,33.3058192419147));
#700=CARTESIAN_POINT('',(41.1245109649594,0.,23.8437293056855));
#701=CARTESIAN_POINT('',(44.7534847615908,0.,11.9470922141672));
#702=CARTESIAN_POINT('',(44.4421646005893,0.,2.34280218435794E-11));
#703=CARTESIAN_POINT('',(33.3058192593022,0.,33.3058192419147));
#704=CARTESIAN_POINT('',(33.3058192593022,12.7,33.3058192419147));
#705=CARTESIAN_POINT('',(1.09068323627228E-8,12.7,50.3958384129025));
#706=CARTESIAN_POINT('',(1.09068323627228E-8,0.,50.3958384129025));
#707=CARTESIAN_POINT('',(12.6281842328141,12.7,50.2823246622631));
#708=CARTESIAN_POINT('',(12.6281842328141,0.,50.2823246622631));
#709=CARTESIAN_POINT('',(25.2204541626348,12.7,43.0906342201569));
#710=CARTESIAN_POINT('',(25.2204541626348,0.,43.0906342201569));
#711=CARTESIAN_POINT('',(33.3058192593022,12.7,33.3058192419147));
#712=CARTESIAN_POINT('',(33.3058192593022,0.,33.3058192419147));
#713=CARTESIAN_POINT('',(1.09068323627228E-8,0.,50.3958384129025));
#714=CARTESIAN_POINT('',(12.5568501964279,0.,50.2829658782824));
#715=CARTESIAN_POINT('',(25.1494727723502,0.,43.1312002844271));
#716=CARTESIAN_POINT('',(33.2601466813712,0.,33.3610916655208));
#717=CARTESIAN_POINT('',(33.3058192593022,0.,33.3058192419147));
#718=CARTESIAN_POINT('',(1.09068315089136E-8,0.,50.3958384129025));
#719=CARTESIAN_POINT('',(1.09068315089136E-8,12.7,50.3958384129025));
#720=CARTESIAN_POINT('',(-33.6362596798693,12.7,33.6362596798681));
#721=CARTESIAN_POINT('',(-33.6362596798693,0.,33.6362596798681));
#722=CARTESIAN_POINT('',(-25.4113133572021,12.7,43.4076526815684));
#723=CARTESIAN_POINT('',(-25.4113133572021,-1.73472347597681E-15,43.4076526815684));
#724=CARTESIAN_POINT('',(-12.6876061573716,12.7,50.5098863027258));
#725=CARTESIAN_POINT('',(-12.6876061573716,-1.73472347597681E-15,50.5098863027258));
#726=CARTESIAN_POINT('',(1.09068315089136E-8,12.7,50.3958384129025));
#727=CARTESIAN_POINT('',(1.09068315089136E-8,0.,50.3958384129025));
#728=CARTESIAN_POINT('',(-33.6362596798693,0.,33.6362596798681));
#729=CARTESIAN_POINT('',(-25.4767903336955,0.,43.3298647854799));
#730=CARTESIAN_POINT('',(-12.7888967730918,0.,50.4539144069785));
#731=CARTESIAN_POINT('',(-0.101003212487967,0.,50.3967463229007));
#732=CARTESIAN_POINT('',(1.09068315089136E-8,0.,50.3958384129025));
#733=CARTESIAN_POINT('',(-33.636259679869,0.,33.6362596798683));
#734=CARTESIAN_POINT('',(-33.636259679869,12.7,33.6362596798683));
#735=CARTESIAN_POINT('',(-45.0481930706108,12.7,7.69083075920055E-13));
#736=CARTESIAN_POINT('',(-45.0481930706108,0.,7.69083075920055E-13));
#737=CARTESIAN_POINT('',(-45.3631482298317,12.7,12.0865873845042));
#738=CARTESIAN_POINT('',(-45.3631482298317,0.,12.0865873845042));
#739=CARTESIAN_POINT('',(-41.6451109010147,12.7,24.1215917776256));
#740=CARTESIAN_POINT('',(-41.6451109010147,0.,24.1215917776256));
#741=CARTESIAN_POINT('',(-33.636259679869,12.7,33.6362596798683));
#742=CARTESIAN_POINT('',(-33.636259679869,0.,33.6362596798683));
#743=CARTESIAN_POINT('',(-45.0481930706108,0.,7.69083075920055E-13));
#744=CARTESIAN_POINT('',(-45.3613317960052,0.,12.0168806801394));
#745=CARTESIAN_POINT('',(-41.6667000011738,0.,24.0521256512136));
#746=CARTESIAN_POINT('',(-33.6824489479076,0.,33.5813859490548));
#747=CARTESIAN_POINT('',(-33.636259679869,0.,33.6362596798683));
#748=CARTESIAN_POINT('',(-45.0481930706108,0.,7.68352917825632E-13));
#749=CARTESIAN_POINT('',(-45.0481930706108,12.7,7.68352917825632E-13));
#750=CARTESIAN_POINT('',(8.67361737988404E-16,12.7,-48.768));
#751=CARTESIAN_POINT('',(8.67361737988404E-16,0.,-48.768));
#752=CARTESIAN_POINT('',(-12.9580221108673,12.7,-48.7679999999991));
#753=CARTESIAN_POINT('',(-12.9580221108673,0.,-48.7679999999991));
#754=CARTESIAN_POINT('',(-25.9160442217345,12.7,-43.6685715282428));
#755=CARTESIAN_POINT('',(-25.9160442217345,0.,-43.6685715282428));
#756=CARTESIAN_POINT('',(-34.6637886273278,12.7,-34.6637886273261));
#757=CARTESIAN_POINT('',(-34.6637886273278,0.,-34.6637886273261));
#758=CARTESIAN_POINT('',(8.67361737988404E-16,0.,-48.768));
#759=CARTESIAN_POINT('',(-12.9580221108673,0.,-48.7679999999991));
#760=CARTESIAN_POINT('',(-25.9160442217345,0.,-43.6685715282428));
#761=CARTESIAN_POINT('',(-34.6637886273278,0.,-34.6637886273261));
#762=CARTESIAN_POINT('',(-34.663788627327,0.,-34.663788627327));
#763=CARTESIAN_POINT('',(-34.663788627327,12.7,-34.663788627327));
#764=CARTESIAN_POINT('',(-34.6637886273278,12.7,-34.6637886273261));
#765=CARTESIAN_POINT('',(-34.6637886273278,0.,-34.6637886273261));
#766=CARTESIAN_POINT('',(-43.3894761658896,12.7,-25.6817106992439));
#767=CARTESIAN_POINT('',(-43.3894761658896,0.,-25.6817106992439));
#768=CARTESIAN_POINT('',(-47.9260911130939,12.7,-12.8139477061979));
#769=CARTESIAN_POINT('',(-47.9260911130939,0.,-12.8139477061979));
#770=CARTESIAN_POINT('',(-48.26,12.7,1.28844532270189E-12));
#771=CARTESIAN_POINT('',(-48.26,0.,1.28844532270189E-12));
#772=CARTESIAN_POINT('',(-34.6637886273278,0.,-34.6637886273261));
#773=CARTESIAN_POINT('',(-43.3894761658896,0.,-25.681710699244));
#774=CARTESIAN_POINT('',(-47.9260911130939,0.,-12.8139477061979));
#775=CARTESIAN_POINT('',(-48.26,0.,1.28844532270189E-12));
#776=CARTESIAN_POINT('',(-48.26,0.,1.29322224611854E-12));
#777=CARTESIAN_POINT('',(-48.26,12.7,1.28844532270189E-12));
#778=CARTESIAN_POINT('',(-48.26,12.7,8.3498845896126E-13));
#779=CARTESIAN_POINT('',(-48.26,1.73472347597681E-15,8.3498845896126E-13));
#780=CARTESIAN_POINT('',(-48.5977363836909,12.7,12.9608301210347));
#781=CARTESIAN_POINT('',(-48.5977363836909,3.46944695195361E-15,12.9608301210347));
#782=CARTESIAN_POINT('',(-44.635865796963,12.7,25.8666041474663));
#783=CARTESIAN_POINT('',(-44.635865796963,3.46944695195361E-15,25.8666041474663));
#784=CARTESIAN_POINT('',(-36.1006296066978,12.7,36.1006296066983));
#785=CARTESIAN_POINT('',(-36.1006296066978,1.73472347597681E-15,36.1006296066983));
#786=CARTESIAN_POINT('',(-48.26,0.,8.3498845896126E-13));
#787=CARTESIAN_POINT('',(-48.5977363836909,0.,12.9608301210347));
#788=CARTESIAN_POINT('',(-44.635865796963,0.,25.8666041474662));
#789=CARTESIAN_POINT('',(-36.1006296066978,0.,36.1006296066983));
#790=CARTESIAN_POINT('',(-36.1006296066978,0.,36.1006296066983));
#791=CARTESIAN_POINT('',(-36.1006296066978,12.7,36.1006296066983));
#792=CARTESIAN_POINT('',(-36.100629606698,12.7,36.100629606698));
#793=CARTESIAN_POINT('',(-36.100629606698,0.,36.100629606698));
#794=CARTESIAN_POINT('',(-27.3049234996952,12.7,46.6469669574625));
#795=CARTESIAN_POINT('',(-27.3049234996952,0.,46.6469669574625));
#796=CARTESIAN_POINT('',(-13.6524617498476,12.7,54.356000000001));
#797=CARTESIAN_POINT('',(-13.6524617498476,0.,54.356000000001));
#798=CARTESIAN_POINT('',(1.04083408558608E-14,12.7,54.356));
#799=CARTESIAN_POINT('',(1.04083408558608E-14,0.,54.356));
#800=CARTESIAN_POINT('',(-36.100629606698,0.,36.100629606698));
#801=CARTESIAN_POINT('',(-27.3049234996952,0.,46.6469669574625));
#802=CARTESIAN_POINT('',(-13.6524617498476,0.,54.356000000001));
#803=CARTESIAN_POINT('',(1.04083408558608E-14,0.,54.356));
#804=CARTESIAN_POINT('',(1.04083408558608E-14,0.,54.356));
#805=CARTESIAN_POINT('',(1.04083408558608E-14,12.7,54.356));
#806=CARTESIAN_POINT('',(1.04083408558608E-14,12.7,54.356));
#807=CARTESIAN_POINT('',(1.04083408558608E-14,0.,54.356));
#808=CARTESIAN_POINT('',(13.6524617498476,12.7,54.3559999999991));
#809=CARTESIAN_POINT('',(13.6524617498476,0.,54.3559999999991));
#810=CARTESIAN_POINT('',(27.3049234996952,12.7,46.6469669574586));
#811=CARTESIAN_POINT('',(27.3049234996952,0.,46.6469669574586));
#812=CARTESIAN_POINT('',(36.100629606698,12.7,36.100629606698));
#813=CARTESIAN_POINT('',(36.100629606698,0.,36.100629606698));
#814=CARTESIAN_POINT('',(1.04083408558608E-14,0.,54.356));
#815=CARTESIAN_POINT('',(13.6524617498476,0.,54.3559999999991));
#816=CARTESIAN_POINT('',(27.3049234996952,0.,46.6469669574586));
#817=CARTESIAN_POINT('',(36.100629606698,0.,36.100629606698));
#818=CARTESIAN_POINT('',(36.100629606698,0.,36.100629606698));
#819=CARTESIAN_POINT('',(36.100629606698,12.7,36.100629606698));
#820=CARTESIAN_POINT('',(36.100629606698,12.7,36.100629606698));
#821=CARTESIAN_POINT('',(36.100629606698,1.73472347597681E-15,36.100629606698));
#822=CARTESIAN_POINT('',(44.6358657969603,12.7,25.866604147473));
#823=CARTESIAN_POINT('',(44.6358657969603,1.73472347597681E-15,25.866604147473));
#824=CARTESIAN_POINT('',(48.5977363836881,12.7,12.9608301210556));
#825=CARTESIAN_POINT('',(48.5977363836881,1.73472347597681E-15,12.9608301210556));
#826=CARTESIAN_POINT('',(48.26,12.7,2.55045360936563E-11));
#827=CARTESIAN_POINT('',(48.26,1.73472347597681E-15,2.55045360936563E-11));
#828=CARTESIAN_POINT('',(36.100629606698,0.,36.100629606698));
#829=CARTESIAN_POINT('',(44.6358657969603,0.,25.866604147473));
#830=CARTESIAN_POINT('',(48.5977363836881,0.,12.9608301210556));
#831=CARTESIAN_POINT('',(48.26,0.,2.55045360936562E-11));
#832=CARTESIAN_POINT('',(48.26,0.,2.55056063580199E-11));
#833=CARTESIAN_POINT('',(48.26,12.7,2.55045360936562E-11));
#834=CARTESIAN_POINT('',(48.26,12.7,2.55056063580199E-11));
#835=CARTESIAN_POINT('',(48.26,0.,2.55056063580199E-11));
#836=CARTESIAN_POINT('',(47.9260911130963,12.7,-12.8139477061775));
#837=CARTESIAN_POINT('',(47.9260911130963,0.,-12.8139477061775));
#838=CARTESIAN_POINT('',(43.3894761658923,12.7,-25.6817106992374));
#839=CARTESIAN_POINT('',(43.3894761658923,0.,-25.6817106992374));
#840=CARTESIAN_POINT('',(34.6637886273281,12.7,-34.6637886273258));
#841=CARTESIAN_POINT('',(34.6637886273281,0.,-34.6637886273258));
#842=CARTESIAN_POINT('',(48.26,2.032,2.55056063580199E-11));
#843=CARTESIAN_POINT('',(47.9260911130963,2.032,-12.8139477061775));
#844=CARTESIAN_POINT('',(43.3894761658923,2.032,-25.6817106992374));
#845=CARTESIAN_POINT('',(34.6637886273281,2.032,-34.6637886273258));
#846=CARTESIAN_POINT('',(35.5410666003337,2.032,-33.7323402712655));
#847=CARTESIAN_POINT('',(35.5410666003337,2.032,-33.7323402712655));
#848=CARTESIAN_POINT('',(48.26,0.,2.55056063580199E-11));
#849=CARTESIAN_POINT('',(47.9260911130963,0.,-12.8139477061775));
#850=CARTESIAN_POINT('',(43.3894761658923,0.,-25.6817106992374));
#851=CARTESIAN_POINT('',(34.6637886273281,0.,-34.6637886273258));
#852=CARTESIAN_POINT('',(-32.2924682576529,12.7,-32.2924682663777));
#853=CARTESIAN_POINT('',(-32.2924682576529,0.,-32.2924682663777));
#854=CARTESIAN_POINT('',(-40.4803522277852,12.7,-23.9579728478779));
#855=CARTESIAN_POINT('',(-40.4803522277852,0.,-23.9579728478779));
#856=CARTESIAN_POINT('',(-44.7366986654867,12.7,-11.9537789335775));
#857=CARTESIAN_POINT('',(-44.7366986654867,0.,-11.9537789335775));
#858=CARTESIAN_POINT('',(-45.0481930706108,12.7,7.68352917825632E-13));
#859=CARTESIAN_POINT('',(-45.0481930706108,0.,7.68352917825632E-13));
#860=CARTESIAN_POINT('',(-32.2924682576529,0.,-32.2924682663777));
#861=CARTESIAN_POINT('',(-32.3425273908143,0.,-32.2415127792813));
#862=CARTESIAN_POINT('',(-40.5065199307774,0.,-23.8846775823113));
#863=CARTESIAN_POINT('',(-44.7386030818124,0.,-11.8806958496453));
#864=CARTESIAN_POINT('',(-45.0481930706108,0.,7.68352917825632E-13));
#865=CARTESIAN_POINT('',(35.5410665976701,2.032,-30.7235580967852));
#866=CARTESIAN_POINT('',(35.5410665976701,2.032,-30.7235580967852));
#867=CARTESIAN_POINT('',(28.4290665976702,2.032,-37.6037438076078));
#868=CARTESIAN_POINT('',(28.4290665976702,2.032,-37.6037438076078));
#869=CARTESIAN_POINT('',(-1.94289029309402E-13,2.032,6.64851652126928));
#870=CARTESIAN_POINT('',(8.67361737988404E-16,-63.5,-48.768));
#871=CARTESIAN_POINT('',(8.67361737988404E-16,0.,-48.768));
#872=CARTESIAN_POINT('',(-12.9580221108668,-63.5,-48.7679999999991));
#873=CARTESIAN_POINT('',(-12.9580221108668,0.,-48.7679999999991));
#874=CARTESIAN_POINT('',(-38.8413935249104,-63.5,-38.5820009328174));
#875=CARTESIAN_POINT('',(-38.8413935249104,0.,-38.5820009328174));
#876=CARTESIAN_POINT('',(-52.5147079081205,-63.5,0.201314570071674));
#877=CARTESIAN_POINT('',(-52.5147079081205,0.,0.201314570071674));
#878=CARTESIAN_POINT('',(-40.5530907526613,-63.5,39.1662238521149));
#879=CARTESIAN_POINT('',(-40.5530907526613,0.,39.1662238521149));
#880=CARTESIAN_POINT('',(-7.2606351064976E-15,-63.5,62.0650330425395));
#881=CARTESIAN_POINT('',(-7.2606351064976E-15,0.,62.0650330425395));
#882=CARTESIAN_POINT('',(40.5530907526575,-63.5,39.1662238521115));
#883=CARTESIAN_POINT('',(40.5530907526575,0.,39.1662238521115));
#884=CARTESIAN_POINT('',(52.5147079081201,-63.5,0.201314570098472));
#885=CARTESIAN_POINT('',(52.5147079081201,0.,0.201314570098472));
#886=CARTESIAN_POINT('',(38.8413935249145,-63.5,-38.5820009328213));
#887=CARTESIAN_POINT('',(38.8413935249145,0.,-38.5820009328213));
#888=CARTESIAN_POINT('',(12.9580221108668,-63.5,-48.7680000000009));
#889=CARTESIAN_POINT('',(12.9580221108668,0.,-48.7680000000009));
#890=CARTESIAN_POINT('',(8.67361737988404E-16,-63.5,-48.768));
#891=CARTESIAN_POINT('',(8.67361737988404E-16,0.,-48.768));
#892=CARTESIAN_POINT('',(8.67361737988404E-16,-63.5,-48.768));
#893=CARTESIAN_POINT('',(-12.9580221108668,-63.5,-48.7679999999991));
#894=CARTESIAN_POINT('',(-38.8413935249104,-63.5,-38.5820009328174));
#895=CARTESIAN_POINT('',(-52.5147079081205,-63.5,0.201314570071674));
#896=CARTESIAN_POINT('',(-40.5530907526613,-63.5,39.1662238521149));
#897=CARTESIAN_POINT('',(-7.2606351064976E-15,-63.5,62.0650330425395));
#898=CARTESIAN_POINT('',(40.5530907526575,-63.5,39.1662238521115));
#899=CARTESIAN_POINT('',(52.5147079081201,-63.5,0.201314570098472));
#900=CARTESIAN_POINT('',(38.8413935249145,-63.5,-38.5820009328213));
#901=CARTESIAN_POINT('',(12.9580221108668,-63.5,-48.7680000000009));
#902=CARTESIAN_POINT('',(8.67361737988404E-16,-63.5,-48.768));
#903=CARTESIAN_POINT('',(8.67361737988404E-16,-63.5,-48.768));
#904=CARTESIAN_POINT('',(-1.94289029309402E-13,-63.5,6.64851652126928));
#905=CARTESIAN_POINT('',(0.,-63.5,-10.2595762094476));
#906=CARTESIAN_POINT('',(34.925,-63.5,-10.2595762094476));
#907=CARTESIAN_POINT('',(-1.94289029309402E-13,0.,4.09880228539219));
#908=CARTESIAN_POINT('',(-0.281242897387145,0.,-2.67110843325427));
#909=CARTESIAN_POINT('',(42.297127297079,0.229323614810579,-2.67043380704013));
#910=CARTESIAN_POINT('',(42.0626107087801,-1.38229994993523,-2.67517489532711));
#911=CARTESIAN_POINT('',(41.8296320318871,-2.99407664542642,-2.67971181332906));
#912=CARTESIAN_POINT('',(41.295750734064,-6.2108668092555,-2.6978031070101));
#913=CARTESIAN_POINT('',(40.9833708677318,-7.8145911326313,-2.71234713598962));
#914=CARTESIAN_POINT('',(40.3047722082937,-11.0177791897938,-2.75259745493088));
#915=CARTESIAN_POINT('',(39.9486532497249,-12.6184160798715,-2.77754985646422));
#916=CARTESIAN_POINT('',(39.2610237794681,-15.8249782525159,-2.83466409490741));
#917=CARTESIAN_POINT('',(38.9217002032565,-17.4299435229929,-2.86725133497047));
#918=CARTESIAN_POINT('',(37.8836352666991,-22.2458357637603,-2.98002070438658));
#919=CARTESIAN_POINT('',(37.1675496920498,-25.4578806336802,-3.07391078312565));
#920=CARTESIAN_POINT('',(35.7191509218991,-31.8891287031168,-3.30410467832213));
#921=CARTESIAN_POINT('',(34.9753617042935,-35.1089632587775,-3.45161859609325));
#922=CARTESIAN_POINT('',(34.2294689630497,-38.3291020865874,-3.60220955162581));
#923=CARTESIAN_POINT('',(42.3028539863596,0.229323614810579,2.90474470183829));
#924=CARTESIAN_POINT('',(42.0280917940472,-1.38229994993523,2.85747861828206));
#925=CARTESIAN_POINT('',(41.7548576654042,-2.99407664542642,2.8104317209569));
#926=CARTESIAN_POINT('',(41.1409004027222,-6.2108668092555,2.70665726899595));
#927=CARTESIAN_POINT('',(40.7887005256527,-7.8145911326313,2.64888967715591));
#928=CARTESIAN_POINT('',(40.0313552987145,-11.0177791897938,2.52120288781716));
#929=CARTESIAN_POINT('',(39.6363255545449,-12.6184160798715,2.45206485764343));
#930=CARTESIAN_POINT('',(38.8721476919167,-15.8249782525159,2.30562715584129));
#931=CARTESIAN_POINT('',(38.495152433169,-17.4299435229929,2.22790411806736));
#932=CARTESIAN_POINT('',(37.3458748014187,-22.2458357637603,1.97831055968656));
#933=CARTESIAN_POINT('',(36.5579086197251,-25.4578806336802,1.79139552833551));
#934=CARTESIAN_POINT('',(34.9712799295882,-31.8891287031168,1.37154022632177));
#935=CARTESIAN_POINT('',(34.1625097876141,-35.1089632587775,1.1266233163946));
#936=CARTESIAN_POINT('',(33.3520236358681,-38.3291020865874,0.878419160611352));
#937=CARTESIAN_POINT('',(41.2000427997766,0.229323614810579,8.47886827717599));
#938=CARTESIAN_POINT('',(40.8935062577032,-1.38229994993523,8.38109173151201));
#939=CARTESIAN_POINT('',(40.5884849497554,-2.99407664542642,8.28354742405123));
#940=CARTESIAN_POINT('',(39.9115199626793,-6.2108668092555,8.07820169376117));
#941=CARTESIAN_POINT('',(39.5281100607329,-7.8145911326313,7.96930996953632));
#942=CARTESIAN_POINT('',(38.7094346019425,-11.0177791897938,7.73856360913687));
#943=CARTESIAN_POINT('',(38.2842949917786,-12.6184160798715,7.61752054429542));
#944=CARTESIAN_POINT('',(37.461359406093,-15.8249782525159,7.36657409310391));
#945=CARTESIAN_POINT('',(37.0556818228974,-17.4299435229929,7.23624260139022));
#946=CARTESIAN_POINT('',(35.8224405683994,-22.2458357637603,6.82776581193417));
#947=CARTESIAN_POINT('',(34.9811185946997,-25.4578806336802,6.5335701132314));
#948=CARTESIAN_POINT('',(33.294025528009,-31.8891287031168,5.8966432057983));
#949=CARTESIAN_POINT('',(32.4396670655435,-35.1089632587775,5.54144120376861));
#950=CARTESIAN_POINT('',(31.58402175124,-38.3291020865874,5.18281888146843));
#951=CARTESIAN_POINT('',(36.943567446156,0.229323614810579,18.7848379242952));
#952=CARTESIAN_POINT('',(36.5952139467411,-1.38229994993523,18.5776827813694));
#953=CARTESIAN_POINT('',(36.2483459924999,-2.99407664542642,18.3707800853661));
#954=CARTESIAN_POINT('',(35.4889989656781,-6.2108668092555,17.9458250324801));
#955=CARTESIAN_POINT('',(35.0650931607111,-7.8145911326313,17.7265896613854));
#956=CARTESIAN_POINT('',(34.167833995195,-11.0177791897938,17.2740117567198));
#957=CARTESIAN_POINT('',(33.7046148442685,-12.6184160798715,17.0415432700348));
#958=CARTESIAN_POINT('',(32.8086014917635,-15.8249782525159,16.5669609766332));
#959=CARTESIAN_POINT('',(32.3678611596483,-17.4299435229929,16.3243967479905));
#960=CARTESIAN_POINT('',(31.0338463399888,-22.2458357637603,15.5779833112225));
#961=CARTESIAN_POINT('',(30.1309045393467,-25.4578806336802,15.0568848782093));
#962=CARTESIAN_POINT('',(28.3335564412404,-31.8891287031168,13.9637127865732));
#963=CARTESIAN_POINT('',(27.4336779094412,-35.1089632587775,13.3787992764757));
#964=CARTESIAN_POINT('',(26.5333894443737,-38.3291020865874,12.7903736224678));
#965=CARTESIAN_POINT('',(33.7915780204102,0.229323614810579,23.5126290371062));
#966=CARTESIAN_POINT('',(33.433198366602,-1.38229994993523,23.2466487948335));
#967=CARTESIAN_POINT('',(33.076287410241,-2.99407664542642,22.9809281482793));
#968=CARTESIAN_POINT('',(32.2975984818823,-6.2108668092555,22.4380214580175));
#969=CARTESIAN_POINT('',(31.8644227321803,-7.8145911326313,22.159609987951));
#970=CARTESIAN_POINT('',(30.9499410111231,-11.0177791897938,21.58834739132));
#971=CARTESIAN_POINT('',(30.4787671681014,-12.6184160798715,21.2964023586046));
#972=CARTESIAN_POINT('',(29.5684625248151,-15.8249782525159,20.7027809635362));
#973=CARTESIAN_POINT('',(29.1213555639227,-17.4299435229929,20.4006366106936));
#974=CARTESIAN_POINT('',(27.7705704519443,-22.2458357637603,19.475302721329));
#975=CARTESIAN_POINT('',(26.8593888611356,-25.4578806336802,18.8346714978939));
#976=CARTESIAN_POINT('',(25.0522934888151,-31.8891287031168,17.5025053404717));
#977=CARTESIAN_POINT('',(24.152501118377,-35.1089632587775,16.7982557960781));
#978=CARTESIAN_POINT('',(23.2527462302754,-38.3291020865874,16.0905353946776));
#979=CARTESIAN_POINT('',(25.9151837221513,0.229323614810579,31.405220858661));
#980=CARTESIAN_POINT('',(25.5600276143709,-1.38229994993523,31.022185312317));
#981=CARTESIAN_POINT('',(25.2063050414808,-2.99407664542642,30.6394166706436));
#982=CARTESIAN_POINT('',(24.4355458821047,-6.2108668092555,29.8620911803516));
#983=CARTESIAN_POINT('',(24.0071834819753,-7.8145911326313,29.4662383622348));
#984=CARTESIAN_POINT('',(23.1049911394519,-11.0177791897938,28.6599574595732));
#985=CARTESIAN_POINT('',(22.6412770509962,-12.6184160798715,28.2504963508531));
#986=CARTESIAN_POINT('',(21.7490390863608,-15.8249782525159,27.4222967277949));
#987=CARTESIAN_POINT('',(21.3124879783797,-17.4299435229929,27.0030449133212));
#988=CARTESIAN_POINT('',(19.9979229882459,-22.2458357637603,25.726933898412));
#989=CARTESIAN_POINT('',(19.1166440177065,-25.4578806336802,24.8530909960005));
#990=CARTESIAN_POINT('',(17.382283751596,-31.8891287031168,23.0572164772284));
#991=CARTESIAN_POINT('',(16.5283431091427,-35.1089632587775,22.1233213957744));
#992=CARTESIAN_POINT('',(15.6752852555304,-38.3291020865874,21.1862062055404));
#993=CARTESIAN_POINT('',(21.1938778744571,0.229323614810579,34.566916169553));
#994=CARTESIAN_POINT('',(20.8519701987701,-1.38229994993523,34.1256964747478));
#995=CARTESIAN_POINT('',(20.5114777569779,-2.99407664542642,33.6847438418938));
#996=CARTESIAN_POINT('',(19.767987148096,-6.2108668092555,32.7910434227354));
#997=CARTESIAN_POINT('',(19.3537061484269,-7.8145911326313,32.3369715636955));
#998=CARTESIAN_POINT('',(18.4810209046321,-11.0177791897938,31.4144495166363));
#999=CARTESIAN_POINT('',(18.0327183277424,-12.6184160798715,30.9469951154999));
#1000=CARTESIAN_POINT('',(17.1728312240725,-15.8249782525159,30.0033486626341));
#1001=CARTESIAN_POINT('',(16.7531984445026,-17.4299435229929,29.5266155875145));
#1002=CARTESIAN_POINT('',(15.491609617461,-22.2458357637603,28.0787859154773));
#1003=CARTESIAN_POINT('',(14.6484612919535,-25.4578806336802,27.0913558833483));
#1004=CARTESIAN_POINT('',(12.9965547881087,-31.8891287031168,25.070949518452));
#1005=CARTESIAN_POINT('',(12.1883616715829,-35.1089632587775,24.0268352899464));
#1006=CARTESIAN_POINT('',(11.3814489022037,-38.3291020865874,22.9797103153247));
#1007=CARTESIAN_POINT('',(10.8966742637778,0.229323614810579,38.8445546072352));
#1008=CARTESIAN_POINT('',(10.6025398818268,-1.38229994993523,38.2964235104848));
#1009=CARTESIAN_POINT('',(10.3097854507888,-2.99407664542642,37.7485527721489));
#1010=CARTESIAN_POINT('',(9.6633291841741,-6.2108668092555,36.6413122128189));
#1011=CARTESIAN_POINT('',(9.29843799783145,-7.8145911326313,36.0805806851807));
#1012=CARTESIAN_POINT('',(8.52704427135157,-11.0177791897938,34.9456329769729));
#1013=CARTESIAN_POINT('',(8.13060506434636,-12.6184160798715,34.3724626029564));
#1014=CARTESIAN_POINT('',(7.37717859674756,-15.8249782525159,33.2190079450758));
#1015=CARTESIAN_POINT('',(7.01211323900328,-17.4299435229929,32.6381212330745));
#1016=CARTESIAN_POINT('',(5.91822403559752,-22.2458357637603,30.8800765948216));
#1017=CARTESIAN_POINT('',(5.19194837470369,-25.4578806336802,29.6886303031048));
#1018=CARTESIAN_POINT('',(3.78469385411886,-31.8891287031168,27.2676477942015));
#1019=CARTESIAN_POINT('',(3.10674375295837,-35.1089632587775,26.0289154509181));
#1020=CARTESIAN_POINT('',(2.43075900312998,-38.3291020865874,24.7877275074685));
#1021=CARTESIAN_POINT('',(5.32482801070253,0.229323614810579,39.9588146659641));
#1022=CARTESIAN_POINT('',(5.06519969364272,-1.38229994993523,39.3619983808007));
#1023=CARTESIAN_POINT('',(4.80693435939226,-2.99407664542642,38.7654355958725));
#1024=CARTESIAN_POINT('',(4.23020570568027,-6.2108668092555,37.5611138441643));
#1025=CARTESIAN_POINT('',(3.90060349942135,-7.8145911326313,36.9519836548754));
#1026=CARTESIAN_POINT('',(3.20095433764096,-11.0177791897938,35.7209350103437));
#1027=CARTESIAN_POINT('',(2.84094658293275,-12.6184160798715,35.1000835505847));
#1028=CARTESIAN_POINT('',(2.16158800272549,-15.8249782525159,33.8523500680658));
#1029=CARTESIAN_POINT('',(1.8341502684452,-17.4299435229929,33.2248319598371));
#1030=CARTESIAN_POINT('',(0.854918542942184,-22.2458357637603,31.3284130688391));
#1031=CARTESIAN_POINT('',(0.20733891722756,-25.4578806336802,30.0466179189387));
#1032=CARTESIAN_POINT('',(-1.03781364247134,-31.8891287031168,27.4497487217592));
#1033=CARTESIAN_POINT('',(-1.63131949925851,-35.1089632587775,26.1266939846679));
#1034=CARTESIAN_POINT('',(-2.22257282835463,-38.3291020865874,24.801529212268));
#1035=CARTESIAN_POINT('',(-5.82552900705433,0.229323614810579,39.9702680445253));
#1036=CARTESIAN_POINT('',(-6.00010733357559,-1.38229994993523,39.2929605513351));
#1037=CARTESIAN_POINT('',(-6.17335270917965,-2.99407664542642,38.6158868629068));
#1038=CARTESIAN_POINT('',(-6.57871504633185,-6.2108668092555,37.2514131814804));
#1039=CARTESIAN_POINT('',(-6.82187012686971,-7.8145911326313,36.5626429707166));
#1040=CARTESIAN_POINT('',(-7.34664634785517,-11.0177791897938,35.1741011911853));
#1041=CARTESIAN_POINT('',(-7.61828284528259,-12.6184160798715,34.4754281602248));
#1042=CARTESIAN_POINT('',(-8.11899449877191,-15.8249782525159,33.0745978929629));
#1043=CARTESIAN_POINT('',(-8.35616063763042,-17.4299435229929,32.3717364196622));
#1044=CARTESIAN_POINT('',(-9.06174398520402,-22.2458357637603,30.2528921382779));
#1045=CARTESIAN_POINT('',(-9.52327370569476,-25.4578806336802,28.8273357742891));
#1046=CARTESIAN_POINT('',(-10.3891034517591,-31.8891287031168,25.954006737138));
#1047=CARTESIAN_POINT('',(-10.7878033242342,-35.1089632587775,24.5009901513099));
#1048=CARTESIAN_POINT('',(-11.1838302528289,-38.3291020865874,23.0466385579048));
#1049=CARTESIAN_POINT('',(-11.399652582392,0.229323614810579,38.8674568579422));
#1050=CARTESIAN_POINT('',(-11.5237204468056,-1.38229994993523,38.158375014991));
#1051=CARTESIAN_POINT('',(-11.646468412274,-2.99407664542642,37.4495141472578));
#1052=CARTESIAN_POINT('',(-11.950259471097,-6.2108668092555,36.0220327414374));
#1053=CARTESIAN_POINT('',(-12.1422904192501,-7.8145911326313,35.3020525057968));
#1054=CARTESIAN_POINT('',(-12.5640070691749,-11.0177791897938,33.8521804944132));
#1055=CARTESIAN_POINT('',(-12.7837385319346,-12.6184160798715,33.1233975974584));
#1056=CARTESIAN_POINT('',(-13.1799414360346,-15.8249782525159,31.663809607139));
#1057=CARTESIAN_POINT('',(-13.3644991209534,-17.4299435229929,30.9322658093904));
#1058=CARTESIAN_POINT('',(-13.9111992374516,-22.2458357637603,28.7294579052585));
#1059=CARTESIAN_POINT('',(-14.2654482905906,-25.4578806336802,27.2505457492639));
#1060=CARTESIAN_POINT('',(-14.9142064312355,-31.8891287031168,24.2767523355585));
#1061=CARTESIAN_POINT('',(-15.2026212116081,-35.1089632587775,22.7781474292388));
#1062=CARTESIAN_POINT('',(-15.4882299736858,-38.3291020865874,21.2786366732769));
#1063=CARTESIAN_POINT('',(-21.7056222295112,0.229323614810579,34.6109815043217));
#1064=CARTESIAN_POINT('',(-21.7203114966628,-1.38229994993523,33.8600827040288));
#1065=CARTESIAN_POINT('',(-21.7337010735887,-2.99407664542642,33.1093751900026));
#1066=CARTESIAN_POINT('',(-21.8178828098159,-6.2108668092555,31.5995117444366));
#1067=CARTESIAN_POINT('',(-21.8995701110991,-7.8145911326313,30.8390356057756));
#1068=CARTESIAN_POINT('',(-22.0994552167577,-11.0177791897938,29.310579887666));
#1069=CARTESIAN_POINT('',(-22.207761257674,-12.6184160798715,28.5437174499485));
#1070=CARTESIAN_POINT('',(-22.3803283195638,-15.8249782525159,27.0110516928099));
#1071=CARTESIAN_POINT('',(-22.4526532675536,-17.4299435229929,26.2444451461416));
#1072=CARTESIAN_POINT('',(-22.66141673674,-22.2458357637603,23.9408636768484));
#1073=CARTESIAN_POINT('',(-22.7887630555684,-25.4578806336802,22.4003316939108));
#1074=CARTESIAN_POINT('',(-22.9812760120106,-31.8891287031168,19.3162832487901));
#1075=CARTESIAN_POINT('',(-23.0399792843153,-35.1089632587775,17.7721582731367));
#1076=CARTESIAN_POINT('',(-23.0957847146855,-38.3291020865874,16.2280043664101));
#1077=CARTESIAN_POINT('',(-26.433413342322,0.229323614810579,31.4589920785759));
#1078=CARTESIAN_POINT('',(-26.3892775101271,-1.38229994993523,30.6980671238896));
#1079=CARTESIAN_POINT('',(-26.3438491365022,-2.99407664542642,29.9373166077434));
#1080=CARTESIAN_POINT('',(-26.3100792353535,-6.2108668092555,28.4081112606406));
#1081=CARTESIAN_POINT('',(-26.3325904376648,-7.8145911326313,27.6383651772445));
#1082=CARTESIAN_POINT('',(-26.4137908513581,-11.0177791897938,26.092686903594));
#1083=CARTESIAN_POINT('',(-26.4626203462437,-12.6184160798715,25.3178697737813));
#1084=CARTESIAN_POINT('',(-26.5161483064669,-15.8249782525159,23.7709127258613));
#1085=CARTESIAN_POINT('',(-26.5288931302567,-17.4299435229929,22.9979395504159));
#1086=CARTESIAN_POINT('',(-26.5587361468466,-22.2458357637603,20.6775877888037));
#1087=CARTESIAN_POINT('',(-26.5665496752532,-25.4578806336802,19.1288160156997));
#1088=CARTESIAN_POINT('',(-26.520068565909,-31.8891287031168,16.0350202963646));
#1089=CARTESIAN_POINT('',(-26.4594358039177,-35.1089632587775,14.4909814820723));
#1090=CARTESIAN_POINT('',(-26.3959464868951,-38.3291020865874,12.9473611523122));
#1091=CARTESIAN_POINT('',(-34.3260051638773,0.229323614810579,23.5825977803169));
#1092=CARTESIAN_POINT('',(-34.1648140276105,-1.38229994993523,22.8248963716588));
#1093=CARTESIAN_POINT('',(-34.0023376588662,-2.99407664542642,22.0673342389835));
#1094=CARTESIAN_POINT('',(-33.7341489576874,-6.2108668092555,20.5460586608631));
#1095=CARTESIAN_POINT('',(-33.6392188119486,-7.8145911326313,19.7811259270394));
#1096=CARTESIAN_POINT('',(-33.4854009196113,-11.0177791897938,18.2477370319226));
#1097=CARTESIAN_POINT('',(-33.4167143384923,-12.6184160798715,17.4803796566759));
#1098=CARTESIAN_POINT('',(-33.2356640707256,-15.8249782525159,15.9514892874069));
#1099=CARTESIAN_POINT('',(-33.1313014328844,-17.4299435229929,15.1890719648728));
#1100=CARTESIAN_POINT('',(-32.8103673239295,-22.2458357637603,12.904940325105));
#1101=CARTESIAN_POINT('',(-32.5849691733598,-25.4578806336802,11.3860711722705));
#1102=CARTESIAN_POINT('',(-32.0747797026659,-31.8891287031168,8.36501055914537));
#1103=CARTESIAN_POINT('',(-31.784501403614,-35.1089632587775,6.86682347283829));
#1104=CARTESIAN_POINT('',(-31.4916172977579,-38.3291020865874,5.36990017756694));
#1105=CARTESIAN_POINT('',(-37.487700474769,0.229323614810579,18.8612919326227));
#1106=CARTESIAN_POINT('',(-37.2683251900414,-1.38229994993523,18.1168389560579));
#1107=CARTESIAN_POINT('',(-37.0476648301166,-2.99407664542642,17.3725069544805));
#1108=CARTESIAN_POINT('',(-36.6631012000713,-6.2108668092555,15.8784999268544));
#1109=CARTESIAN_POINT('',(-36.5099520134096,-7.8145911326313,15.1276485934911));
#1110=CARTESIAN_POINT('',(-36.2398929766744,-11.0177791897938,13.6237667971029));
#1111=CARTESIAN_POINT('',(-36.113213103139,-12.6184160798715,12.8718209334222));
#1112=CARTESIAN_POINT('',(-35.8167160055648,-15.8249782525159,11.3752814251187));
#1113=CARTESIAN_POINT('',(-35.6548721070777,-17.4299435229929,10.6297824309958));
#1114=CARTESIAN_POINT('',(-35.162219340995,-22.2458357637603,8.39862695432043));
#1115=CARTESIAN_POINT('',(-34.8232340607074,-25.4578806336802,6.91788844651765));
#1116=CARTESIAN_POINT('',(-34.0885127438891,-31.8891287031168,3.97928159565825));
#1117=CARTESIAN_POINT('',(-33.6880152977859,-35.1089632587775,2.5268420352783));
#1118=CARTESIAN_POINT('',(-33.2851214075425,-38.3291020865874,1.0760638242404));
#1119=CARTESIAN_POINT('',(-41.7653389124512,0.229323614810579,8.56408832194365));
#1120=CARTESIAN_POINT('',(-41.4390522257782,-1.38229994993523,7.86740863911451));
#1121=CARTESIAN_POINT('',(-41.1114737603716,-2.99407664542642,7.1708146482913));
#1122=CARTESIAN_POINT('',(-40.5133699901547,-6.2108668092555,5.77384196293239));
#1123=CARTESIAN_POINT('',(-40.2535611348943,-7.8145911326313,5.07238044289551));
#1124=CARTESIAN_POINT('',(-39.771076437011,-11.0177791897938,3.66979016382223));
#1125=CARTESIAN_POINT('',(-39.5386805905958,-12.6184160798715,2.96970767002602));
#1126=CARTESIAN_POINT('',(-39.0323752880065,-15.8249782525159,1.5796287977937));
#1127=CARTESIAN_POINT('',(-38.7663777526376,-17.4299435229929,0.888697225496397));
#1128=CARTESIAN_POINT('',(-37.9635100203388,-22.2458357637603,-1.17475862754311));
#1129=CARTESIAN_POINT('',(-37.4205084804642,-25.4578806336802,-2.5386244707322));
#1130=CARTESIAN_POINT('',(-36.285211019639,-31.8891287031168,-5.23257933833159));
#1131=CARTESIAN_POINT('',(-35.6900954587578,-35.1089632587775,-6.55477588334614));
#1132=CARTESIAN_POINT('',(-35.0931385996858,-38.3291020865874,-7.87462607483338));
#1133=CARTESIAN_POINT('',(-42.87959897118,0.229323614810579,2.99224206886819));
#1134=CARTESIAN_POINT('',(-42.5046270960944,-1.38229994993523,2.33006845093051));
#1135=CARTESIAN_POINT('',(-42.1283565840954,-2.99407664542642,1.66796355689485));
#1136=CARTESIAN_POINT('',(-41.4331716215002,-6.2108668092555,0.340718484438672));
#1137=CARTESIAN_POINT('',(-41.1249641045892,-7.8145911326313,-0.325454055514493));
#1138=CARTESIAN_POINT('',(-40.5463784703817,-11.0177791897938,-1.65629976988832));
#1139=CARTESIAN_POINT('',(-40.2663015382239,-12.6184160798715,-2.31995081138753));
#1140=CARTESIAN_POINT('',(-39.6657174109965,-15.8249782525159,-3.6359617962283));
#1141=CARTESIAN_POINT('',(-39.3530884794003,-17.4299435229929,-4.28926574506156));
#1142=CARTESIAN_POINT('',(-38.4118464943566,-22.2458357637603,-6.23806412019833));
#1143=CARTESIAN_POINT('',(-37.7784960962982,-25.4578806336802,-7.52323392820826));
#1144=CARTESIAN_POINT('',(-36.4673119471966,-31.8891287031168,-10.0550868349215));
#1145=CARTESIAN_POINT('',(-35.7878739925077,-35.1089632587775,-11.2928391355631));
#1146=CARTESIAN_POINT('',(-35.1069403044858,-38.3291020865874,-12.5279579063177));
#1147=CARTESIAN_POINT('',(-42.8910523497413,0.229323614810579,-8.15811494888866));
#1148=CARTESIAN_POINT('',(-42.4355892666284,-1.38229994993523,-8.73523857628779));
#1149=CARTESIAN_POINT('',(-41.9788078511294,-2.99407664542642,-9.31232351167704));
#1150=CARTESIAN_POINT('',(-41.1234709588162,-6.2108668092555,-10.4682022675734));
#1151=CARTESIAN_POINT('',(-40.7356234204304,-7.8145911326313,-11.0479276818055));
#1152=CARTESIAN_POINT('',(-39.9995446512234,-11.0177791897938,-12.2039004553844));
#1153=CARTESIAN_POINT('',(-39.641646147864,-12.6184160798715,-12.7791802396028));
#1154=CARTESIAN_POINT('',(-38.8879652358936,-15.8249782525159,-13.9165442977257));
#1155=CARTESIAN_POINT('',(-38.4999929392253,-17.4299435229929,-14.4795766511372));
#1156=CARTESIAN_POINT('',(-37.3363255637953,-22.2458357637603,-16.1547266483446));
#1157=CARTESIAN_POINT('',(-36.5592139516482,-25.4578806336802,-17.2538465511307));
#1158=CARTESIAN_POINT('',(-34.9715699625753,-31.8891287031168,-19.4063766442096));
#1159=CARTESIAN_POINT('',(-34.1621701591493,-35.1089632587775,-20.4493229605385));
#1160=CARTESIAN_POINT('',(-33.3520496501221,-38.3291020865874,-21.4892153307924));
#1161=CARTESIAN_POINT('',(-41.7882411631583,0.229323614810579,-13.7322385242263));
#1162=CARTESIAN_POINT('',(-41.3010037302846,-1.38229994993523,-14.2588516895176));
#1163=CARTESIAN_POINT('',(-40.8124351354807,-2.99407664542642,-14.7854392147713));
#1164=CARTESIAN_POINT('',(-39.8940905187732,-6.2108668092555,-15.8397466923385));
#1165=CARTESIAN_POINT('',(-39.4750329555105,-7.8145911326313,-16.3683479741858));
#1166=CARTESIAN_POINT('',(-38.6776239544512,-11.0177791897938,-17.421261176704));
#1167=CARTESIAN_POINT('',(-38.2896155850976,-12.6184160798715,-17.9446359262547));
#1168=CARTESIAN_POINT('',(-37.4771769500698,-15.8249782525159,-18.9774912349884));
#1169=CARTESIAN_POINT('',(-37.0605223289536,-17.4299435229929,-19.4879151344603));
#1170=CARTESIAN_POINT('',(-35.8128913307762,-22.2458357637603,-21.0041819005924));
#1171=CARTESIAN_POINT('',(-34.9824239266234,-25.4578806336802,-21.9960211360264));
#1172=CARTESIAN_POINT('',(-33.2943155609958,-31.8891287031168,-23.9314796236862));
#1173=CARTESIAN_POINT('',(-32.4393274370784,-35.1089632587775,-24.8641408479127));
#1174=CARTESIAN_POINT('',(-31.5840477654944,-38.3291020865874,-25.7936150516491));
#1175=CARTESIAN_POINT('',(-37.5317658095377,0.229323614810579,-24.0382081713455));
#1176=CARTESIAN_POINT('',(-37.0027114193224,-1.38229994993523,-24.4554427393752));
#1177=CARTESIAN_POINT('',(-36.4722961782252,-2.99407664542642,-24.8726718760863));
#1178=CARTESIAN_POINT('',(-35.4715695217727,-6.2108668092555,-25.7073700310575));
#1179=CARTESIAN_POINT('',(-35.0120160554895,-7.8145911326313,-26.125627666035));
#1180=CARTESIAN_POINT('',(-34.1360233477041,-11.0177791897938,-26.956709324287));
#1181=CARTESIAN_POINT('',(-33.7099354375877,-12.6184160798715,-27.3686586519942));
#1182=CARTESIAN_POINT('',(-32.8244190357405,-15.8249782525159,-28.1778781185176));
#1183=CARTESIAN_POINT('',(-32.3727016657046,-17.4299435229929,-28.5760692810604));
#1184=CARTESIAN_POINT('',(-31.0242971023657,-22.2458357637603,-29.7543993998804));
#1185=CARTESIAN_POINT('',(-30.13220987127,-25.4578806336802,-30.5193359010043));
#1186=CARTESIAN_POINT('',(-28.3338464742273,-31.8891287031168,-31.9985492044611));
#1187=CARTESIAN_POINT('',(-27.4333382809763,-35.1089632587775,-32.7014989206199));
#1188=CARTESIAN_POINT('',(-26.5334154586277,-38.3291020865874,-33.4011697926487));
#1189=CARTESIAN_POINT('',(-34.3797763837919,0.229323614810579,-28.7659992841566));
#1190=CARTESIAN_POINT('',(-33.8406958391833,-1.38229994993523,-29.1244087528393));
#1191=CARTESIAN_POINT('',(-33.3002375959663,-2.99407664542642,-29.4828199389996));
#1192=CARTESIAN_POINT('',(-32.2801690379765,-6.2108668092555,-30.1995664565952));
#1193=CARTESIAN_POINT('',(-31.8113456269582,-7.8145911326313,-30.5586479926007));
#1194=CARTESIAN_POINT('',(-30.9181303636319,-11.0177791897938,-31.2710449588874));
#1195=CARTESIAN_POINT('',(-30.4840877614206,-12.6184160798715,-31.6235177405641));
#1196=CARTESIAN_POINT('',(-29.5842800687921,-15.8249782525159,-32.3136981054208));
#1197=CARTESIAN_POINT('',(-29.1261960699791,-17.4299435229929,-32.6523091437638));
#1198=CARTESIAN_POINT('',(-27.7610212143212,-22.2458357637603,-33.6517188099876));
#1199=CARTESIAN_POINT('',(-26.860694193059,-25.4578806336802,-34.2971225206894));
#1200=CARTESIAN_POINT('',(-25.0525835218021,-31.8891287031168,-35.537341758359));
#1201=CARTESIAN_POINT('',(-24.152161489912,-35.1089632587775,-36.1209554402222));
#1202=CARTESIAN_POINT('',(-23.2527722445295,-38.3291020865874,-36.7013315648585));
#1203=CARTESIAN_POINT('',(-26.503382085533,0.229323614810579,-36.6585911057113));
#1204=CARTESIAN_POINT('',(-25.9675250869523,-1.38229994993523,-36.8999452703227));
#1205=CARTESIAN_POINT('',(-25.4302552272061,-2.99407664542642,-37.1413084613638));
#1206=CARTESIAN_POINT('',(-24.4181164381989,-6.2108668092555,-37.623636178929));
#1207=CARTESIAN_POINT('',(-23.9541063767534,-7.8145911326313,-37.8652763668845));
#1208=CARTESIAN_POINT('',(-23.0731804919607,-11.0177791897938,-38.3426550271405));
#1209=CARTESIAN_POINT('',(-22.646597644315,-12.6184160798715,-38.5776117328124));
#1210=CARTESIAN_POINT('',(-21.7648566303374,-15.8249782525159,-39.0332138696793));
#1211=CARTESIAN_POINT('',(-21.3173284844358,-17.4299435229929,-39.254717446391));
#1212=CARTESIAN_POINT('',(-19.9883737506226,-22.2458357637603,-39.9033499870697));
#1213=CARTESIAN_POINT('',(-19.1179493496297,-25.4578806336802,-40.3155420187953));
#1214=CARTESIAN_POINT('',(-17.3825737845827,-31.8891287031168,-41.0920528951166));
#1215=CARTESIAN_POINT('',(-16.5280034806778,-35.1089632587775,-41.4460210399186));
#1216=CARTESIAN_POINT('',(-15.6753112697845,-38.3291020865874,-41.7970023757213));
#1217=CARTESIAN_POINT('',(-21.7820762378385,0.229323614810579,-39.8202864166034));
#1218=CARTESIAN_POINT('',(-21.2594676713513,-1.38229994993523,-40.0034564327535));
#1219=CARTESIAN_POINT('',(-20.7354279427032,-2.99407664542642,-40.1866356326139));
#1220=CARTESIAN_POINT('',(-19.7505577041903,-6.2108668092555,-40.5525884213128));
#1221=CARTESIAN_POINT('',(-19.3006290432049,-7.8145911326313,-40.7360095683452));
#1222=CARTESIAN_POINT('',(-18.449210257141,-11.0177791897938,-41.0971470842036));
#1223=CARTESIAN_POINT('',(-18.0380389210615,-12.6184160798715,-41.2741104974591));
#1224=CARTESIAN_POINT('',(-17.1886487680493,-15.8249782525159,-41.6142658045185));
#1225=CARTESIAN_POINT('',(-16.7580389505589,-17.4299435229929,-41.7782881205844));
#1226=CARTESIAN_POINT('',(-15.4820603798379,-22.2458357637603,-42.2552020041354));
#1227=CARTESIAN_POINT('',(-14.6497666238769,-25.4578806336802,-42.5538069061432));
#1228=CARTESIAN_POINT('',(-12.9968448210956,-31.8891287031168,-43.1057859363398));
#1229=CARTESIAN_POINT('',(-12.1880220431179,-35.1089632587775,-43.3495349340905));
#1230=CARTESIAN_POINT('',(-11.3814749164579,-38.3291020865874,-43.5905064855058));
#1231=CARTESIAN_POINT('',(-11.4848726271598,0.229323614810579,-44.0979248542855));
#1232=CARTESIAN_POINT('',(-11.0100373544081,-1.38229994993523,-44.1741834684906));
#1233=CARTESIAN_POINT('',(-10.5337356365141,-2.99407664542642,-44.2504445628691));
#1234=CARTESIAN_POINT('',(-9.6458997402683,-6.2108668092555,-44.4028572113966));
#1235=CARTESIAN_POINT('',(-9.24536089260931,-7.8145911326313,-44.4796186898304));
#1236=CARTESIAN_POINT('',(-8.49523362386032,-11.0177791897938,-44.6283305445403));
#1237=CARTESIAN_POINT('',(-8.13592565766523,-12.6184160798715,-44.6995779849161));
#1238=CARTESIAN_POINT('',(-7.39299614072441,-15.8249782525159,-44.8299250869604));
#1239=CARTESIAN_POINT('',(-7.01695374505954,-17.4299435229929,-44.8897937661446));
#1240=CARTESIAN_POINT('',(-5.90867479797438,-22.2458357637603,-45.0564926834797));
#1241=CARTESIAN_POINT('',(-5.1932537066271,-25.4578806336802,-45.1510813259002));
#1242=CARTESIAN_POINT('',(-3.78498388710574,-31.8891287031168,-45.3024842120893));
#1243=CARTESIAN_POINT('',(-3.10640412449343,-35.1089632587775,-45.3516150950623));
#1244=CARTESIAN_POINT('',(-2.43078501738414,-38.3291020865874,-45.3985236776491));
#1245=CARTESIAN_POINT('',(-5.91302637408423,0.229323614810579,-45.2121849130144));
#1246=CARTESIAN_POINT('',(-5.47269716622404,-1.38229994993523,-45.2397583388066));
#1247=CARTESIAN_POINT('',(-5.03088454511758,-2.99407664542642,-45.2673273865927));
#1248=CARTESIAN_POINT('',(-4.21277626177455,-6.2108668092555,-45.3226588427417));
#1249=CARTESIAN_POINT('',(-3.8475263941993,-7.8145911326313,-45.351021659525));
#1250=CARTESIAN_POINT('',(-3.16914369014974,-11.0177791897938,-45.403632577911));
#1251=CARTESIAN_POINT('',(-2.84626717625172,-12.6184160798715,-45.4271989325441));
#1252=CARTESIAN_POINT('',(-2.17740554670237,-15.8249782525159,-45.4632672099505));
#1253=CARTESIAN_POINT('',(-1.83899077450152,-17.4299435229929,-45.4765044929073));
#1254=CARTESIAN_POINT('',(-0.845369305319073,-22.2458357637603,-45.5048291574974));
#1255=CARTESIAN_POINT('',(-0.208644249150874,-25.4578806336802,-45.509068941734));
#1256=CARTESIAN_POINT('',(1.03752360948437,-31.8891287031168,-45.484585139647));
#1257=CARTESIAN_POINT('',(1.63165912772342,-35.1089632587775,-45.4493936288124));
#1258=CARTESIAN_POINT('',(2.22254681410037,-38.3291020865874,-45.4123253824489));
#1259=CARTESIAN_POINT('',(5.23733064367263,0.229323614810579,-45.2236382915756));
#1260=CARTESIAN_POINT('',(5.59260986099428,-1.38229994993523,-45.1707205093407));
#1261=CARTESIAN_POINT('',(5.94940252345435,-2.99407664542642,-45.1177786536271));
#1262=CARTESIAN_POINT('',(6.59614449023758,-6.2108668092555,-45.0129581800581));
#1263=CARTESIAN_POINT('',(6.87494723209175,-7.8145911326313,-44.9616809753664));
#1264=CARTESIAN_POINT('',(7.37845699534638,-11.0177791897938,-44.8567987587525));
#1265=CARTESIAN_POINT('',(7.61296225196361,-12.6184160798715,-44.8025435421842));
#1266=CARTESIAN_POINT('',(8.10317695479505,-15.8249782525159,-44.6855150348471));
#1267=CARTESIAN_POINT('',(8.35132013157415,-17.4299435229929,-44.6234089527319));
#1268=CARTESIAN_POINT('',(9.07129322282717,-22.2458357637603,-44.4293082269358));
#1269=CARTESIAN_POINT('',(9.52196837377139,-25.4578806336802,-44.2897867970841));
#1270=CARTESIAN_POINT('',(10.3888134187722,-31.8891287031168,-43.9888431550258));
#1271=CARTESIAN_POINT('',(10.7881429526991,-35.1089632587775,-43.8236897954537));
#1272=CARTESIAN_POINT('',(11.1838042385747,-38.3291020865874,-43.6574347280857));
#1273=CARTESIAN_POINT('',(10.8114542190103,0.229323614810579,-44.1208271049927));
#1274=CARTESIAN_POINT('',(11.1162229742242,-1.38229994993523,-44.0361349729966));
#1275=CARTESIAN_POINT('',(11.4225182265487,-2.99407664542642,-43.9514059379779));
#1276=CARTESIAN_POINT('',(11.9676889150027,-6.2108668092555,-43.783577740015));
#1277=CARTESIAN_POINT('',(12.1953675244721,-7.8145911326313,-43.7010905104465));
#1278=CARTESIAN_POINT('',(12.5958177166659,-11.0177791897938,-43.5348780619805));
#1279=CARTESIAN_POINT('',(12.7784179386154,-12.6184160798715,-43.4505129794178));
#1280=CARTESIAN_POINT('',(13.1641238920576,-15.8249782525159,-43.2747267490235));
#1281=CARTESIAN_POINT('',(13.359658614897,-17.4299435229929,-43.1839383424603));
#1282=CARTESIAN_POINT('',(13.9207484750747,-22.2458357637603,-42.9058739939166));
#1283=CARTESIAN_POINT('',(14.264142958667,-25.4578806336802,-42.7129967720589));
#1284=CARTESIAN_POINT('',(14.9139163982487,-31.8891287031168,-42.3115887534463));
#1285=CARTESIAN_POINT('',(15.2029608400734,-35.1089632587775,-42.100847073383));
#1286=CARTESIAN_POINT('',(15.4882039594316,-38.3291020865874,-41.8894328434576));
#1287=CARTESIAN_POINT('',(21.1174238661295,0.229323614810579,-39.8643517513721));
#1288=CARTESIAN_POINT('',(21.3128140240815,-1.38229994993523,-39.7378426620348));
#1289=CARTESIAN_POINT('',(21.5097508878634,-2.99407664542642,-39.611266980723));
#1290=CARTESIAN_POINT('',(21.8353122537216,-6.2108668092555,-39.3610567430143));
#1291=CARTESIAN_POINT('',(21.9526472163211,-7.8145911326313,-39.2380736104253));
#1292=CARTESIAN_POINT('',(22.1312658642491,-11.0177791897938,-38.9932774552333));
#1293=CARTESIAN_POINT('',(22.202440664355,-12.6184160798715,-38.8708328319078));
#1294=CARTESIAN_POINT('',(22.364510775587,-15.8249782525159,-38.6219688346943));
#1295=CARTESIAN_POINT('',(22.4478127614973,-17.4299435229929,-38.4961176792116));
#1296=CARTESIAN_POINT('',(22.6709659743631,-22.2458357637603,-38.1172797655066));
#1297=CARTESIAN_POINT('',(22.7874577236453,-25.4578806336802,-37.862782716706));
#1298=CARTESIAN_POINT('',(22.9809859790237,-31.8891287031168,-37.3511196666778));
#1299=CARTESIAN_POINT('',(23.04031891278,-35.1089632587775,-37.0948579172808));
#1300=CARTESIAN_POINT('',(23.0957587004313,-38.3291020865874,-36.8388005365912));
#1301=CARTESIAN_POINT('',(25.8452149789403,0.229323614810579,-36.7123623256262));
#1302=CARTESIAN_POINT('',(25.9817800375457,-1.38229994993523,-36.5758270818956));
#1303=CARTESIAN_POINT('',(26.1198989507768,-2.99407664542642,-36.4392083984638));
#1304=CARTESIAN_POINT('',(26.3275086792591,-6.2108668092555,-36.169656259218));
#1305=CARTESIAN_POINT('',(26.3856675428868,-7.8145911326313,-36.0374031818941));
#1306=CARTESIAN_POINT('',(26.4456014988493,-11.0177791897938,-35.7753844711611));
#1307=CARTESIAN_POINT('',(26.4572997529248,-12.6184160798715,-35.6449851557408));
#1308=CARTESIAN_POINT('',(26.5003307624902,-15.8249782525159,-35.3818298677458));
#1309=CARTESIAN_POINT('',(26.5240526242006,-17.4299435229929,-35.2496120834859));
#1310=CARTESIAN_POINT('',(26.5682853844699,-22.2458357637603,-34.8540038774617));
#1311=CARTESIAN_POINT('',(26.56524434333,-25.4578806336802,-34.5912670384947));
#1312=CARTESIAN_POINT('',(26.5197785329219,-31.8891287031168,-34.0698567142524));
#1313=CARTESIAN_POINT('',(26.4597754323826,-35.1089632587775,-33.8136811262165));
#1314=CARTESIAN_POINT('',(26.395920472641,-38.3291020865874,-33.5581573224931));
#1315=CARTESIAN_POINT('',(33.7378068004955,0.229323614810579,-28.8359680273673));
#1316=CARTESIAN_POINT('',(33.7573165550293,-1.38229994993523,-28.7026563296645));
#1317=CARTESIAN_POINT('',(33.7783874731411,-2.99407664542642,-28.5692260297036));
#1318=CARTESIAN_POINT('',(33.7515784015933,-6.2108668092555,-28.3076036594407));
#1319=CARTESIAN_POINT('',(33.6922959171707,-7.8145911326313,-28.1801639316891));
#1320=CARTESIAN_POINT('',(33.5172115671024,-11.0177791897938,-27.9304345994899));
#1321=CARTESIAN_POINT('',(33.4113937451732,-12.6184160798715,-27.8074950386352));
#1322=CARTESIAN_POINT('',(33.2198465267486,-15.8249782525159,-27.5624064292913));
#1323=CARTESIAN_POINT('',(33.1264609268279,-17.4299435229929,-27.4407444979427));
#1324=CARTESIAN_POINT('',(32.8199165615524,-22.2458357637603,-27.0813564137634));
#1325=CARTESIAN_POINT('',(32.5836638414362,-25.4578806336802,-26.8485221950657));
#1326=CARTESIAN_POINT('',(32.0744896696791,-31.8891287031168,-26.3998469770333));
#1327=CARTESIAN_POINT('',(31.7848410320789,-35.1089632587775,-26.1895231169825));
#1328=CARTESIAN_POINT('',(31.4915912835038,-38.3291020865874,-25.9806963477477));
#1329=CARTESIAN_POINT('',(36.8995021113873,0.229323614810579,-24.1146621796731));
#1330=CARTESIAN_POINT('',(36.8608277174601,-1.38229994993523,-23.9945989140636));
#1331=CARTESIAN_POINT('',(36.8237146443913,-2.99407664542642,-23.8743987452007));
#1332=CARTESIAN_POINT('',(36.6805306439771,-6.2108668092555,-23.640044925432));
#1333=CARTESIAN_POINT('',(36.5630291186315,-7.8145911326313,-23.5266865981409));
#1334=CARTESIAN_POINT('',(36.2717036241655,-11.0177791897938,-23.3064643646702));
#1335=CARTESIAN_POINT('',(36.1078925098199,-12.6184160798715,-23.1989363153816));
#1336=CARTESIAN_POINT('',(35.8008984615879,-15.8249782525159,-22.9861985670031));
#1337=CARTESIAN_POINT('',(35.6500316010214,-17.4299435229929,-22.8814549640656));
#1338=CARTESIAN_POINT('',(35.171768578618,-22.2458357637603,-22.5750430429786));
#1339=CARTESIAN_POINT('',(34.8219287287843,-25.4578806336802,-22.3803394693128));
#1340=CARTESIAN_POINT('',(34.0882227109022,-31.8891287031168,-22.0141180135462));
#1341=CARTESIAN_POINT('',(33.6883549262508,-35.1089632587775,-21.8495416794224));
#1342=CARTESIAN_POINT('',(33.2850953932883,-38.3291020865874,-21.6868599944212));
#1343=CARTESIAN_POINT('',(41.1771405490695,0.229323614810579,-13.8174585689939));
#1344=CARTESIAN_POINT('',(41.031554753197,-1.38229994993523,-13.7451685971203));
#1345=CARTESIAN_POINT('',(40.8875235746463,-2.99407664542642,-13.6727064390115));
#1346=CARTESIAN_POINT('',(40.5307994340605,-6.2108668092555,-13.5353869615098));
#1347=CARTESIAN_POINT('',(40.3066382401164,-7.8145911326313,-13.4714184475451));
#1348=CARTESIAN_POINT('',(39.8028870845022,-11.0177791897938,-13.3524877313896));
#1349=CARTESIAN_POINT('',(39.5333599972768,-12.6184160798715,-13.2968230519855));
#1350=CARTESIAN_POINT('',(39.0165577440296,-15.8249782525159,-13.1905459396782));
#1351=CARTESIAN_POINT('',(38.7615372465813,-17.4299435229929,-13.1403697585664));
#1352=CARTESIAN_POINT('',(37.9730592579621,-22.2458357637603,-13.0016574611149));
#1353=CARTESIAN_POINT('',(37.4192031485405,-25.4578806336802,-12.9238265520629));
#1354=CARTESIAN_POINT('',(36.2849209866521,-31.8891287031168,-12.8022570795561));
#1355=CARTESIAN_POINT('',(35.6904350872228,-35.1089632587775,-12.767923760798));
#1356=CARTESIAN_POINT('',(35.0931125854316,-38.3291020865874,-12.7361700953476));
#1357=CARTESIAN_POINT('',(42.2914006077983,0.229323614810579,-8.24561231591856));
#1358=CARTESIAN_POINT('',(42.097129623513,-1.38229994993523,-8.20782840893627));
#1359=CARTESIAN_POINT('',(41.90440639837,-2.99407664542642,-8.16985534761502));
#1360=CARTESIAN_POINT('',(41.4506010654058,-6.2108668092555,-8.10226348301616));
#1361=CARTESIAN_POINT('',(41.178041209811,-7.8145911326313,-8.07358394913514));
#1362=CARTESIAN_POINT('',(40.5781891178729,-11.0177791897938,-8.02639779767893));
#1363=CARTESIAN_POINT('',(40.2609809449049,-12.6184160798715,-8.00716457057187));
#1364=CARTESIAN_POINT('',(39.6498998670196,-15.8249782525159,-7.97495534565612));
#1365=CARTESIAN_POINT('',(39.348247973344,-17.4299435229929,-7.96240678800829));
#1366=CARTESIAN_POINT('',(38.4213957319795,-22.2458357637603,-7.93835196845971));
#1367=CARTESIAN_POINT('',(37.7771907643744,-25.4578806336802,-7.93921709458681));
#1368=CARTESIAN_POINT('',(36.46702191421,-31.8891287031168,-7.97974958296603));
#1369=CARTESIAN_POINT('',(35.7882136209728,-35.1089632587775,-8.02986050858109));
#1370=CARTESIAN_POINT('',(35.1069142902313,-38.3291020865874,-8.08283826386297));
#1371=CARTESIAN_POINT('',(42.297127297079,0.229323614810579,-2.67043380704013));
#1372=CARTESIAN_POINT('',(42.0626107087801,-1.38229994993523,-2.67517489532711));
#1373=CARTESIAN_POINT('',(41.8296320318871,-2.99407664542642,-2.67971181332906));
#1374=CARTESIAN_POINT('',(41.295750734064,-6.2108668092555,-2.6978031070101));
#1375=CARTESIAN_POINT('',(40.9833708677318,-7.8145911326313,-2.71234713598962));
#1376=CARTESIAN_POINT('',(40.3047722082937,-11.0177791897938,-2.75259745493088));
#1377=CARTESIAN_POINT('',(39.9486532497249,-12.6184160798715,-2.77754985646422));
#1378=CARTESIAN_POINT('',(39.2610237794681,-15.8249782525159,-2.83466409490741));
#1379=CARTESIAN_POINT('',(38.9217002032565,-17.4299435229929,-2.86725133497047));
#1380=CARTESIAN_POINT('',(37.8836352666991,-22.2458357637603,-2.98002070438658));
#1381=CARTESIAN_POINT('',(37.1675496920498,-25.4578806336802,-3.07391078312565));
#1382=CARTESIAN_POINT('',(35.7191509218991,-31.8891287031168,-3.30410467832213));
#1383=CARTESIAN_POINT('',(34.9753617042935,-35.1089632587775,-3.45161859609325));
#1384=CARTESIAN_POINT('',(34.2294689630497,-38.3291020865874,-3.60220955162581));
#1385=CARTESIAN_POINT('',(0.,-38.1,-10.2595762094476));
#1386=CARTESIAN_POINT('',(34.925,-38.1,-10.2595762094476));
#1387=CARTESIAN_POINT('',(0.,-63.5,-10.2595762094476));
#1388=MECHANICAL_DESIGN_GEOMETRIC_PRESENTATION_REPRESENTATION('',(#444),
#1389);
#1389=(
GEOMETRIC_REPRESENTATION_CONTEXT(3)
GLOBAL_UNCERTAINTY_ASSIGNED_CONTEXT((#1390))
GLOBAL_UNIT_ASSIGNED_CONTEXT((#1393,#1392,#1391))
REPRESENTATION_CONTEXT('Part 1','TOP_LEVEL_ASSEMBLY_PART')
);
#1390=UNCERTAINTY_MEASURE_WITH_UNIT(LENGTH_MEASURE(1.E-5),#1393,
'DISTANCE_ACCURACY_VALUE','Maximum Tolerance applied to model');
#1391=(
NAMED_UNIT(*)
SI_UNIT($,.STERADIAN.)
SOLID_ANGLE_UNIT()
);
#1392=(
NAMED_UNIT(*)
PLANE_ANGLE_UNIT()
SI_UNIT($,.RADIAN.)
);
#1393=(
LENGTH_UNIT()
NAMED_UNIT(*)
SI_UNIT(.MILLI.,.METRE.)
);
#1394=PRODUCT_DEFINITION_SHAPE('','',#1395);
#1395=PRODUCT_DEFINITION('','',#1397,#1396);
#1396=PRODUCT_DEFINITION_CONTEXT('',#1403,'design');
#1397=PRODUCT_DEFINITION_FORMATION_WITH_SPECIFIED_SOURCE('','',#1399,
 .NOT_KNOWN.);
#1398=PRODUCT_RELATED_PRODUCT_CATEGORY('','',(#1399));
#1399=PRODUCT('Part 1','Part 1','Part 1',(#1401));
#1400=PRODUCT_CATEGORY('','');
#1401=PRODUCT_CONTEXT('',#1403,'mechanical');
#1402=APPLICATION_PROTOCOL_DEFINITION('international standard',
'ap242_managed_model_based_3d_engineering',2020,#1403);
#1403=APPLICATION_CONTEXT('managed model based 3d engineering');
ENDSEC;
END-ISO-10303-21;
