ISO-10303-21;
HEADER;
/* Generated by software containing ST-Developer
 * from STEP Tools, Inc. (www.steptools.com) 
 */
/* OPTION: using custom renumber hook */

FILE_DESCRIPTION(
/* description */ ('STEP AP242 Edition 2',
'CAx-IF Rec.Pracs.---Representation and Presentation of Product Manufa
cturing Information (PMI)---4.0---2014-10-13',
'CAx-IF Rec.Pracs.---3D Tessellated Geometry---0.4---2014-09-14','2;1',
'CAx-IF Rec.Pracs.---User Defined Attributes---1.5---2016-08-15'),
/* implementation_level */ '2;1');

FILE_NAME(
/* name */ 'Part Studio 2',
/* time_stamp */ '2026-05-18T07:19:40Z',
/* author */ (''),
/* organization */ (''),
/* preprocessor_version */ 'ST-DEVELOPER v20',
/* originating_system */ 'ONSHAPE BY PTC INC, 1.215',
/* authorisation */ '  ');

FILE_SCHEMA (('AP242_MANAGED_MODEL_BASED_3D_ENGINEERING_MIM_LF { 1 0 10303 442 3 1 4 }'));
ENDSEC;

DATA;
#10=SHAPE_REPRESENTATION_RELATIONSHIP('','',#332,#12);
#11=SHAPE_REPRESENTATION_RELATIONSHIP('','',#333,#13);
#12=ADVANCED_BREP_SHAPE_REPRESENTATION('',(#328),#556);
#13=ADVANCED_BREP_SHAPE_REPRESENTATION('',(#329),#557);
#14=CIRCLE('',#337,0.00369443674571812);
#15=CIRCLE('',#338,0.00369443674571812);
#16=CIRCLE('',#341,0.000889);
#17=CIRCLE('',#342,0.000889);
#18=CIRCLE('',#344,0.000889);
#19=CIRCLE('',#345,0.000889);
#20=CIRCLE('',#347,0.001905);
#21=CIRCLE('',#348,0.001905);
#22=CIRCLE('',#350,0.00369443674571813);
#23=CIRCLE('',#351,0.00369443674571813);
#24=CIRCLE('',#353,0.001905);
#25=CIRCLE('',#354,0.001905);
#26=CIRCLE('',#359,0.003683);
#27=CIRCLE('',#360,0.003683);
#28=CIRCLE('',#363,0.003683);
#29=CIRCLE('',#364,0.003683);
#30=CIRCLE('',#366,0.001905);
#31=CIRCLE('',#367,0.001905);
#32=CIRCLE('',#369,0.001905);
#33=CIRCLE('',#370,0.001905);
#34=CYLINDRICAL_SURFACE('',#336,0.00369443674571812);
#35=CYLINDRICAL_SURFACE('',#340,0.000889);
#36=CYLINDRICAL_SURFACE('',#343,0.000889);
#37=CYLINDRICAL_SURFACE('',#346,0.001905);
#38=CYLINDRICAL_SURFACE('',#349,0.00369443674571813);
#39=CYLINDRICAL_SURFACE('',#352,0.001905);
#40=CYLINDRICAL_SURFACE('',#358,0.003683);
#41=CYLINDRICAL_SURFACE('',#362,0.003683);
#42=CYLINDRICAL_SURFACE('',#365,0.001905);
#43=CYLINDRICAL_SURFACE('',#368,0.001905);
#44=ORIENTED_EDGE('',*,*,#116,.T.);
#45=ORIENTED_EDGE('',*,*,#117,.F.);
#46=ORIENTED_EDGE('',*,*,#118,.F.);
#47=ORIENTED_EDGE('',*,*,#119,.T.);
#48=ORIENTED_EDGE('',*,*,#120,.F.);
#49=ORIENTED_EDGE('',*,*,#119,.F.);
#50=ORIENTED_EDGE('',*,*,#121,.T.);
#51=ORIENTED_EDGE('',*,*,#122,.T.);
#52=ORIENTED_EDGE('',*,*,#123,.F.);
#53=ORIENTED_EDGE('',*,*,#122,.F.);
#54=ORIENTED_EDGE('',*,*,#124,.T.);
#55=ORIENTED_EDGE('',*,*,#125,.T.);
#56=ORIENTED_EDGE('',*,*,#126,.F.);
#57=ORIENTED_EDGE('',*,*,#127,.T.);
#58=ORIENTED_EDGE('',*,*,#128,.F.);
#59=ORIENTED_EDGE('',*,*,#129,.T.);
#60=ORIENTED_EDGE('',*,*,#130,.F.);
#61=ORIENTED_EDGE('',*,*,#131,.T.);
#62=ORIENTED_EDGE('',*,*,#132,.F.);
#63=ORIENTED_EDGE('',*,*,#125,.F.);
#64=ORIENTED_EDGE('',*,*,#133,.T.);
#65=ORIENTED_EDGE('',*,*,#117,.T.);
#66=ORIENTED_EDGE('',*,*,#134,.F.);
#67=ORIENTED_EDGE('',*,*,#135,.T.);
#68=ORIENTED_EDGE('',*,*,#118,.T.);
#69=ORIENTED_EDGE('',*,*,#133,.F.);
#70=ORIENTED_EDGE('',*,*,#124,.F.);
#71=ORIENTED_EDGE('',*,*,#121,.F.);
#72=ORIENTED_EDGE('',*,*,#130,.T.);
#73=ORIENTED_EDGE('',*,*,#128,.T.);
#74=ORIENTED_EDGE('',*,*,#126,.T.);
#75=ORIENTED_EDGE('',*,*,#134,.T.);
#76=ORIENTED_EDGE('',*,*,#116,.F.);
#77=ORIENTED_EDGE('',*,*,#120,.T.);
#78=ORIENTED_EDGE('',*,*,#123,.T.);
#79=ORIENTED_EDGE('',*,*,#132,.T.);
#80=ORIENTED_EDGE('',*,*,#131,.F.);
#81=ORIENTED_EDGE('',*,*,#129,.F.);
#82=ORIENTED_EDGE('',*,*,#127,.F.);
#83=ORIENTED_EDGE('',*,*,#135,.F.);
#84=ORIENTED_EDGE('',*,*,#136,.T.);
#85=ORIENTED_EDGE('',*,*,#137,.F.);
#86=ORIENTED_EDGE('',*,*,#138,.F.);
#87=ORIENTED_EDGE('',*,*,#139,.T.);
#88=ORIENTED_EDGE('',*,*,#140,.T.);
#89=ORIENTED_EDGE('',*,*,#141,.F.);
#90=ORIENTED_EDGE('',*,*,#142,.F.);
#91=ORIENTED_EDGE('',*,*,#137,.T.);
#92=ORIENTED_EDGE('',*,*,#143,.T.);
#93=ORIENTED_EDGE('',*,*,#144,.F.);
#94=ORIENTED_EDGE('',*,*,#145,.F.);
#95=ORIENTED_EDGE('',*,*,#141,.T.);
#96=ORIENTED_EDGE('',*,*,#146,.T.);
#97=ORIENTED_EDGE('',*,*,#147,.F.);
#98=ORIENTED_EDGE('',*,*,#148,.T.);
#99=ORIENTED_EDGE('',*,*,#149,.F.);
#100=ORIENTED_EDGE('',*,*,#150,.F.);
#101=ORIENTED_EDGE('',*,*,#139,.F.);
#102=ORIENTED_EDGE('',*,*,#151,.T.);
#103=ORIENTED_EDGE('',*,*,#144,.T.);
#104=ORIENTED_EDGE('',*,*,#148,.F.);
#105=ORIENTED_EDGE('',*,*,#146,.F.);
#106=ORIENTED_EDGE('',*,*,#138,.T.);
#107=ORIENTED_EDGE('',*,*,#142,.T.);
#108=ORIENTED_EDGE('',*,*,#145,.T.);
#109=ORIENTED_EDGE('',*,*,#151,.F.);
#110=ORIENTED_EDGE('',*,*,#149,.T.);
#111=ORIENTED_EDGE('',*,*,#147,.T.);
#112=ORIENTED_EDGE('',*,*,#136,.F.);
#113=ORIENTED_EDGE('',*,*,#150,.T.);
#114=ORIENTED_EDGE('',*,*,#143,.F.);
#115=ORIENTED_EDGE('',*,*,#140,.F.);
#116=EDGE_CURVE('',#152,#153,#180,.T.);
#117=EDGE_CURVE('',#154,#153,#181,.T.);
#118=EDGE_CURVE('',#155,#154,#182,.T.);
#119=EDGE_CURVE('',#155,#152,#183,.T.);
#120=EDGE_CURVE('',#152,#156,#14,.T.);
#121=EDGE_CURVE('',#155,#157,#15,.T.);
#122=EDGE_CURVE('',#157,#156,#184,.T.);
#123=EDGE_CURVE('',#156,#158,#185,.T.);
#124=EDGE_CURVE('',#157,#159,#186,.T.);
#125=EDGE_CURVE('',#159,#158,#187,.T.);
#126=EDGE_CURVE('',#160,#160,#16,.T.);
#127=EDGE_CURVE('',#161,#161,#17,.T.);
#128=EDGE_CURVE('',#162,#162,#18,.T.);
#129=EDGE_CURVE('',#163,#163,#19,.T.);
#130=EDGE_CURVE('',#164,#164,#20,.T.);
#131=EDGE_CURVE('',#165,#165,#21,.T.);
#132=EDGE_CURVE('',#158,#153,#22,.T.);
#133=EDGE_CURVE('',#159,#154,#23,.T.);
#134=EDGE_CURVE('',#166,#166,#24,.T.);
#135=EDGE_CURVE('',#167,#167,#25,.T.);
#136=EDGE_CURVE('',#168,#169,#26,.T.);
#137=EDGE_CURVE('',#170,#169,#188,.T.);
#138=EDGE_CURVE('',#171,#170,#27,.T.);
#139=EDGE_CURVE('',#171,#168,#189,.T.);
#140=EDGE_CURVE('',#169,#172,#190,.T.);
#141=EDGE_CURVE('',#173,#172,#191,.T.);
#142=EDGE_CURVE('',#170,#173,#192,.T.);
#143=EDGE_CURVE('',#172,#174,#28,.T.);
#144=EDGE_CURVE('',#175,#174,#193,.T.);
#145=EDGE_CURVE('',#173,#175,#29,.T.);
#146=EDGE_CURVE('',#176,#176,#30,.T.);
#147=EDGE_CURVE('',#177,#177,#31,.T.);
#148=EDGE_CURVE('',#178,#178,#32,.T.);
#149=EDGE_CURVE('',#179,#179,#33,.T.);
#150=EDGE_CURVE('',#168,#174,#194,.T.);
#151=EDGE_CURVE('',#171,#175,#195,.T.);
#152=VERTEX_POINT('',#473);
#153=VERTEX_POINT('',#474);
#154=VERTEX_POINT('',#476);
#155=VERTEX_POINT('',#478);
#156=VERTEX_POINT('',#482);
#157=VERTEX_POINT('',#484);
#158=VERTEX_POINT('',#488);
#159=VERTEX_POINT('',#490);
#160=VERTEX_POINT('',#494);
#161=VERTEX_POINT('',#496);
#162=VERTEX_POINT('',#499);
#163=VERTEX_POINT('',#501);
#164=VERTEX_POINT('',#504);
#165=VERTEX_POINT('',#506);
#166=VERTEX_POINT('',#512);
#167=VERTEX_POINT('',#514);
#168=VERTEX_POINT('',#520);
#169=VERTEX_POINT('',#521);
#170=VERTEX_POINT('',#523);
#171=VERTEX_POINT('',#525);
#172=VERTEX_POINT('',#529);
#173=VERTEX_POINT('',#531);
#174=VERTEX_POINT('',#535);
#175=VERTEX_POINT('',#537);
#176=VERTEX_POINT('',#541);
#177=VERTEX_POINT('',#543);
#178=VERTEX_POINT('',#546);
#179=VERTEX_POINT('',#548);
#180=LINE('',#472,#196);
#181=LINE('',#475,#197);
#182=LINE('',#477,#198);
#183=LINE('',#479,#199);
#184=LINE('',#485,#200);
#185=LINE('',#487,#201);
#186=LINE('',#489,#202);
#187=LINE('',#491,#203);
#188=LINE('',#522,#204);
#189=LINE('',#526,#205);
#190=LINE('',#528,#206);
#191=LINE('',#530,#207);
#192=LINE('',#532,#208);
#193=LINE('',#536,#209);
#194=LINE('',#550,#210);
#195=LINE('',#551,#211);
#196=VECTOR('',#378,1.);
#197=VECTOR('',#379,1.);
#198=VECTOR('',#380,1.);
#199=VECTOR('',#381,1.);
#200=VECTOR('',#388,1.);
#201=VECTOR('',#391,1.);
#202=VECTOR('',#392,1.);
#203=VECTOR('',#393,1.);
#204=VECTOR('',#434,1.);
#205=VECTOR('',#437,1.);
#206=VECTOR('',#440,1.);
#207=VECTOR('',#441,1.);
#208=VECTOR('',#442,1.);
#209=VECTOR('',#447,1.);
#210=VECTOR('',#464,1.);
#211=VECTOR('',#465,1.);
#212=EDGE_LOOP('',(#44,#45,#46,#47));
#213=EDGE_LOOP('',(#48,#49,#50,#51));
#214=EDGE_LOOP('',(#52,#53,#54,#55));
#215=EDGE_LOOP('',(#56));
#216=EDGE_LOOP('',(#57));
#217=EDGE_LOOP('',(#58));
#218=EDGE_LOOP('',(#59));
#219=EDGE_LOOP('',(#60));
#220=EDGE_LOOP('',(#61));
#221=EDGE_LOOP('',(#62,#63,#64,#65));
#222=EDGE_LOOP('',(#66));
#223=EDGE_LOOP('',(#67));
#224=EDGE_LOOP('',(#68,#69,#70,#71));
#225=EDGE_LOOP('',(#72));
#226=EDGE_LOOP('',(#73));
#227=EDGE_LOOP('',(#74));
#228=EDGE_LOOP('',(#75));
#229=EDGE_LOOP('',(#76,#77,#78,#79));
#230=EDGE_LOOP('',(#80));
#231=EDGE_LOOP('',(#81));
#232=EDGE_LOOP('',(#82));
#233=EDGE_LOOP('',(#83));
#234=EDGE_LOOP('',(#84,#85,#86,#87));
#235=EDGE_LOOP('',(#88,#89,#90,#91));
#236=EDGE_LOOP('',(#92,#93,#94,#95));
#237=EDGE_LOOP('',(#96));
#238=EDGE_LOOP('',(#97));
#239=EDGE_LOOP('',(#98));
#240=EDGE_LOOP('',(#99));
#241=EDGE_LOOP('',(#100,#101,#102,#103));
#242=EDGE_LOOP('',(#104));
#243=EDGE_LOOP('',(#105));
#244=EDGE_LOOP('',(#106,#107,#108,#109));
#245=EDGE_LOOP('',(#110));
#246=EDGE_LOOP('',(#111));
#247=EDGE_LOOP('',(#112,#113,#114,#115));
#248=FACE_BOUND('',#212,.T.);
#249=FACE_BOUND('',#213,.T.);
#250=FACE_BOUND('',#214,.T.);
#251=FACE_BOUND('',#215,.T.);
#252=FACE_BOUND('',#216,.T.);
#253=FACE_BOUND('',#217,.T.);
#254=FACE_BOUND('',#218,.T.);
#255=FACE_BOUND('',#219,.T.);
#256=FACE_BOUND('',#220,.T.);
#257=FACE_BOUND('',#221,.T.);
#258=FACE_BOUND('',#222,.T.);
#259=FACE_BOUND('',#223,.T.);
#260=FACE_BOUND('',#224,.T.);
#261=FACE_BOUND('',#225,.T.);
#262=FACE_BOUND('',#226,.T.);
#263=FACE_BOUND('',#227,.T.);
#264=FACE_BOUND('',#228,.T.);
#265=FACE_BOUND('',#229,.T.);
#266=FACE_BOUND('',#230,.T.);
#267=FACE_BOUND('',#231,.T.);
#268=FACE_BOUND('',#232,.T.);
#269=FACE_BOUND('',#233,.T.);
#270=FACE_BOUND('',#234,.T.);
#271=FACE_BOUND('',#235,.T.);
#272=FACE_BOUND('',#236,.T.);
#273=FACE_BOUND('',#237,.T.);
#274=FACE_BOUND('',#238,.T.);
#275=FACE_BOUND('',#239,.T.);
#276=FACE_BOUND('',#240,.T.);
#277=FACE_BOUND('',#241,.T.);
#278=FACE_BOUND('',#242,.T.);
#279=FACE_BOUND('',#243,.T.);
#280=FACE_BOUND('',#244,.T.);
#281=FACE_BOUND('',#245,.T.);
#282=FACE_BOUND('',#246,.T.);
#283=FACE_BOUND('',#247,.T.);
#284=PLANE('',#335);
#285=PLANE('',#339);
#286=PLANE('',#355);
#287=PLANE('',#356);
#288=PLANE('',#361);
#289=PLANE('',#371);
#290=PLANE('',#372);
#291=PLANE('',#373);
#292=ADVANCED_FACE('',(#248),#284,.F.);
#293=ADVANCED_FACE('',(#249),#34,.T.);
#294=ADVANCED_FACE('',(#250),#285,.T.);
#295=ADVANCED_FACE('',(#251,#252),#35,.F.);
#296=ADVANCED_FACE('',(#253,#254),#36,.F.);
#297=ADVANCED_FACE('',(#255,#256),#37,.F.);
#298=ADVANCED_FACE('',(#257),#38,.T.);
#299=ADVANCED_FACE('',(#258,#259),#39,.F.);
#300=ADVANCED_FACE('',(#260,#261,#262,#263,#264),#286,.F.);
#301=ADVANCED_FACE('',(#265,#266,#267,#268,#269),#287,.T.);
#302=ADVANCED_FACE('',(#270),#40,.T.);
#303=ADVANCED_FACE('',(#271),#288,.F.);
#304=ADVANCED_FACE('',(#272),#41,.T.);
#305=ADVANCED_FACE('',(#273,#274),#42,.F.);
#306=ADVANCED_FACE('',(#275,#276),#43,.F.);
#307=ADVANCED_FACE('',(#277),#289,.T.);
#308=ADVANCED_FACE('',(#278,#279,#280),#290,.T.);
#309=ADVANCED_FACE('',(#281,#282,#283),#291,.F.);
#310=CLOSED_SHELL('',(#292,#293,#294,#295,#296,#297,#298,#299,#300,#301));
#311=CLOSED_SHELL('',(#302,#303,#304,#305,#306,#307,#308,#309));
#312=STYLED_ITEM('',(#314),#328);
#313=STYLED_ITEM('',(#315),#329);
#314=PRESENTATION_STYLE_ASSIGNMENT((#316));
#315=PRESENTATION_STYLE_ASSIGNMENT((#317));
#316=SURFACE_STYLE_USAGE(.BOTH.,#318);
#317=SURFACE_STYLE_USAGE(.BOTH.,#319);
#318=SURFACE_SIDE_STYLE('',(#320));
#319=SURFACE_SIDE_STYLE('',(#321));
#320=SURFACE_STYLE_FILL_AREA(#322);
#321=SURFACE_STYLE_FILL_AREA(#323);
#322=FILL_AREA_STYLE('',(#324));
#323=FILL_AREA_STYLE('',(#325));
#324=FILL_AREA_STYLE_COLOUR('',#326);
#325=FILL_AREA_STYLE_COLOUR('',#327);
#326=COLOUR_RGB('',0.231372549019608,0.380392156862745,0.705882352941177);
#327=COLOUR_RGB('',0.972549019607843,0.529411764705882,0.00392156862745098);
#328=MANIFOLD_SOLID_BREP('Part 7',#310);
#329=MANIFOLD_SOLID_BREP('Part 5',#311);
#330=SHAPE_DEFINITION_REPRESENTATION(#566,#332);
#331=SHAPE_DEFINITION_REPRESENTATION(#567,#333);
#332=SHAPE_REPRESENTATION('Part 7',(#334),#556);
#333=SHAPE_REPRESENTATION('Part 5',(#357),#557);
#334=AXIS2_PLACEMENT_3D('',#470,#374,#375);
#335=AXIS2_PLACEMENT_3D('',#471,#376,#377);
#336=AXIS2_PLACEMENT_3D('',#480,#382,#383);
#337=AXIS2_PLACEMENT_3D('',#481,#384,#385);
#338=AXIS2_PLACEMENT_3D('',#483,#386,#387);
#339=AXIS2_PLACEMENT_3D('',#486,#389,#390);
#340=AXIS2_PLACEMENT_3D('',#492,#394,#395);
#341=AXIS2_PLACEMENT_3D('',#493,#396,#397);
#342=AXIS2_PLACEMENT_3D('',#495,#398,#399);
#343=AXIS2_PLACEMENT_3D('',#497,#400,#401);
#344=AXIS2_PLACEMENT_3D('',#498,#402,#403);
#345=AXIS2_PLACEMENT_3D('',#500,#404,#405);
#346=AXIS2_PLACEMENT_3D('',#502,#406,#407);
#347=AXIS2_PLACEMENT_3D('',#503,#408,#409);
#348=AXIS2_PLACEMENT_3D('',#505,#410,#411);
#349=AXIS2_PLACEMENT_3D('',#507,#412,#413);
#350=AXIS2_PLACEMENT_3D('',#508,#414,#415);
#351=AXIS2_PLACEMENT_3D('',#509,#416,#417);
#352=AXIS2_PLACEMENT_3D('',#510,#418,#419);
#353=AXIS2_PLACEMENT_3D('',#511,#420,#421);
#354=AXIS2_PLACEMENT_3D('',#513,#422,#423);
#355=AXIS2_PLACEMENT_3D('',#515,#424,#425);
#356=AXIS2_PLACEMENT_3D('',#516,#426,#427);
#357=AXIS2_PLACEMENT_3D('',#517,#428,#429);
#358=AXIS2_PLACEMENT_3D('',#518,#430,#431);
#359=AXIS2_PLACEMENT_3D('',#519,#432,#433);
#360=AXIS2_PLACEMENT_3D('',#524,#435,#436);
#361=AXIS2_PLACEMENT_3D('',#527,#438,#439);
#362=AXIS2_PLACEMENT_3D('',#533,#443,#444);
#363=AXIS2_PLACEMENT_3D('',#534,#445,#446);
#364=AXIS2_PLACEMENT_3D('',#538,#448,#449);
#365=AXIS2_PLACEMENT_3D('',#539,#450,#451);
#366=AXIS2_PLACEMENT_3D('',#540,#452,#453);
#367=AXIS2_PLACEMENT_3D('',#542,#454,#455);
#368=AXIS2_PLACEMENT_3D('',#544,#456,#457);
#369=AXIS2_PLACEMENT_3D('',#545,#458,#459);
#370=AXIS2_PLACEMENT_3D('',#547,#460,#461);
#371=AXIS2_PLACEMENT_3D('',#549,#462,#463);
#372=AXIS2_PLACEMENT_3D('',#552,#466,#467);
#373=AXIS2_PLACEMENT_3D('',#553,#468,#469);
#374=DIRECTION('',(0.,0.,1.));
#375=DIRECTION('',(1.,0.,0.));
#376=DIRECTION('',(0.,1.,0.));
#377=DIRECTION('',(0.,0.,1.));
#378=DIRECTION('',(-1.,0.,0.));
#379=DIRECTION('',(0.,0.,1.));
#380=DIRECTION('',(-1.,0.,0.));
#381=DIRECTION('',(0.,0.,1.));
#382=DIRECTION('',(0.,0.,1.));
#383=DIRECTION('',(1.,0.,0.));
#384=DIRECTION('',(0.,0.,1.));
#385=DIRECTION('',(1.,0.,0.));
#386=DIRECTION('',(0.,0.,1.));
#387=DIRECTION('',(1.,0.,0.));
#388=DIRECTION('',(0.,0.,1.));
#389=DIRECTION('',(0.,1.,0.));
#390=DIRECTION('',(0.,0.,1.));
#391=DIRECTION('',(-1.,0.,0.));
#392=DIRECTION('',(-1.,0.,0.));
#393=DIRECTION('',(0.,0.,1.));
#394=DIRECTION('',(0.,0.,1.));
#395=DIRECTION('',(1.,0.,0.));
#396=DIRECTION('',(0.,0.,1.));
#397=DIRECTION('',(1.,0.,0.));
#398=DIRECTION('',(0.,0.,1.));
#399=DIRECTION('',(1.,0.,0.));
#400=DIRECTION('',(0.,0.,1.));
#401=DIRECTION('',(1.,0.,0.));
#402=DIRECTION('',(0.,0.,1.));
#403=DIRECTION('',(1.,0.,0.));
#404=DIRECTION('',(0.,0.,1.));
#405=DIRECTION('',(1.,0.,0.));
#406=DIRECTION('',(0.,0.,1.));
#407=DIRECTION('',(1.,0.,0.));
#408=DIRECTION('',(0.,0.,1.));
#409=DIRECTION('',(1.,0.,0.));
#410=DIRECTION('',(0.,0.,1.));
#411=DIRECTION('',(1.,0.,0.));
#412=DIRECTION('',(0.,0.,1.));
#413=DIRECTION('',(1.,0.,0.));
#414=DIRECTION('',(0.,0.,1.));
#415=DIRECTION('',(1.,0.,0.));
#416=DIRECTION('',(0.,0.,1.));
#417=DIRECTION('',(1.,0.,0.));
#418=DIRECTION('',(0.,0.,1.));
#419=DIRECTION('',(1.,0.,0.));
#420=DIRECTION('',(0.,0.,1.));
#421=DIRECTION('',(1.,0.,0.));
#422=DIRECTION('',(0.,0.,1.));
#423=DIRECTION('',(1.,0.,0.));
#424=DIRECTION('',(0.,0.,1.));
#425=DIRECTION('',(1.,0.,0.));
#426=DIRECTION('',(0.,0.,1.));
#427=DIRECTION('',(1.,0.,0.));
#428=DIRECTION('',(0.,0.,1.));
#429=DIRECTION('',(1.,0.,0.));
#430=DIRECTION('',(0.,0.,-1.));
#431=DIRECTION('',(-1.,0.,0.));
#432=DIRECTION('',(0.,0.,1.));
#433=DIRECTION('',(1.,0.,0.));
#434=DIRECTION('',(0.,0.,-1.));
#435=DIRECTION('',(0.,0.,1.));
#436=DIRECTION('',(1.,0.,0.));
#437=DIRECTION('',(0.,0.,-1.));
#438=DIRECTION('',(0.,1.,0.));
#439=DIRECTION('',(0.,0.,1.));
#440=DIRECTION('',(1.,0.,0.));
#441=DIRECTION('',(0.,0.,-1.));
#442=DIRECTION('',(1.,0.,0.));
#443=DIRECTION('',(0.,0.,-1.));
#444=DIRECTION('',(-1.,0.,0.));
#445=DIRECTION('',(0.,0.,1.));
#446=DIRECTION('',(1.,0.,0.));
#447=DIRECTION('',(0.,0.,-1.));
#448=DIRECTION('',(0.,0.,1.));
#449=DIRECTION('',(1.,0.,0.));
#450=DIRECTION('',(0.,0.,-1.));
#451=DIRECTION('',(-1.,0.,0.));
#452=DIRECTION('',(0.,0.,1.));
#453=DIRECTION('',(1.,0.,0.));
#454=DIRECTION('',(0.,0.,1.));
#455=DIRECTION('',(1.,0.,0.));
#456=DIRECTION('',(0.,0.,-1.));
#457=DIRECTION('',(-1.,0.,0.));
#458=DIRECTION('',(0.,0.,1.));
#459=DIRECTION('',(1.,0.,0.));
#460=DIRECTION('',(0.,0.,1.));
#461=DIRECTION('',(1.,0.,0.));
#462=DIRECTION('',(0.,1.,0.));
#463=DIRECTION('',(0.,0.,1.));
#464=DIRECTION('',(1.,0.,0.));
#465=DIRECTION('',(1.,0.,0.));
#466=DIRECTION('',(0.,0.,1.));
#467=DIRECTION('',(1.,0.,0.));
#468=DIRECTION('',(0.,0.,1.));
#469=DIRECTION('',(1.,0.,0.));
#470=CARTESIAN_POINT('',(0.,0.,0.));
#471=CARTESIAN_POINT('',(-0.0873125,-0.00369443674571812,-0.004699));
#472=CARTESIAN_POINT('',(-0.0873125,-0.00369443674571812,-0.001524));
#473=CARTESIAN_POINT('',(-0.06985,-0.00369443674571812,-0.001524));
#474=CARTESIAN_POINT('',(-0.104775,-0.00369443674571814,-0.001524));
#475=CARTESIAN_POINT('',(-0.104775,-0.00369443674571814,-0.004699));
#476=CARTESIAN_POINT('',(-0.104775,-0.00369443674571814,-0.004699));
#477=CARTESIAN_POINT('',(-0.0873125,-0.00369443674571812,-0.004699));
#478=CARTESIAN_POINT('',(-0.06985,-0.00369443674571812,-0.004699));
#479=CARTESIAN_POINT('',(-0.06985,-0.00369443674571812,-0.004699));
#480=CARTESIAN_POINT('',(-0.06985,-2.15347190899104E-18,-0.004699));
#481=CARTESIAN_POINT('',(-0.06985,-2.15347190899104E-18,-0.001524));
#482=CARTESIAN_POINT('',(-0.06985,0.00369443674571812,-0.001524));
#483=CARTESIAN_POINT('',(-0.06985,-2.15347190899104E-18,-0.004699));
#484=CARTESIAN_POINT('',(-0.06985,0.00369443674571812,-0.004699));
#485=CARTESIAN_POINT('',(-0.06985,0.00369443674571812,-0.004699));
#486=CARTESIAN_POINT('',(-0.0873125,0.00369443674571812,-0.004699));
#487=CARTESIAN_POINT('',(-0.0873125,0.00369443674571812,-0.001524));
#488=CARTESIAN_POINT('',(-0.104775,0.00369443674571812,-0.001524));
#489=CARTESIAN_POINT('',(-0.0873125,0.00369443674571812,-0.004699));
#490=CARTESIAN_POINT('',(-0.104775,0.00369443674571812,-0.004699));
#491=CARTESIAN_POINT('',(-0.104775,0.00369443674571812,-0.004699));
#492=CARTESIAN_POINT('',(-0.0895604,-7.6690249401405E-18,-0.004699));
#493=CARTESIAN_POINT('',(-0.0895604,-7.6690249401405E-18,-0.004699));
#494=CARTESIAN_POINT('',(-0.0886714,-7.6690249401405E-18,-0.004699));
#495=CARTESIAN_POINT('',(-0.0895604,-7.6690249401405E-18,-0.001524));
#496=CARTESIAN_POINT('',(-0.0886714,-7.6690249401405E-18,-0.001524));
#497=CARTESIAN_POINT('',(-0.0978281,-7.58131193176296E-18,-0.004699));
#498=CARTESIAN_POINT('',(-0.0978281,-7.58131193176296E-18,-0.004699));
#499=CARTESIAN_POINT('',(-0.0969391,-7.58131193176296E-18,-0.004699));
#500=CARTESIAN_POINT('',(-0.0978281,-7.58131193176296E-18,-0.001524));
#501=CARTESIAN_POINT('',(-0.0969391,-7.58131193176296E-18,-0.001524));
#502=CARTESIAN_POINT('',(-0.104775,-1.23599047663347E-17,-0.004699));
#503=CARTESIAN_POINT('',(-0.104775,-1.23599047663347E-17,-0.004699));
#504=CARTESIAN_POINT('',(-0.10287,-1.23599047663347E-17,-0.004699));
#505=CARTESIAN_POINT('',(-0.104775,-1.23599047663347E-17,-0.001524));
#506=CARTESIAN_POINT('',(-0.10287,-1.23599047663347E-17,-0.001524));
#507=CARTESIAN_POINT('',(-0.104775,-1.21430643318376E-17,-0.004699));
#508=CARTESIAN_POINT('',(-0.104775,-1.21430643318376E-17,-0.001524));
#509=CARTESIAN_POINT('',(-0.104775,-1.21430643318376E-17,-0.004699));
#510=CARTESIAN_POINT('',(-0.06985,-2.02189186539228E-18,-0.004699));
#511=CARTESIAN_POINT('',(-0.06985,-2.02189186539228E-18,-0.004699));
#512=CARTESIAN_POINT('',(-0.067945,-2.02189186539228E-18,-0.004699));
#513=CARTESIAN_POINT('',(-0.06985,-2.02189186539228E-18,-0.001524));
#514=CARTESIAN_POINT('',(-0.067945,-2.02189186539228E-18,-0.001524));
#515=CARTESIAN_POINT('',(-0.0542347183728591,0.0404814973240718,-0.004699));
#516=CARTESIAN_POINT('',(-0.0542347183728591,0.0404814973240718,-0.001524));
#517=CARTESIAN_POINT('',(0.,0.,0.));
#518=CARTESIAN_POINT('',(-0.0688401982188225,0.0665743872523308,0.003175));
#519=CARTESIAN_POINT('',(-0.0688401982188225,0.0665743872523308,0.));
#520=CARTESIAN_POINT('',(-0.0688401982188225,0.0702573872523308,0.));
#521=CARTESIAN_POINT('',(-0.0688401982188225,0.0628913872523308,0.));
#522=CARTESIAN_POINT('',(-0.0688401982188225,0.0628913872523308,0.003175));
#523=CARTESIAN_POINT('',(-0.0688401982188225,0.0628913872523308,0.003175));
#524=CARTESIAN_POINT('',(-0.0688401982188225,0.0665743872523308,0.003175));
#525=CARTESIAN_POINT('',(-0.0688401982188225,0.0702573872523308,0.003175));
#526=CARTESIAN_POINT('',(-0.0688401982188225,0.0702573872523308,0.003175));
#527=CARTESIAN_POINT('',(-0.0513776982188225,0.0628913872523308,0.003175));
#528=CARTESIAN_POINT('',(-0.0513776982188225,0.0628913872523308,0.));
#529=CARTESIAN_POINT('',(-0.0339151982188225,0.0628913872523308,0.));
#530=CARTESIAN_POINT('',(-0.0339151982188225,0.0628913872523308,0.003175));
#531=CARTESIAN_POINT('',(-0.0339151982188225,0.0628913872523308,0.003175));
#532=CARTESIAN_POINT('',(-0.0513776982188225,0.0628913872523308,0.003175));
#533=CARTESIAN_POINT('',(-0.0339151982188225,0.0665743872523308,0.003175));
#534=CARTESIAN_POINT('',(-0.0339151982188225,0.0665743872523308,0.));
#535=CARTESIAN_POINT('',(-0.0339151982188225,0.0702573872523308,0.));
#536=CARTESIAN_POINT('',(-0.0339151982188225,0.0702573872523308,0.003175));
#537=CARTESIAN_POINT('',(-0.0339151982188225,0.0702573872523308,0.003175));
#538=CARTESIAN_POINT('',(-0.0339151982188225,0.0665743872523308,0.003175));
#539=CARTESIAN_POINT('',(-0.0688401982188225,0.0665743872523308,0.003175));
#540=CARTESIAN_POINT('',(-0.0688401982188225,0.0665743872523308,0.003175));
#541=CARTESIAN_POINT('',(-0.0669351982188225,0.0665743872523308,0.003175));
#542=CARTESIAN_POINT('',(-0.0688401982188225,0.0665743872523308,0.));
#543=CARTESIAN_POINT('',(-0.0669351982188225,0.0665743872523308,0.));
#544=CARTESIAN_POINT('',(-0.0339151982188225,0.0665743872523308,0.003175));
#545=CARTESIAN_POINT('',(-0.0339151982188225,0.0665743872523308,0.003175));
#546=CARTESIAN_POINT('',(-0.0320101982188225,0.0665743872523308,0.003175));
#547=CARTESIAN_POINT('',(-0.0339151982188225,0.0665743872523308,0.));
#548=CARTESIAN_POINT('',(-0.0320101982188225,0.0665743872523308,0.));
#549=CARTESIAN_POINT('',(-0.0513776982188225,0.0702573872523308,0.003175));
#550=CARTESIAN_POINT('',(-0.0513776982188225,0.0702573872523308,0.));
#551=CARTESIAN_POINT('',(-0.0513776982188225,0.0702573872523308,0.003175));
#552=CARTESIAN_POINT('',(-0.0513776982188225,0.0665743872523308,0.003175));
#553=CARTESIAN_POINT('',(-0.0513776982188225,0.0665743872523308,0.));
#554=MECHANICAL_DESIGN_GEOMETRIC_PRESENTATION_REPRESENTATION('',(#312),
#556);
#555=MECHANICAL_DESIGN_GEOMETRIC_PRESENTATION_REPRESENTATION('',(#313),
#557);
#556=(
GEOMETRIC_REPRESENTATION_CONTEXT(3)
GLOBAL_UNCERTAINTY_ASSIGNED_CONTEXT((#558))
GLOBAL_UNIT_ASSIGNED_CONTEXT((#564,#562,#560))
REPRESENTATION_CONTEXT('Part 7','TOP_LEVEL_ASSEMBLY_PART')
);
#557=(
GEOMETRIC_REPRESENTATION_CONTEXT(3)
GLOBAL_UNCERTAINTY_ASSIGNED_CONTEXT((#559))
GLOBAL_UNIT_ASSIGNED_CONTEXT((#565,#563,#561))
REPRESENTATION_CONTEXT('Part 5','TOP_LEVEL_ASSEMBLY_PART')
);
#558=UNCERTAINTY_MEASURE_WITH_UNIT(LENGTH_MEASURE(1.E-8),#564,
'DISTANCE_ACCURACY_VALUE','Maximum Tolerance applied to model');
#559=UNCERTAINTY_MEASURE_WITH_UNIT(LENGTH_MEASURE(1.E-8),#565,
'DISTANCE_ACCURACY_VALUE','Maximum Tolerance applied to model');
#560=(
NAMED_UNIT(*)
SI_UNIT($,.STERADIAN.)
SOLID_ANGLE_UNIT()
);
#561=(
NAMED_UNIT(*)
SI_UNIT($,.STERADIAN.)
SOLID_ANGLE_UNIT()
);
#562=(
NAMED_UNIT(*)
PLANE_ANGLE_UNIT()
SI_UNIT($,.RADIAN.)
);
#563=(
NAMED_UNIT(*)
PLANE_ANGLE_UNIT()
SI_UNIT($,.RADIAN.)
);
#564=(
LENGTH_UNIT()
NAMED_UNIT(*)
SI_UNIT($,.METRE.)
);
#565=(
LENGTH_UNIT()
NAMED_UNIT(*)
SI_UNIT($,.METRE.)
);
#566=PRODUCT_DEFINITION_SHAPE('','',#568);
#567=PRODUCT_DEFINITION_SHAPE('','',#569);
#568=PRODUCT_DEFINITION('','',#572,#570);
#569=PRODUCT_DEFINITION('','',#573,#571);
#570=PRODUCT_DEFINITION_CONTEXT('',#584,'design');
#571=PRODUCT_DEFINITION_CONTEXT('',#585,'design');
#572=PRODUCT_DEFINITION_FORMATION_WITH_SPECIFIED_SOURCE('','',#576,
 .NOT_KNOWN.);
#573=PRODUCT_DEFINITION_FORMATION_WITH_SPECIFIED_SOURCE('','',#577,
 .NOT_KNOWN.);
#574=PRODUCT_RELATED_PRODUCT_CATEGORY('','',(#576));
#575=PRODUCT_RELATED_PRODUCT_CATEGORY('','',(#577));
#576=PRODUCT('Part 7','Part 7','Part 7',(#580));
#577=PRODUCT('Part 5','Part 5','Part 5',(#581));
#578=PRODUCT_CATEGORY('','');
#579=PRODUCT_CATEGORY('','');
#580=PRODUCT_CONTEXT('',#584,'mechanical');
#581=PRODUCT_CONTEXT('',#585,'mechanical');
#582=APPLICATION_PROTOCOL_DEFINITION('international standard',
'ap242_managed_model_based_3d_engineering',2020,#584);
#583=APPLICATION_PROTOCOL_DEFINITION('international standard',
'ap242_managed_model_based_3d_engineering',2020,#585);
#584=APPLICATION_CONTEXT('managed model based 3d engineering');
#585=APPLICATION_CONTEXT('managed model based 3d engineering');
ENDSEC;
END-ISO-10303-21;
