ISO-10303-21;
HEADER;
/* Generated by software containing ST-Developer
 * from STEP Tools, Inc. (www.steptools.com) 
 */
/* OPTION: using custom renumber hook */

FILE_DESCRIPTION(
/* description */ ('STEP AP242 Edition 2',
'CAx-IF Rec.Pracs.---Representation and Presentation of Product Manufa
cturing Information (PMI)---4.0---2014-10-13',
'CAx-IF Rec.Pracs.---3D Tessellated Geometry---0.4---2014-09-14','2;1',
'CAx-IF Rec.Pracs.---User Defined Attributes---1.5---2016-08-15'),
/* implementation_level */ '2;1');

FILE_NAME(
/* name */ 'Part Studio 2',
/* time_stamp */ '2026-05-18T07:17:40Z',
/* author */ (''),
/* organization */ (''),
/* preprocessor_version */ 'ST-DEVELOPER v20',
/* originating_system */ 'ONSHAPE BY PTC INC, 1.215',
/* authorisation */ '  ');

FILE_SCHEMA (('AP242_MANAGED_MODEL_BASED_3D_ENGINEERING_MIM_LF { 1 0 10303 442 3 1 4 }'));
ENDSEC;

DATA;
#10=SHAPE_REPRESENTATION_RELATIONSHIP('','',#332,#12);
#11=SHAPE_REPRESENTATION_RELATIONSHIP('','',#333,#13);
#12=ADVANCED_BREP_SHAPE_REPRESENTATION('',(#328),#556);
#13=ADVANCED_BREP_SHAPE_REPRESENTATION('',(#329),#557);
#14=PLANE('',#338);
#15=PLANE('',#348);
#16=PLANE('',#349);
#17=PLANE('',#350);
#18=PLANE('',#352);
#19=PLANE('',#356);
#20=PLANE('',#372);
#21=PLANE('',#373);
#22=LINE('',#475,#38);
#23=LINE('',#479,#39);
#24=LINE('',#481,#40);
#25=LINE('',#483,#41);
#26=LINE('',#485,#42);
#27=LINE('',#489,#43);
#28=LINE('',#503,#44);
#29=LINE('',#504,#45);
#30=LINE('',#509,#46);
#31=LINE('',#512,#47);
#32=LINE('',#514,#48);
#33=LINE('',#516,#49);
#34=LINE('',#522,#50);
#35=LINE('',#524,#51);
#36=LINE('',#526,#52);
#37=LINE('',#528,#53);
#38=VECTOR('',#380,1.);
#39=VECTOR('',#383,1.);
#40=VECTOR('',#386,1.);
#41=VECTOR('',#387,1.);
#42=VECTOR('',#388,1.);
#43=VECTOR('',#393,1.);
#44=VECTOR('',#410,1.);
#45=VECTOR('',#411,1.);
#46=VECTOR('',#420,1.);
#47=VECTOR('',#421,1.);
#48=VECTOR('',#422,1.);
#49=VECTOR('',#423,1.);
#50=VECTOR('',#430,1.);
#51=VECTOR('',#433,1.);
#52=VECTOR('',#434,1.);
#53=VECTOR('',#435,1.);
#54=ORIENTED_EDGE('',*,*,#126,.T.);
#55=ORIENTED_EDGE('',*,*,#127,.F.);
#56=ORIENTED_EDGE('',*,*,#128,.F.);
#57=ORIENTED_EDGE('',*,*,#129,.T.);
#58=ORIENTED_EDGE('',*,*,#130,.T.);
#59=ORIENTED_EDGE('',*,*,#131,.F.);
#60=ORIENTED_EDGE('',*,*,#132,.F.);
#61=ORIENTED_EDGE('',*,*,#127,.T.);
#62=ORIENTED_EDGE('',*,*,#133,.T.);
#63=ORIENTED_EDGE('',*,*,#134,.F.);
#64=ORIENTED_EDGE('',*,*,#135,.F.);
#65=ORIENTED_EDGE('',*,*,#131,.T.);
#66=ORIENTED_EDGE('',*,*,#136,.T.);
#67=ORIENTED_EDGE('',*,*,#137,.F.);
#68=ORIENTED_EDGE('',*,*,#138,.T.);
#69=ORIENTED_EDGE('',*,*,#139,.F.);
#70=ORIENTED_EDGE('',*,*,#140,.F.);
#71=ORIENTED_EDGE('',*,*,#129,.F.);
#72=ORIENTED_EDGE('',*,*,#141,.T.);
#73=ORIENTED_EDGE('',*,*,#134,.T.);
#74=ORIENTED_EDGE('',*,*,#138,.F.);
#75=ORIENTED_EDGE('',*,*,#136,.F.);
#76=ORIENTED_EDGE('',*,*,#128,.T.);
#77=ORIENTED_EDGE('',*,*,#132,.T.);
#78=ORIENTED_EDGE('',*,*,#135,.T.);
#79=ORIENTED_EDGE('',*,*,#141,.F.);
#80=ORIENTED_EDGE('',*,*,#139,.T.);
#81=ORIENTED_EDGE('',*,*,#137,.T.);
#82=ORIENTED_EDGE('',*,*,#126,.F.);
#83=ORIENTED_EDGE('',*,*,#140,.T.);
#84=ORIENTED_EDGE('',*,*,#133,.F.);
#85=ORIENTED_EDGE('',*,*,#130,.F.);
#86=ORIENTED_EDGE('',*,*,#142,.T.);
#87=ORIENTED_EDGE('',*,*,#143,.F.);
#88=ORIENTED_EDGE('',*,*,#144,.F.);
#89=ORIENTED_EDGE('',*,*,#145,.T.);
#90=ORIENTED_EDGE('',*,*,#146,.F.);
#91=ORIENTED_EDGE('',*,*,#145,.F.);
#92=ORIENTED_EDGE('',*,*,#147,.T.);
#93=ORIENTED_EDGE('',*,*,#148,.T.);
#94=ORIENTED_EDGE('',*,*,#149,.F.);
#95=ORIENTED_EDGE('',*,*,#148,.F.);
#96=ORIENTED_EDGE('',*,*,#150,.T.);
#97=ORIENTED_EDGE('',*,*,#151,.T.);
#98=ORIENTED_EDGE('',*,*,#152,.F.);
#99=ORIENTED_EDGE('',*,*,#153,.T.);
#100=ORIENTED_EDGE('',*,*,#154,.F.);
#101=ORIENTED_EDGE('',*,*,#155,.T.);
#102=ORIENTED_EDGE('',*,*,#156,.F.);
#103=ORIENTED_EDGE('',*,*,#157,.T.);
#104=ORIENTED_EDGE('',*,*,#158,.F.);
#105=ORIENTED_EDGE('',*,*,#151,.F.);
#106=ORIENTED_EDGE('',*,*,#159,.T.);
#107=ORIENTED_EDGE('',*,*,#143,.T.);
#108=ORIENTED_EDGE('',*,*,#160,.F.);
#109=ORIENTED_EDGE('',*,*,#161,.T.);
#110=ORIENTED_EDGE('',*,*,#144,.T.);
#111=ORIENTED_EDGE('',*,*,#159,.F.);
#112=ORIENTED_EDGE('',*,*,#150,.F.);
#113=ORIENTED_EDGE('',*,*,#147,.F.);
#114=ORIENTED_EDGE('',*,*,#156,.T.);
#115=ORIENTED_EDGE('',*,*,#154,.T.);
#116=ORIENTED_EDGE('',*,*,#152,.T.);
#117=ORIENTED_EDGE('',*,*,#160,.T.);
#118=ORIENTED_EDGE('',*,*,#142,.F.);
#119=ORIENTED_EDGE('',*,*,#146,.T.);
#120=ORIENTED_EDGE('',*,*,#149,.T.);
#121=ORIENTED_EDGE('',*,*,#158,.T.);
#122=ORIENTED_EDGE('',*,*,#157,.F.);
#123=ORIENTED_EDGE('',*,*,#155,.F.);
#124=ORIENTED_EDGE('',*,*,#153,.F.);
#125=ORIENTED_EDGE('',*,*,#161,.F.);
#126=EDGE_CURVE('',#162,#163,#190,.T.);
#127=EDGE_CURVE('',#164,#163,#22,.T.);
#128=EDGE_CURVE('',#165,#164,#191,.T.);
#129=EDGE_CURVE('',#165,#162,#23,.T.);
#130=EDGE_CURVE('',#163,#166,#24,.T.);
#131=EDGE_CURVE('',#167,#166,#25,.T.);
#132=EDGE_CURVE('',#164,#167,#26,.T.);
#133=EDGE_CURVE('',#166,#168,#192,.T.);
#134=EDGE_CURVE('',#169,#168,#27,.T.);
#135=EDGE_CURVE('',#167,#169,#193,.T.);
#136=EDGE_CURVE('',#170,#170,#194,.T.);
#137=EDGE_CURVE('',#171,#171,#195,.T.);
#138=EDGE_CURVE('',#172,#172,#196,.T.);
#139=EDGE_CURVE('',#173,#173,#197,.T.);
#140=EDGE_CURVE('',#162,#168,#28,.T.);
#141=EDGE_CURVE('',#165,#169,#29,.T.);
#142=EDGE_CURVE('',#174,#175,#30,.T.);
#143=EDGE_CURVE('',#176,#175,#31,.T.);
#144=EDGE_CURVE('',#177,#176,#32,.T.);
#145=EDGE_CURVE('',#177,#174,#33,.T.);
#146=EDGE_CURVE('',#174,#178,#198,.T.);
#147=EDGE_CURVE('',#177,#179,#199,.T.);
#148=EDGE_CURVE('',#179,#178,#34,.T.);
#149=EDGE_CURVE('',#178,#180,#35,.T.);
#150=EDGE_CURVE('',#179,#181,#36,.T.);
#151=EDGE_CURVE('',#181,#180,#37,.T.);
#152=EDGE_CURVE('',#182,#182,#200,.T.);
#153=EDGE_CURVE('',#183,#183,#201,.T.);
#154=EDGE_CURVE('',#184,#184,#202,.T.);
#155=EDGE_CURVE('',#185,#185,#203,.T.);
#156=EDGE_CURVE('',#186,#186,#204,.T.);
#157=EDGE_CURVE('',#187,#187,#205,.T.);
#158=EDGE_CURVE('',#180,#175,#206,.T.);
#159=EDGE_CURVE('',#181,#176,#207,.T.);
#160=EDGE_CURVE('',#188,#188,#208,.T.);
#161=EDGE_CURVE('',#189,#189,#209,.T.);
#162=VERTEX_POINT('',#473);
#163=VERTEX_POINT('',#474);
#164=VERTEX_POINT('',#476);
#165=VERTEX_POINT('',#478);
#166=VERTEX_POINT('',#482);
#167=VERTEX_POINT('',#484);
#168=VERTEX_POINT('',#488);
#169=VERTEX_POINT('',#490);
#170=VERTEX_POINT('',#494);
#171=VERTEX_POINT('',#496);
#172=VERTEX_POINT('',#499);
#173=VERTEX_POINT('',#501);
#174=VERTEX_POINT('',#510);
#175=VERTEX_POINT('',#511);
#176=VERTEX_POINT('',#513);
#177=VERTEX_POINT('',#515);
#178=VERTEX_POINT('',#519);
#179=VERTEX_POINT('',#521);
#180=VERTEX_POINT('',#525);
#181=VERTEX_POINT('',#527);
#182=VERTEX_POINT('',#531);
#183=VERTEX_POINT('',#533);
#184=VERTEX_POINT('',#536);
#185=VERTEX_POINT('',#538);
#186=VERTEX_POINT('',#541);
#187=VERTEX_POINT('',#543);
#188=VERTEX_POINT('',#549);
#189=VERTEX_POINT('',#551);
#190=CIRCLE('',#336,0.003683);
#191=CIRCLE('',#337,0.003683);
#192=CIRCLE('',#340,0.003683);
#193=CIRCLE('',#341,0.003683);
#194=CIRCLE('',#343,0.001905);
#195=CIRCLE('',#344,0.001905);
#196=CIRCLE('',#346,0.001905);
#197=CIRCLE('',#347,0.001905);
#198=CIRCLE('',#354,0.00369443674571812);
#199=CIRCLE('',#355,0.00369443674571812);
#200=CIRCLE('',#358,0.000889);
#201=CIRCLE('',#359,0.000889);
#202=CIRCLE('',#361,0.000889);
#203=CIRCLE('',#362,0.000889);
#204=CIRCLE('',#364,0.001905);
#205=CIRCLE('',#365,0.001905);
#206=CIRCLE('',#367,0.00369443674571813);
#207=CIRCLE('',#368,0.00369443674571813);
#208=CIRCLE('',#370,0.001905);
#209=CIRCLE('',#371,0.001905);
#210=EDGE_LOOP('',(#54,#55,#56,#57));
#211=EDGE_LOOP('',(#58,#59,#60,#61));
#212=EDGE_LOOP('',(#62,#63,#64,#65));
#213=EDGE_LOOP('',(#66));
#214=EDGE_LOOP('',(#67));
#215=EDGE_LOOP('',(#68));
#216=EDGE_LOOP('',(#69));
#217=EDGE_LOOP('',(#70,#71,#72,#73));
#218=EDGE_LOOP('',(#74));
#219=EDGE_LOOP('',(#75));
#220=EDGE_LOOP('',(#76,#77,#78,#79));
#221=EDGE_LOOP('',(#80));
#222=EDGE_LOOP('',(#81));
#223=EDGE_LOOP('',(#82,#83,#84,#85));
#224=EDGE_LOOP('',(#86,#87,#88,#89));
#225=EDGE_LOOP('',(#90,#91,#92,#93));
#226=EDGE_LOOP('',(#94,#95,#96,#97));
#227=EDGE_LOOP('',(#98));
#228=EDGE_LOOP('',(#99));
#229=EDGE_LOOP('',(#100));
#230=EDGE_LOOP('',(#101));
#231=EDGE_LOOP('',(#102));
#232=EDGE_LOOP('',(#103));
#233=EDGE_LOOP('',(#104,#105,#106,#107));
#234=EDGE_LOOP('',(#108));
#235=EDGE_LOOP('',(#109));
#236=EDGE_LOOP('',(#110,#111,#112,#113));
#237=EDGE_LOOP('',(#114));
#238=EDGE_LOOP('',(#115));
#239=EDGE_LOOP('',(#116));
#240=EDGE_LOOP('',(#117));
#241=EDGE_LOOP('',(#118,#119,#120,#121));
#242=EDGE_LOOP('',(#122));
#243=EDGE_LOOP('',(#123));
#244=EDGE_LOOP('',(#124));
#245=EDGE_LOOP('',(#125));
#246=FACE_BOUND('',#210,.T.);
#247=FACE_BOUND('',#211,.T.);
#248=FACE_BOUND('',#212,.T.);
#249=FACE_BOUND('',#213,.T.);
#250=FACE_BOUND('',#214,.T.);
#251=FACE_BOUND('',#215,.T.);
#252=FACE_BOUND('',#216,.T.);
#253=FACE_BOUND('',#217,.T.);
#254=FACE_BOUND('',#218,.T.);
#255=FACE_BOUND('',#219,.T.);
#256=FACE_BOUND('',#220,.T.);
#257=FACE_BOUND('',#221,.T.);
#258=FACE_BOUND('',#222,.T.);
#259=FACE_BOUND('',#223,.T.);
#260=FACE_BOUND('',#224,.T.);
#261=FACE_BOUND('',#225,.T.);
#262=FACE_BOUND('',#226,.T.);
#263=FACE_BOUND('',#227,.T.);
#264=FACE_BOUND('',#228,.T.);
#265=FACE_BOUND('',#229,.T.);
#266=FACE_BOUND('',#230,.T.);
#267=FACE_BOUND('',#231,.T.);
#268=FACE_BOUND('',#232,.T.);
#269=FACE_BOUND('',#233,.T.);
#270=FACE_BOUND('',#234,.T.);
#271=FACE_BOUND('',#235,.T.);
#272=FACE_BOUND('',#236,.T.);
#273=FACE_BOUND('',#237,.T.);
#274=FACE_BOUND('',#238,.T.);
#275=FACE_BOUND('',#239,.T.);
#276=FACE_BOUND('',#240,.T.);
#277=FACE_BOUND('',#241,.T.);
#278=FACE_BOUND('',#242,.T.);
#279=FACE_BOUND('',#243,.T.);
#280=FACE_BOUND('',#244,.T.);
#281=FACE_BOUND('',#245,.T.);
#282=CYLINDRICAL_SURFACE('',#335,0.003683);
#283=CYLINDRICAL_SURFACE('',#339,0.003683);
#284=CYLINDRICAL_SURFACE('',#342,0.001905);
#285=CYLINDRICAL_SURFACE('',#345,0.001905);
#286=CYLINDRICAL_SURFACE('',#353,0.00369443674571812);
#287=CYLINDRICAL_SURFACE('',#357,0.000889);
#288=CYLINDRICAL_SURFACE('',#360,0.000889);
#289=CYLINDRICAL_SURFACE('',#363,0.001905);
#290=CYLINDRICAL_SURFACE('',#366,0.00369443674571813);
#291=CYLINDRICAL_SURFACE('',#369,0.001905);
#292=ADVANCED_FACE('',(#246),#282,.T.);
#293=ADVANCED_FACE('',(#247),#14,.F.);
#294=ADVANCED_FACE('',(#248),#283,.T.);
#295=ADVANCED_FACE('',(#249,#250),#284,.F.);
#296=ADVANCED_FACE('',(#251,#252),#285,.F.);
#297=ADVANCED_FACE('',(#253),#15,.T.);
#298=ADVANCED_FACE('',(#254,#255,#256),#16,.T.);
#299=ADVANCED_FACE('',(#257,#258,#259),#17,.F.);
#300=ADVANCED_FACE('',(#260),#18,.F.);
#301=ADVANCED_FACE('',(#261),#286,.T.);
#302=ADVANCED_FACE('',(#262),#19,.T.);
#303=ADVANCED_FACE('',(#263,#264),#287,.F.);
#304=ADVANCED_FACE('',(#265,#266),#288,.F.);
#305=ADVANCED_FACE('',(#267,#268),#289,.F.);
#306=ADVANCED_FACE('',(#269),#290,.T.);
#307=ADVANCED_FACE('',(#270,#271),#291,.F.);
#308=ADVANCED_FACE('',(#272,#273,#274,#275,#276),#20,.F.);
#309=ADVANCED_FACE('',(#277,#278,#279,#280,#281),#21,.T.);
#310=CLOSED_SHELL('',(#292,#293,#294,#295,#296,#297,#298,#299));
#311=CLOSED_SHELL('',(#300,#301,#302,#303,#304,#305,#306,#307,#308,#309));
#312=STYLED_ITEM('',(#314),#328);
#313=STYLED_ITEM('',(#315),#329);
#314=PRESENTATION_STYLE_ASSIGNMENT((#316));
#315=PRESENTATION_STYLE_ASSIGNMENT((#317));
#316=SURFACE_STYLE_USAGE(.BOTH.,#318);
#317=SURFACE_STYLE_USAGE(.BOTH.,#319);
#318=SURFACE_SIDE_STYLE('',(#320));
#319=SURFACE_SIDE_STYLE('',(#321));
#320=SURFACE_STYLE_FILL_AREA(#322);
#321=SURFACE_STYLE_FILL_AREA(#323);
#322=FILL_AREA_STYLE('',(#324));
#323=FILL_AREA_STYLE('',(#325));
#324=FILL_AREA_STYLE_COLOUR('',#326);
#325=FILL_AREA_STYLE_COLOUR('',#327);
#326=COLOUR_RGB('',0.972549019607843,0.529411764705882,0.00392156862745098);
#327=COLOUR_RGB('',0.231372549019608,0.380392156862745,0.705882352941177);
#328=MANIFOLD_SOLID_BREP('Part 5',#310);
#329=MANIFOLD_SOLID_BREP('Part 7',#311);
#330=SHAPE_DEFINITION_REPRESENTATION(#566,#332);
#331=SHAPE_DEFINITION_REPRESENTATION(#567,#333);
#332=SHAPE_REPRESENTATION('Part 5',(#334),#556);
#333=SHAPE_REPRESENTATION('Part 7',(#351),#557);
#334=AXIS2_PLACEMENT_3D('',#470,#374,#375);
#335=AXIS2_PLACEMENT_3D('',#471,#376,#377);
#336=AXIS2_PLACEMENT_3D('',#472,#378,#379);
#337=AXIS2_PLACEMENT_3D('',#477,#381,#382);
#338=AXIS2_PLACEMENT_3D('',#480,#384,#385);
#339=AXIS2_PLACEMENT_3D('',#486,#389,#390);
#340=AXIS2_PLACEMENT_3D('',#487,#391,#392);
#341=AXIS2_PLACEMENT_3D('',#491,#394,#395);
#342=AXIS2_PLACEMENT_3D('',#492,#396,#397);
#343=AXIS2_PLACEMENT_3D('',#493,#398,#399);
#344=AXIS2_PLACEMENT_3D('',#495,#400,#401);
#345=AXIS2_PLACEMENT_3D('',#497,#402,#403);
#346=AXIS2_PLACEMENT_3D('',#498,#404,#405);
#347=AXIS2_PLACEMENT_3D('',#500,#406,#407);
#348=AXIS2_PLACEMENT_3D('',#502,#408,#409);
#349=AXIS2_PLACEMENT_3D('',#505,#412,#413);
#350=AXIS2_PLACEMENT_3D('',#506,#414,#415);
#351=AXIS2_PLACEMENT_3D('',#507,#416,#417);
#352=AXIS2_PLACEMENT_3D('',#508,#418,#419);
#353=AXIS2_PLACEMENT_3D('',#517,#424,#425);
#354=AXIS2_PLACEMENT_3D('',#518,#426,#427);
#355=AXIS2_PLACEMENT_3D('',#520,#428,#429);
#356=AXIS2_PLACEMENT_3D('',#523,#431,#432);
#357=AXIS2_PLACEMENT_3D('',#529,#436,#437);
#358=AXIS2_PLACEMENT_3D('',#530,#438,#439);
#359=AXIS2_PLACEMENT_3D('',#532,#440,#441);
#360=AXIS2_PLACEMENT_3D('',#534,#442,#443);
#361=AXIS2_PLACEMENT_3D('',#535,#444,#445);
#362=AXIS2_PLACEMENT_3D('',#537,#446,#447);
#363=AXIS2_PLACEMENT_3D('',#539,#448,#449);
#364=AXIS2_PLACEMENT_3D('',#540,#450,#451);
#365=AXIS2_PLACEMENT_3D('',#542,#452,#453);
#366=AXIS2_PLACEMENT_3D('',#544,#454,#455);
#367=AXIS2_PLACEMENT_3D('',#545,#456,#457);
#368=AXIS2_PLACEMENT_3D('',#546,#458,#459);
#369=AXIS2_PLACEMENT_3D('',#547,#460,#461);
#370=AXIS2_PLACEMENT_3D('',#548,#462,#463);
#371=AXIS2_PLACEMENT_3D('',#550,#464,#465);
#372=AXIS2_PLACEMENT_3D('',#552,#466,#467);
#373=AXIS2_PLACEMENT_3D('',#553,#468,#469);
#374=DIRECTION('',(0.,0.,1.));
#375=DIRECTION('',(1.,0.,0.));
#376=DIRECTION('',(0.,0.,-1.));
#377=DIRECTION('',(-1.,0.,0.));
#378=DIRECTION('',(0.,0.,1.));
#379=DIRECTION('',(1.,0.,0.));
#380=DIRECTION('',(0.,0.,-1.));
#381=DIRECTION('',(0.,0.,1.));
#382=DIRECTION('',(1.,0.,0.));
#383=DIRECTION('',(0.,0.,-1.));
#384=DIRECTION('',(0.,1.,0.));
#385=DIRECTION('',(0.,0.,1.));
#386=DIRECTION('',(1.,0.,0.));
#387=DIRECTION('',(0.,0.,-1.));
#388=DIRECTION('',(1.,0.,0.));
#389=DIRECTION('',(0.,0.,-1.));
#390=DIRECTION('',(-1.,0.,0.));
#391=DIRECTION('',(0.,0.,1.));
#392=DIRECTION('',(1.,0.,0.));
#393=DIRECTION('',(0.,0.,-1.));
#394=DIRECTION('',(0.,0.,1.));
#395=DIRECTION('',(1.,0.,0.));
#396=DIRECTION('',(0.,0.,-1.));
#397=DIRECTION('',(-1.,0.,0.));
#398=DIRECTION('',(0.,0.,1.));
#399=DIRECTION('',(1.,0.,0.));
#400=DIRECTION('',(0.,0.,1.));
#401=DIRECTION('',(1.,0.,0.));
#402=DIRECTION('',(0.,0.,-1.));
#403=DIRECTION('',(-1.,0.,0.));
#404=DIRECTION('',(0.,0.,1.));
#405=DIRECTION('',(1.,0.,0.));
#406=DIRECTION('',(0.,0.,1.));
#407=DIRECTION('',(1.,0.,0.));
#408=DIRECTION('',(0.,1.,0.));
#409=DIRECTION('',(0.,0.,1.));
#410=DIRECTION('',(1.,0.,0.));
#411=DIRECTION('',(1.,0.,0.));
#412=DIRECTION('',(0.,0.,1.));
#413=DIRECTION('',(1.,0.,0.));
#414=DIRECTION('',(0.,0.,1.));
#415=DIRECTION('',(1.,0.,0.));
#416=DIRECTION('',(0.,0.,1.));
#417=DIRECTION('',(1.,0.,0.));
#418=DIRECTION('',(0.,1.,0.));
#419=DIRECTION('',(0.,0.,1.));
#420=DIRECTION('',(-1.,0.,0.));
#421=DIRECTION('',(0.,0.,1.));
#422=DIRECTION('',(-1.,0.,0.));
#423=DIRECTION('',(0.,0.,1.));
#424=DIRECTION('',(0.,0.,1.));
#425=DIRECTION('',(1.,0.,0.));
#426=DIRECTION('',(0.,0.,1.));
#427=DIRECTION('',(1.,0.,0.));
#428=DIRECTION('',(0.,0.,1.));
#429=DIRECTION('',(1.,0.,0.));
#430=DIRECTION('',(0.,0.,1.));
#431=DIRECTION('',(0.,1.,0.));
#432=DIRECTION('',(0.,0.,1.));
#433=DIRECTION('',(-1.,0.,0.));
#434=DIRECTION('',(-1.,0.,0.));
#435=DIRECTION('',(0.,0.,1.));
#436=DIRECTION('',(0.,0.,1.));
#437=DIRECTION('',(1.,0.,0.));
#438=DIRECTION('',(0.,0.,1.));
#439=DIRECTION('',(1.,0.,0.));
#440=DIRECTION('',(0.,0.,1.));
#441=DIRECTION('',(1.,0.,0.));
#442=DIRECTION('',(0.,0.,1.));
#443=DIRECTION('',(1.,0.,0.));
#444=DIRECTION('',(0.,0.,1.));
#445=DIRECTION('',(1.,0.,0.));
#446=DIRECTION('',(0.,0.,1.));
#447=DIRECTION('',(1.,0.,0.));
#448=DIRECTION('',(0.,0.,1.));
#449=DIRECTION('',(1.,0.,0.));
#450=DIRECTION('',(0.,0.,1.));
#451=DIRECTION('',(1.,0.,0.));
#452=DIRECTION('',(0.,0.,1.));
#453=DIRECTION('',(1.,0.,0.));
#454=DIRECTION('',(0.,0.,1.));
#455=DIRECTION('',(1.,0.,0.));
#456=DIRECTION('',(0.,0.,1.));
#457=DIRECTION('',(1.,0.,0.));
#458=DIRECTION('',(0.,0.,1.));
#459=DIRECTION('',(1.,0.,0.));
#460=DIRECTION('',(0.,0.,1.));
#461=DIRECTION('',(1.,0.,0.));
#462=DIRECTION('',(0.,0.,1.));
#463=DIRECTION('',(1.,0.,0.));
#464=DIRECTION('',(0.,0.,1.));
#465=DIRECTION('',(1.,0.,0.));
#466=DIRECTION('',(0.,0.,1.));
#467=DIRECTION('',(1.,0.,0.));
#468=DIRECTION('',(0.,0.,1.));
#469=DIRECTION('',(1.,0.,0.));
#470=CARTESIAN_POINT('',(0.,0.,0.));
#471=CARTESIAN_POINT('',(-0.0688401982188225,0.0665743872523308,0.003175));
#472=CARTESIAN_POINT('',(-0.0688401982188225,0.0665743872523308,0.));
#473=CARTESIAN_POINT('',(-0.0688401982188225,0.0702573872523308,0.));
#474=CARTESIAN_POINT('',(-0.0688401982188225,0.0628913872523308,0.));
#475=CARTESIAN_POINT('',(-0.0688401982188225,0.0628913872523308,0.003175));
#476=CARTESIAN_POINT('',(-0.0688401982188225,0.0628913872523308,0.003175));
#477=CARTESIAN_POINT('',(-0.0688401982188225,0.0665743872523308,0.003175));
#478=CARTESIAN_POINT('',(-0.0688401982188225,0.0702573872523308,0.003175));
#479=CARTESIAN_POINT('',(-0.0688401982188225,0.0702573872523308,0.003175));
#480=CARTESIAN_POINT('',(-0.0513776982188225,0.0628913872523308,0.003175));
#481=CARTESIAN_POINT('',(-0.0513776982188225,0.0628913872523308,0.));
#482=CARTESIAN_POINT('',(-0.0339151982188225,0.0628913872523308,0.));
#483=CARTESIAN_POINT('',(-0.0339151982188225,0.0628913872523308,0.003175));
#484=CARTESIAN_POINT('',(-0.0339151982188225,0.0628913872523308,0.003175));
#485=CARTESIAN_POINT('',(-0.0513776982188225,0.0628913872523308,0.003175));
#486=CARTESIAN_POINT('',(-0.0339151982188225,0.0665743872523308,0.003175));
#487=CARTESIAN_POINT('',(-0.0339151982188225,0.0665743872523308,0.));
#488=CARTESIAN_POINT('',(-0.0339151982188225,0.0702573872523308,0.));
#489=CARTESIAN_POINT('',(-0.0339151982188225,0.0702573872523308,0.003175));
#490=CARTESIAN_POINT('',(-0.0339151982188225,0.0702573872523308,0.003175));
#491=CARTESIAN_POINT('',(-0.0339151982188225,0.0665743872523308,0.003175));
#492=CARTESIAN_POINT('',(-0.0688401982188225,0.0665743872523308,0.003175));
#493=CARTESIAN_POINT('',(-0.0688401982188225,0.0665743872523308,0.003175));
#494=CARTESIAN_POINT('',(-0.0669351982188225,0.0665743872523308,0.003175));
#495=CARTESIAN_POINT('',(-0.0688401982188225,0.0665743872523308,0.));
#496=CARTESIAN_POINT('',(-0.0669351982188225,0.0665743872523308,0.));
#497=CARTESIAN_POINT('',(-0.0339151982188225,0.0665743872523308,0.003175));
#498=CARTESIAN_POINT('',(-0.0339151982188225,0.0665743872523308,0.003175));
#499=CARTESIAN_POINT('',(-0.0320101982188225,0.0665743872523308,0.003175));
#500=CARTESIAN_POINT('',(-0.0339151982188225,0.0665743872523308,0.));
#501=CARTESIAN_POINT('',(-0.0320101982188225,0.0665743872523308,0.));
#502=CARTESIAN_POINT('',(-0.0513776982188225,0.0702573872523308,0.003175));
#503=CARTESIAN_POINT('',(-0.0513776982188225,0.0702573872523308,0.));
#504=CARTESIAN_POINT('',(-0.0513776982188225,0.0702573872523308,0.003175));
#505=CARTESIAN_POINT('',(-0.0513776982188225,0.0665743872523308,0.003175));
#506=CARTESIAN_POINT('',(-0.0513776982188225,0.0665743872523308,0.));
#507=CARTESIAN_POINT('',(0.,0.,0.));
#508=CARTESIAN_POINT('',(-0.0873125,-0.00369443674571812,-0.004699));
#509=CARTESIAN_POINT('',(-0.0873125,-0.00369443674571812,-0.001524));
#510=CARTESIAN_POINT('',(-0.06985,-0.00369443674571812,-0.001524));
#511=CARTESIAN_POINT('',(-0.104775,-0.00369443674571814,-0.001524));
#512=CARTESIAN_POINT('',(-0.104775,-0.00369443674571814,-0.004699));
#513=CARTESIAN_POINT('',(-0.104775,-0.00369443674571814,-0.004699));
#514=CARTESIAN_POINT('',(-0.0873125,-0.00369443674571812,-0.004699));
#515=CARTESIAN_POINT('',(-0.06985,-0.00369443674571812,-0.004699));
#516=CARTESIAN_POINT('',(-0.06985,-0.00369443674571812,-0.004699));
#517=CARTESIAN_POINT('',(-0.06985,-2.15347190899104E-18,-0.004699));
#518=CARTESIAN_POINT('',(-0.06985,-2.15347190899104E-18,-0.001524));
#519=CARTESIAN_POINT('',(-0.06985,0.00369443674571812,-0.001524));
#520=CARTESIAN_POINT('',(-0.06985,-2.15347190899104E-18,-0.004699));
#521=CARTESIAN_POINT('',(-0.06985,0.00369443674571812,-0.004699));
#522=CARTESIAN_POINT('',(-0.06985,0.00369443674571812,-0.004699));
#523=CARTESIAN_POINT('',(-0.0873125,0.00369443674571812,-0.004699));
#524=CARTESIAN_POINT('',(-0.0873125,0.00369443674571812,-0.001524));
#525=CARTESIAN_POINT('',(-0.104775,0.00369443674571812,-0.001524));
#526=CARTESIAN_POINT('',(-0.0873125,0.00369443674571812,-0.004699));
#527=CARTESIAN_POINT('',(-0.104775,0.00369443674571812,-0.004699));
#528=CARTESIAN_POINT('',(-0.104775,0.00369443674571812,-0.004699));
#529=CARTESIAN_POINT('',(-0.0895604,-7.6690249401405E-18,-0.004699));
#530=CARTESIAN_POINT('',(-0.0895604,-7.6690249401405E-18,-0.004699));
#531=CARTESIAN_POINT('',(-0.0886714,-7.6690249401405E-18,-0.004699));
#532=CARTESIAN_POINT('',(-0.0895604,-7.6690249401405E-18,-0.001524));
#533=CARTESIAN_POINT('',(-0.0886714,-7.6690249401405E-18,-0.001524));
#534=CARTESIAN_POINT('',(-0.0978281,-7.58131193176296E-18,-0.004699));
#535=CARTESIAN_POINT('',(-0.0978281,-7.58131193176296E-18,-0.004699));
#536=CARTESIAN_POINT('',(-0.0969391,-7.58131193176296E-18,-0.004699));
#537=CARTESIAN_POINT('',(-0.0978281,-7.58131193176296E-18,-0.001524));
#538=CARTESIAN_POINT('',(-0.0969391,-7.58131193176296E-18,-0.001524));
#539=CARTESIAN_POINT('',(-0.104775,-1.23599047663347E-17,-0.004699));
#540=CARTESIAN_POINT('',(-0.104775,-1.23599047663347E-17,-0.004699));
#541=CARTESIAN_POINT('',(-0.10287,-1.23599047663347E-17,-0.004699));
#542=CARTESIAN_POINT('',(-0.104775,-1.23599047663347E-17,-0.001524));
#543=CARTESIAN_POINT('',(-0.10287,-1.23599047663347E-17,-0.001524));
#544=CARTESIAN_POINT('',(-0.104775,-1.21430643318376E-17,-0.004699));
#545=CARTESIAN_POINT('',(-0.104775,-1.21430643318376E-17,-0.001524));
#546=CARTESIAN_POINT('',(-0.104775,-1.21430643318376E-17,-0.004699));
#547=CARTESIAN_POINT('',(-0.06985,-2.02189186539228E-18,-0.004699));
#548=CARTESIAN_POINT('',(-0.06985,-2.02189186539228E-18,-0.004699));
#549=CARTESIAN_POINT('',(-0.067945,-2.02189186539228E-18,-0.004699));
#550=CARTESIAN_POINT('',(-0.06985,-2.02189186539228E-18,-0.001524));
#551=CARTESIAN_POINT('',(-0.067945,-2.02189186539228E-18,-0.001524));
#552=CARTESIAN_POINT('',(-0.0542347183728591,0.0404814973240718,-0.004699));
#553=CARTESIAN_POINT('',(-0.0542347183728591,0.0404814973240718,-0.001524));
#554=MECHANICAL_DESIGN_GEOMETRIC_PRESENTATION_REPRESENTATION('',(#312),
#556);
#555=MECHANICAL_DESIGN_GEOMETRIC_PRESENTATION_REPRESENTATION('',(#313),
#557);
#556=(
GEOMETRIC_REPRESENTATION_CONTEXT(3)
GLOBAL_UNCERTAINTY_ASSIGNED_CONTEXT((#558))
GLOBAL_UNIT_ASSIGNED_CONTEXT((#564,#562,#560))
REPRESENTATION_CONTEXT('Part 5','TOP_LEVEL_ASSEMBLY_PART')
);
#557=(
GEOMETRIC_REPRESENTATION_CONTEXT(3)
GLOBAL_UNCERTAINTY_ASSIGNED_CONTEXT((#559))
GLOBAL_UNIT_ASSIGNED_CONTEXT((#565,#563,#561))
REPRESENTATION_CONTEXT('Part 7','TOP_LEVEL_ASSEMBLY_PART')
);
#558=UNCERTAINTY_MEASURE_WITH_UNIT(LENGTH_MEASURE(1.E-8),#564,
'DISTANCE_ACCURACY_VALUE','Maximum Tolerance applied to model');
#559=UNCERTAINTY_MEASURE_WITH_UNIT(LENGTH_MEASURE(1.E-8),#565,
'DISTANCE_ACCURACY_VALUE','Maximum Tolerance applied to model');
#560=(
NAMED_UNIT(*)
SI_UNIT($,.STERADIAN.)
SOLID_ANGLE_UNIT()
);
#561=(
NAMED_UNIT(*)
SI_UNIT($,.STERADIAN.)
SOLID_ANGLE_UNIT()
);
#562=(
NAMED_UNIT(*)
PLANE_ANGLE_UNIT()
SI_UNIT($,.RADIAN.)
);
#563=(
NAMED_UNIT(*)
PLANE_ANGLE_UNIT()
SI_UNIT($,.RADIAN.)
);
#564=(
LENGTH_UNIT()
NAMED_UNIT(*)
SI_UNIT($,.METRE.)
);
#565=(
LENGTH_UNIT()
NAMED_UNIT(*)
SI_UNIT($,.METRE.)
);
#566=PRODUCT_DEFINITION_SHAPE('','',#568);
#567=PRODUCT_DEFINITION_SHAPE('','',#569);
#568=PRODUCT_DEFINITION('','',#572,#570);
#569=PRODUCT_DEFINITION('','',#573,#571);
#570=PRODUCT_DEFINITION_CONTEXT('',#584,'design');
#571=PRODUCT_DEFINITION_CONTEXT('',#585,'design');
#572=PRODUCT_DEFINITION_FORMATION_WITH_SPECIFIED_SOURCE('','',#576,
 .NOT_KNOWN.);
#573=PRODUCT_DEFINITION_FORMATION_WITH_SPECIFIED_SOURCE('','',#577,
 .NOT_KNOWN.);
#574=PRODUCT_RELATED_PRODUCT_CATEGORY('','',(#576));
#575=PRODUCT_RELATED_PRODUCT_CATEGORY('','',(#577));
#576=PRODUCT('Part 5','Part 5','Part 5',(#580));
#577=PRODUCT('Part 7','Part 7','Part 7',(#581));
#578=PRODUCT_CATEGORY('','');
#579=PRODUCT_CATEGORY('','');
#580=PRODUCT_CONTEXT('',#584,'mechanical');
#581=PRODUCT_CONTEXT('',#585,'mechanical');
#582=APPLICATION_PROTOCOL_DEFINITION('international standard',
'ap242_managed_model_based_3d_engineering',2020,#584);
#583=APPLICATION_PROTOCOL_DEFINITION('international standard',
'ap242_managed_model_based_3d_engineering',2020,#585);
#584=APPLICATION_CONTEXT('managed model based 3d engineering');
#585=APPLICATION_CONTEXT('managed model based 3d engineering');
ENDSEC;
END-ISO-10303-21;
